<?xml version="1.0" encoding="UTF-8"?><svg xmlns="http://www.w3.org/2000/svg" xmlns:xlink="http://www.w3.org/1999/xlink" height="588.2" preserveAspectRatio="xMidYMid meet" version="1.0" viewBox="9.2 17.0 714.4 588.2" width="714.4" zoomAndPan="magnify"><g id="change1_1"><path d="m620.94 597.91c-19.491-15.254-53.894-27.1-96.429-33.202-9.541-1.3689-30.729-5.3362-47.085-8.8164s-37.179-6.3364-46.273-6.3472c-14.408-0.01712-19.033-1.3006-35.958-9.9782-10.683-5.4772-25.436-14.51-32.785-20.072-11.651-8.8182-14.981-10.102-25.996-10.024-6.9488 0.0492-32.136 0.10818-55.972 0.13105-32.819 0.03147-47.091 1.0576-58.802 4.2276-17.331 4.6911-15.051 4.9825-78.767-10.067-27.918-6.5939-42.934-11.675-60.313-20.406-21.326-10.715-24.873-11.709-45.227-12.683-21.124-1.01-22.086-1.3054-22.086-6.7869 0-3.152 1.1773-8.8275 2.6162-12.612 2.5666-6.7506 2.0002-9.2505-5.3836-23.765-3.313-6.5126-2.6777-10.515 2.7673-17.438 2.7847-3.5402 4.9564-10.053 4.9564-14.865 0-5.7037 1.9663-10.54 5.8868-14.478 3.3147-3.3299 6.6622-10.539 7.6614-16.5 1.3749-8.2019 3.3639-11.408 8.8318-14.235 8.7525-4.5261 14.597-12.566 13.151-18.092-0.66546-2.5447 3.5636-9.3215 10.806-17.316 10.192-11.251 15.394-14.525 36.261-22.823 13.399-5.328 31.242-14.01 39.651-19.293s24.51-14.383 35.779-20.221c22.395-11.602 43.24-31.66 64.49-62.057 23.837-34.096 45.569-62.281 49.054-63.618 1.9994-0.76725 6.3565-6.0384 9.6824-11.714 6.5228-11.13 20.22-25.482 22.318-23.384 2.621 2.621 1.6729 33.803-1.1905 39.154-1.6302 3.046-9.5229 14.708-17.539 25.915-9.0028 12.586-17.974 29.176-23.464 43.392-4.8887 12.658-8.5463 23.346-8.1279 23.75s12.679-7.9181 27.245-18.494c27.268-19.799 42.877-28.331 66.476-36.341 7.4804-2.5389 14.038-4.8816 14.571-5.206s-1.5858-2.6599-4.7104-5.19c-7.8219-6.3338-5.573-13.34 9.8281-30.62 6.8739-7.7123 12.498-14.949 12.498-16.082s3.9486-7.7928 8.7747-14.8c6.468-9.3912 12.82-14.876 24.162-20.864 18.965-10.012 34.007-20.052 49.735-33.197 11.685-9.7662 12.612-10.074 31.149-10.354 16.478-0.24834 20.539-1.237 29.535-7.1901 11.179-7.3979 20.025-8.3297 33.347-3.5124 5.9126 2.138 12.13 2.298 22.159 0.57016 10.31-1.7763 15.88-1.5862 21.389 0.73018 11.646 4.8969 21.678 20.879 24.97 39.783 1.5716 9.0245 6.1744 22.979 10.229 31.011s10.181 26.494 13.615 41.029c7.2554 30.706 16.544 53.23 33.833 82.043 13.779 22.964 18.807 38.517 20.172 62.404 1.0956 19.173-6.1595 79.712-11.933 99.571-3.9648 13.638-11.929 26.816-16.207 26.816-1.1513 0-9.713-6.2499-19.026-13.889-20.951-17.184-28.727-21.121-55.344-28.016-32.142-8.326-36.935-11.765-75.776-54.359-13.729-15.056-25.105-21.665-47.997-27.888-14.414-3.918-16.678-3.9759-23.218-0.59373-4.2339 2.1894-19.23 4.6358-36.07 5.8842-27.943 2.0715-54.327 7.975-68.254 15.272-6.1562 3.2256-6.4049 3.864-2.7018 6.9373 5.3017 4.4 56.929 12.328 79.626 12.228 9.7173-0.04308 20.51 0.63493 23.983 1.5067 8.0412 2.0182 10.973 8.9538 5.1944 12.289-2.3611 1.363-8.7045 6.6601-14.096 11.771s-11.342 9.2932-13.222 9.2932c-5.8863 0-3.7821 3.8346 6.7478 12.297 9.5079 7.6408 11.063 8.0773 24.009 6.7411 16.348-1.6873 40.231 2.4909 74.259 12.992 27.96 8.6282 38.589 15.088 66.352 40.331 19.213 17.468 35.814 27.358 76.748 45.723l14.869 6.6709-13.63 1.7173c-53.973 6.8001-79.302 30.544-79.302 74.341 0 15.48 3.2836 27.405 10.337 37.538 6.1208 8.7942 2.4342 10.591-6.8394 3.333zm-9.5567-23.334c-14.926-29.639-18.684-49.316-16.99-88.943l1.4646-34.244-8.1989-9.3381c-13.418-15.282-55.924-34.38-85.998-38.639-12.547-1.7768-21.372-1.3907-37.659 1.6478-29.851 5.569-38.399 4.9317-59.683-4.4502-13.989-6.1662-22.237-8.2244-33.346-8.3208l-14.76-0.12805-2.2157-9.301c-2.3131-9.7097-14.097-20.684-19.842-18.48-1.6927 0.64952-6.2926 7.5353-10.222 15.302-7.0433 13.921-7.2678 14.098-15.861 12.485-8.6104-1.6153-8.492-1.4223 9.6904 15.798 10.124 9.5884 23.983 20.173 30.798 23.521s23.23 11.235 36.478 17.527c22.13 10.51 24.974 12.692 35.003 26.857 6.0034 8.4798 12.724 18.979 14.935 23.331 6.1954 12.198 0.148 12.811-9.9533 1.0102-9.1234-10.659-13.269-12.672-13.269-6.4454 0 6.5682-6.027 3.9159-11.981-5.2726-4.2559-6.5675-6.5168-8.1977-8.5497-6.1648-4.2367 4.2367-6.6308 3.3443-9.2071-3.4316-2.6548-6.9825-11.013-8.4055-13.365-2.2755-2.6524 6.9121-1.6305 11.734 3.686 17.394 7.6558 8.1493 4.4873 15.368-7.1707 16.336l-9.1713 0.76186 14.869 9.7841c29.87 19.655 40.728 23.716 69.86 26.126 14.734 1.2193 36.268 4.4264 47.853 7.127s27.198 5.6361 34.694 6.5234c26.973 3.1926 66.188 14.053 80.872 22.397 7.9955 4.5432 14.83 8.333 15.188 8.4218s-3.2192-7.5234-7.9492-16.916zm-384.25-66.159c9.864-3.0892 19.466-3.5894 47.085-2.4526 19.082 0.78541 38.598 0.42756 43.368-0.79522s7.2796-2.3374 5.5759-2.4769c-5.1621-0.42271-3.477-8.9461 2.9652-14.998 5.3248-5.0024 7.9414-5.5599 21.494-4.5796l15.431 1.1162-8.4835-7.0827c-13.213-11.031-26.76-16.388-46.105-18.229-15.56-1.4813-19.263-0.98436-29.465 3.9542-7.5024 3.6318-12.747 4.8461-14.692 3.4011-15.22-11.312-16.224-11.697-22.181-8.509-7.7142 4.1285-11.703 1.3907-9.685-6.6481l1.609-6.4107-12.568 1.6672c-14.479 1.9207-18.214-1.0064-8.9929-7.0482 3.5081-2.2986 10.881-8.2753 16.385-13.282 9.9728-9.0717 21.83-16.695 45.344-29.154 6.815-3.6108 12.782-6.9154 13.261-7.3434s-2.0308-4.581-5.5759-9.229c-8.5304-11.184-8.1306-16.995 1.901-27.632 7.7766-8.2456 9.3667-8.8501 23.282-8.8501 8.2234 0 22.569 2.3612 31.924 5.2544 14.941 4.6211 22.349 5.2007 61.462 4.8093 36.731-0.36754 45.718-1.1744 51.619-4.6348l7.1453-4.1898-13.195-1.2391c-12.337-1.1585-13.277-1.7184-14.459-8.6068-1.8528-10.801-10.121-14.21-30.976-12.77-9.541 0.65872-22.34 2.99-28.443 5.1807-11.416 4.0981-31.971 7.6108-64.489 11.021-12.827 1.3452-23.682 4.4067-35.032 9.8805-14.471 6.9791-17.979 7.7278-29.221 6.2365-12.029-1.5956-36.928 1.1036-61.955 6.7164-6.0355 1.3535-25.774 2.4014-43.864 2.3286s-35.866 0.99883-39.502 2.3814-17.752 4.0708-31.368 5.9739c-21.26 2.9716-25.798 4.4519-32.127 10.482-6.0101 5.7261-7.1374 8.48-6.1083 14.923 0.83501 5.2274 0.01962 8.9317-2.4098 10.948-6.3666 5.2838-8.9805 12.109-6.0086 15.69 1.4811 1.7846 1.9968 5.0589 1.1459 7.2761-1.1011 2.8695-0.16108 4.0314 3.2615 4.0314 7.2605 0 8.2079 2.383 3.0129 7.578-5.0992 5.0992-8.8524 16.468-6.2843 19.037 0.88112 0.88111 5.8802 1.8204 11.109 2.0874 19.773 1.0096 31.148 4.3756 53.166 15.734 15.205 7.8432 30.871 13.576 47.475 17.373 13.63 3.1165 32.03 7.6404 40.89 10.053 20.558 5.5985 37.634 5.9279 53.281 1.0277zm145.82-4.6223c2.1748-5.6673-11.863-15.715-24.632-17.629-9.1684-1.3749-12.61-0.77587-17.799 3.0984-9.4362 7.0451-9.1934 9.5311 1.2417 12.716 19.757 6.0298 39.242 6.8885 41.189 1.8152zm-90.437-58.285c-4.9146-4.051-12.566-13.023-17.003-19.938l-8.0676-12.572-4.7232 7.7666c-7.8732 12.946-1.262 22.587 19.343 28.205 18.511 5.0471 20.125 4.5124 10.451-3.4614zm38.201-66.764 6.3168-12.175-5.3454-4.8621c-16.813-15.293-36.166-14.009-42.15 2.7975-3.5079 9.8516 12.795 22.637 33.355 26.157 0.82872 0.14193 4.3494-5.2209 7.8236-11.917zm384.2-28.095c4.7652-3.5452 7.9651-18.61 10.446-49.181 2.1052-25.938 0.14279-30.642-21.31-51.086-19.472-18.555-22.542-24.823-24.685-50.393-1.1546-13.777-3.7688-25.466-7.482-33.455-4.1952-9.0263-6.1183-18.846-7.2586-37.062-1.1541-18.437-2.9404-27.453-6.9771-35.215-2.9842-5.7384-5.4258-14.445-5.4258-19.348 0-15.488-5.3-30.946-13.644-39.793-9.7994-10.39-18.569-10.974-47.295-3.1487-15.103 4.1145-27.097 5.3942-52.256 5.5759-29.703 0.21448-33.286 0.72972-39.651 5.7021-8.4521 6.6031-45.151 31.329-61.773 41.619-14.359 8.8895-23.287 21.296-23.287 32.36 0 8.2241-14.885 30.3-23.79 35.284-8.0602 4.5107 1.2798 5.6706 15.657 1.9444 11.94-3.0946 16.186-5.7976 25.48-16.221 8.3777-9.3962 15.08-14.029 26.944-18.623 8.6858-3.3634 22.027-9.6339 29.647-13.934l13.855-7.8192 22.944 4.5114c23.76 4.6717 28.288 4.1889 52.547-5.6036 2.1566-0.87053 2.7876-0.32976 1.6892 1.4475-2.2028 3.5642-17.827 10.197-24.021 10.197-5.6986 0-5.8956 3.2354-0.68167 11.193 5.5809 8.5175 18.863 11.757 31.025 7.567 11.888-4.0956 12.504-1.6197 1.1223 4.5096-4.6685 2.5141-11.256 7.5072-14.639 11.096-6.7583 7.1695-16.246 27.401-10.949 23.348 1.704-1.304 11.028-8.6894 20.72-16.412 22.511-17.937 28.038-18.195 8.8301-0.41207-21.315 19.734-22.669 31.438-2.0154 17.423 11.327-7.6868 11.427-5.8188 0.34583 6.4471-13.751 15.22-10.433 20.832 8.4303 14.256 4.362-1.5206 8.5037-2.1918 9.204-1.4916s-4.6538 3.2172-11.898 5.5934-21.535 8.238-31.757 13.026c-16.754 7.8476-20.908 8.7524-42.129 9.1759-13.903 0.27741-28.109-0.8917-34.694-2.8552-16.1-4.8003-41.719-6.7696-58.534-4.4995l-14.572 1.9673 11.04 2.0334c17.522 3.2271 22.638 10.764 18.571 27.364-1.5636 6.3831-1.183 6.692 9.1601 7.4345 5.9353 0.42608 17.037-0.24636 24.67-1.4943 8.4405-1.38 19.121-1.3714 27.26 0.02187 11.193 1.9162 13.309 3.0978 12.939 7.2254-0.24368 2.714-2.3558 6.0496-4.6935 7.4126s-7.1278 4.8659-10.644 7.7842l-6.394 5.3061 9.8485 2.7342c5.4166 1.5038 24.001 2.7404 41.299 2.748s32.084 1.0397 32.859 2.2936-1.6684 4.7507-5.4296 7.7708-5.7234 5.9168-4.3604 6.4371 6.9389 3.4712 12.391 6.5576c10.147 5.7443 11.279 10.41 2.5243 10.41-9.3664 0-6.5845 7.8629 7.258 20.514 7.55 6.9003 17.691 13.854 22.536 15.453 10.072 3.324 26.883 2.3469 43.667-2.5383 10.933-3.182 12.328-3.0082 26.021 3.241 15.934 7.272 24.982 8.3123 31.315 3.6005zm-241.17-13.279c5.4796-2.1925 9.9629-5.4697 9.9629-7.2827 0-3.8601-16.338-6.838-30.977-5.6462-8.9882 0.73178-9.8311 1.3849-9.0378 7.0025 0.48121 3.4075 2.154 7.0148 3.7173 8.0161 4.7056 3.0142 15.774 2.1359 26.335-2.0898zm-164.75-14.922c12.267-2.2269 27.322-6.5575 33.455-9.6236 21.266-10.631 55.12-23.72 70.27-27.17 8.3747-1.9068 25.749-4.2002 38.61-5.0964 26.343-1.8357 31.608-3.3169 38.335-10.785l4.7209-5.2407h-10.076c-8.2517 0-11.261-1.4079-16.618-7.7744-5.8619-6.9665-8.2671-7.8978-23.143-8.9614-27.456-1.9631-49.633 2.8432-77.392 16.773-30.391 15.251-59.061 23.732-95.349 28.206-25.222 3.1093-29.29 4.3448-42.802 12.998-8.2121 5.259-16.903 10.742-19.313 12.184-3.3068 1.9788-0.47816 2.409 11.526 1.7529 8.7497-0.47824 23.715 0.74606 33.256 2.7207 23.053 4.7711 28.323 4.7727 54.52 0.0171zm23.449-80.246c18.05-18.386 24.446-23.095 43.529-32.052l22.371-10.499-3.7845-15.871c-2.0815-8.729-4.694-15.877-5.8056-15.884-7.4054-0.0471-40.626 19.21-56.216 32.586-10.222 8.7712-26.95 22.281-37.173 30.021s-24.405 19.014-31.516 25.053l-12.93 10.979 30.183-1.3906 30.183-1.3906 21.158-21.552zm36.952 12.086c12.775-3.907 25.36-7.1036 27.967-7.1036 3.9172 0 4.294-0.8311 2.1734-4.7934-4.1481-7.7508-2.9789-21.272 2.4346-28.155 2.75-3.496 3.9736-6.9908 2.7191-7.7661s-11.758 2.9479-23.34 8.2738c-16.003 7.3584-25.581 13.979-39.892 27.572-10.358 9.8389-18.832 18.931-18.832 20.204 0 3.4415 20.258-0.1242 46.771-8.2324zm138.89 2.5835c11.638-7.0951 6.7409-9.6013-18.856-9.6491-21.277-0.03978-24.493 1.2044-19.752 7.6414 6.3529 8.6254 26.07 9.6508 38.608 2.0077zm-72.549-18.037c11.282-11.163 2.7691-21.816-18.673-23.367-13.46-0.97363-14.52-0.65507-15.981 4.8049-4.913 18.353 0.78761 25.225 19.044 22.954 7.0283-0.8743 14.053-2.8504 15.611-4.3914zm-167.9-5.9034c7.045-3.6344 9.4809-7.3295 15.109-22.919 9.0227-24.993 18.419-43.234 30.25-58.726 11.018-14.427 19.348-29.627 19.348-35.305 0-2.0727-2.7033 0.20974-6.0074 5.0721s-8.9486 10.768-12.543 13.123-12.024 12.855-18.731 23.331c-22.129 34.564-34.456 51.31-46.936 63.756-6.7778 6.7598-12.347 13.127-12.377 14.149-0.10527 3.6293 23.621 1.7825 31.888-2.482zm243.66-24.952c3.8899-1.5444 3.7734-2.5086-1.4012-11.597-4.1911-7.3611-7.0375-9.7607-11.058-9.3224-6.9004 0.75244-6.8042-0.70053 0.63162-9.5375 7.1949-8.5506 10.663-27.174 6.6862-35.902-1.5169-3.3291-5.7142-7.177-9.3275-8.5507-9.5082-3.615-5.3142-5.852 4.7466-2.5317 10.489 3.4618 18.892 0.66325 26.305-8.7603 6.7444-8.5741 3.75-12.356-13.208-16.682-11.534-2.9424-12.054-2.8106-35.682 9.0433-13.188 6.616-24.293 12.345-24.679 12.731s0.03539 5.311 0.93628 10.945c1.3928 8.7104 2.5295 10.244 7.5945 10.244 8.4304 0 9.9783 6.5455 3.2432 13.715-5.7518 6.1225-7.4701 21.296-3.742 33.042 1.5667 4.9362 17.191 10.96 34.799 13.418 4.089 0.5706 7.9921 1.1262 8.6736 1.2346s3.1483-0.56087 5.4818-1.4873zm-94.696-4.021c0-0.60359-2.4538-5.2563-5.4529-10.339-3.7077-6.284-5.4923-13.467-5.5759-22.443-0.1331-14.286-0.5898-14.89-7.4609-9.8655-3.7358 2.7316-4.2616 5.2562-2.8862 13.857 2.4333 15.217 10.518 29.888 16.47 29.888 2.6983 0 4.906-0.49384 4.906-1.0974zm32.178-4.4785c-0.1017-8.3013-3.883-9.8294-15.013-6.0671-15.808 5.3437-15.302 9.1648 1.2143 9.1648 9.4373 0 13.824-0.98489 13.799-3.0977zm-16.825-10.658c6.2039-2.1139 13.846-6.5746 16.982-9.9127l5.7018-6.0693h-14.086c-11.02 0-15.01-1.079-18.33-4.9564-2.3341-2.726-6.3243-4.9564-8.8672-4.9564-4.0609 0-4.4112 1.2815-2.8787 10.532 1.909 11.524 5.2085 19.206 8.2494 19.206 1.0723 0 7.0254-1.7295 13.229-3.8434zm30.214-28.189 7.6183-7.6183-11.104 0.19868c-13.013 0.23283-36.096 7.3726-35.413 10.953 0.71305 3.7335 10.728 6.0587 21.599 5.0146 6.7074-0.64422 12.021-3.27 17.3-8.5481zm-28.846-6.1663c0.681-0.681 0.51373-3.1261-0.37173-5.4336-1.4696-3.8298-2.0901-3.7587-7.1211 0.81679-3.0312 2.7567-7.184 5.7218-9.2285 6.5892s0.60285 1.057 5.8829 0.4214 10.157-1.7128 10.838-2.3938zm-34.852-14.462c8.7765-9.2724 14.463-19.206 10.994-19.206-2.7828 0-22.601 22.036-22.601 25.131 0 4.1204 4.0619 2.0471 11.607-5.9248zm-78.279-22.382c4.5259-3.4538 13.085-19.02 11.39-20.715-1.3535-1.3535-19.064 18.954-19.064 21.859 0 2.8512 3.0294 2.3994 7.6732-1.1444z" fill="inherit"/></g></svg>