<?xml version="1.0" encoding="UTF-8" standalone="no"?><svg xmlns="http://www.w3.org/2000/svg" xmlns:xlink="http://www.w3.org/1999/xlink" fill="#000000" height="488.1" preserveAspectRatio="xMidYMid meet" version="1" viewBox="-0.0 0.0 74.6 488.1" width="74.6" zoomAndPan="magnify"><g id="change1_1"><path d="M 58.558594 428.207031 C 58.558594 422.644531 56.894531 418.070312 56.894531 418.070312 C 56.894531 418.070312 55.894531 422.714844 55.894531 428.273438 C 55.894531 433.835938 56.894531 438.199219 56.894531 438.199219 C 56.894531 438.199219 58.558594 433.761719 58.558594 428.207031 Z M 56.066406 411.375 C 55.992188 409.757812 55.921875 407.628906 55.746094 405.3125 C 55.570312 402.996094 55.316406 400.851562 55.152344 399.210938 C 55.066406 398.386719 54.996094 397.707031 54.945312 397.234375 C 54.890625 396.753906 54.855469 396.476562 54.855469 396.476562 C 54.855469 396.476562 54.742188 396.71875 54.539062 397.148438 C 54.335938 397.585938 54.082031 398.226562 53.832031 399.039062 C 53.320312 400.660156 52.890625 403.015625 53.09375 405.582031 C 53.292969 408.144531 54.078125 410.339844 54.800781 411.804688 C 55.164062 412.539062 55.5 413.105469 55.757812 413.484375 C 56.011719 413.855469 56.15625 414.0625 56.15625 414.0625 C 56.15625 414.0625 56.148438 413.796875 56.140625 413.324219 C 56.121094 412.855469 56.09375 412.191406 56.066406 411.375 Z M 37.320312 243.839844 C 37.535156 255.898438 38.703125 265.371094 38.703125 265.371094 C 38.703125 265.371094 40.199219 255.730469 39.984375 243.640625 C 39.773438 231.550781 37.929688 221.660156 37.929688 221.660156 C 37.929688 221.660156 37.109375 231.785156 37.320312 243.839844 Z M 8.84375 143.523438 C 9.378906 145.730469 10.503906 147.472656 11.457031 148.535156 C 11.9375 149.070312 12.359375 149.460938 12.675781 149.707031 C 12.984375 149.945312 13.160156 150.082031 13.160156 150.082031 C 13.160156 150.082031 13.101562 149.851562 13.003906 149.449219 C 12.890625 149.054688 12.75 148.484375 12.582031 147.816406 C 12.277344 146.511719 11.871094 144.769531 11.421875 142.847656 C 10.976562 140.976562 10.507812 139.226562 10.210938 137.84375 C 9.914062 136.433594 9.714844 135.507812 9.714844 135.507812 C 9.714844 135.507812 9.617188 135.71875 9.445312 136.09375 C 9.269531 136.472656 9.0625 137.039062 8.878906 137.761719 C 8.5 139.199219 8.304688 141.320312 8.84375 143.523438 Z M 52.59375 151.550781 C 54.054688 152.46875 56.382812 153.40625 59.058594 153.414062 C 60.382812 153.429688 61.714844 153.207031 62.84375 152.6875 C 63.980469 152.183594 64.863281 151.351562 65.335938 150.550781 C 65.824219 149.75 65.976562 148.992188 65.988281 148.488281 C 66 147.980469 65.925781 147.71875 65.925781 147.71875 C 65.925781 147.71875 65.828125 148 65.578125 148.40625 C 65.335938 148.816406 64.894531 149.320312 64.28125 149.730469 C 63.046875 150.609375 61.253906 150.800781 59.019531 150.75 C 56.796875 150.730469 54.707031 150.566406 53.097656 150.3125 C 52.296875 150.191406 51.625 150.0625 51.152344 149.964844 C 50.675781 149.863281 50.40625 149.808594 50.40625 149.808594 C 50.40625 149.808594 50.589844 150.003906 50.949219 150.328125 C 51.308594 150.652344 51.855469 151.089844 52.59375 151.550781 Z M 43.824219 149.410156 C 43.824219 149.410156 42.902344 149.347656 41.546875 149.320312 C 40.191406 149.289062 38.460938 149.234375 36.792969 148.957031 C 35.183594 148.695312 33.660156 148.113281 32.617188 147.351562 C 32.097656 146.972656 31.6875 146.558594 31.441406 146.230469 C 31.183594 145.90625 31.046875 145.691406 31.046875 145.691406 C 31.046875 145.691406 31.015625 145.925781 31.042969 146.359375 C 31.0625 146.792969 31.195312 147.425781 31.542969 148.144531 C 32.21875 149.566406 33.984375 151.226562 36.417969 151.597656 C 38.789062 151.953125 40.742188 151.203125 41.953125 150.589844 C 43.183594 149.957031 43.824219 149.410156 43.824219 149.410156 Z M 18.035156 145.929688 C 16.726562 144.863281 15.507812 143.824219 14.632812 142.875 C 14.195312 142.410156 13.824219 141.992188 13.589844 141.683594 C 13.335938 141.371094 13.191406 141.195312 13.191406 141.195312 C 13.191406 141.195312 13.191406 141.414062 13.191406 141.800781 C 13.1875 142.195312 13.253906 142.765625 13.429688 143.449219 C 13.589844 144.148438 13.921875 144.929688 14.394531 145.746094 C 14.890625 146.542969 15.558594 147.351562 16.398438 148.03125 C 18.089844 149.402344 20.050781 149.894531 21.402344 149.933594 C 22.085938 149.953125 22.628906 149.90625 22.996094 149.824219 C 23.359375 149.746094 23.558594 149.703125 23.558594 149.703125 C 23.558594 149.703125 23.363281 149.59375 23.019531 149.40625 C 22.679688 149.238281 22.207031 148.960938 21.675781 148.628906 C 20.59375 147.957031 19.347656 146.992188 18.035156 145.929688 Z M 12.863281 83.453125 C 13.121094 76.800781 12.722656 70.722656 12.242188 66.339844 C 11.761719 61.953125 11.234375 59.246094 11.234375 59.246094 C 11.234375 59.246094 10.757812 70.3125 10.191406 83.515625 C 9.953125 90.117188 9.742188 96.011719 9.59375 100.261719 C 9.46875 104.519531 9.394531 107.125 9.394531 107.125 C 9.394531 107.125 10.117188 104.550781 10.925781 100.296875 C 11.738281 96.046875 12.601562 90.105469 12.863281 83.453125 Z M 55.8125 381.03125 C 55.695312 380.476562 55.582031 379.925781 55.464844 379.375 C 54.851562 379.578125 54.117188 379.824219 53.296875 380.101562 C 53.199219 381.214844 53.085938 382.230469 52.972656 383.121094 C 52.964844 383.210938 52.953125 383.292969 52.941406 383.382812 C 53.050781 383.449219 53.160156 383.519531 53.269531 383.59375 C 53.332031 383.148438 53.601562 381.675781 54.570312 381.175781 C 54.953125 380.976562 55.394531 380.96875 55.8125 381.03125 Z M 51.308594 389.488281 C 51.074219 388.382812 50.261719 387.289062 49.375 386.769531 C 48.53125 386.207031 47.332031 386.136719 46.304688 386.402344 C 45.269531 386.65625 44.464844 387.199219 43.976562 387.652344 C 43.734375 387.882812 43.550781 388.085938 43.441406 388.230469 C 43.324219 388.378906 43.265625 388.457031 43.265625 388.457031 C 43.265625 388.457031 43.25 388.351562 43.226562 388.148438 C 43.203125 387.945312 43.203125 387.640625 43.257812 387.238281 C 43.371094 386.445312 43.792969 385.203125 45.007812 384.070312 C 45.609375 383.511719 46.402344 382.988281 47.40625 382.664062 C 47.707031 382.5625 48.039062 382.492188 48.382812 382.4375 C 48.359375 382.226562 48.339844 382 48.3125 381.75 C 47.511719 382.027344 47.003906 382.203125 47.003906 382.203125 C 47.003906 382.203125 47.203125 381.476562 47.859375 380.542969 C 47.945312 380.417969 48.0625 380.289062 48.167969 380.160156 C 48.113281 379.554688 48.0625 378.882812 48.007812 378.160156 C 47.535156 378.417969 47.085938 378.648438 46.695312 378.839844 C 45.730469 379.316406 45.074219 379.578125 45.074219 379.578125 C 45.074219 379.578125 45.273438 378.832031 45.832031 377.824219 C 46.257812 377.054688 46.917969 376.136719 47.824219 375.335938 C 47.796875 374.804688 47.769531 374.257812 47.742188 373.695312 C 46.914062 374.183594 46.140625 374.609375 45.488281 374.949219 C 45.3125 375.042969 45.148438 375.128906 44.988281 375.207031 C 44.839844 376.6875 44.648438 378.019531 44.464844 379.140625 C 44.101562 381.320312 43.75 382.683594 43.75 382.683594 C 43.75 382.683594 43.65625 382.285156 43.523438 381.589844 C 43.453125 382.378906 43.273438 383.097656 43.035156 383.699219 C 42.488281 385.058594 41.667969 385.878906 41.085938 386.316406 C 40.789062 386.539062 40.542969 386.671875 40.367188 386.753906 C 40.199219 386.832031 40.109375 386.875 40.109375 386.875 C 40.109375 386.875 40.132812 386.789062 40.179688 386.625 C 40.226562 386.464844 40.292969 386.234375 40.34375 385.929688 C 40.457031 385.335938 40.53125 384.472656 40.375 383.496094 C 40.210938 382.523438 39.835938 381.425781 39.164062 380.539062 C 38.84375 380.105469 38.417969 379.703125 38.039062 379.4375 C 37.871094 379.324219 37.789062 379.339844 37.871094 379.382812 C 37.949219 379.417969 38.023438 379.402344 37.957031 379.417969 C 37.824219 379.449219 37.371094 379.707031 37.074219 380.085938 C 36.734375 380.464844 36.449219 380.925781 36.234375 381.441406 C 35.820312 382.484375 35.71875 383.6875 35.859375 384.6875 C 35.992188 385.695312 36.332031 386.523438 36.652344 387.0625 C 36.757812 387.269531 36.863281 387.417969 36.957031 387.542969 C 37.933594 387.265625 38.976562 387.253906 39.996094 387.53125 C 40.683594 387.714844 41.347656 388.039062 41.925781 388.488281 C 42.5 388.933594 42.933594 389.449219 43.269531 390 C 43.9375 391.105469 44.136719 392.277344 44.085938 393.320312 C 44.023438 394.363281 43.691406 395.308594 43.207031 396.050781 C 42.730469 396.769531 42.148438 397.277344 41.589844 397.621094 C 41.121094 397.910156 40.683594 398.078125 40.277344 398.199219 C 43.230469 398.988281 45.8125 400.46875 47.8125 402.164062 C 48.207031 402.503906 48.574219 402.847656 48.929688 403.199219 C 48.890625 402.898438 48.855469 402.59375 48.84375 402.273438 C 48.78125 400.675781 49.070312 399.214844 49.386719 398.179688 C 49.390625 398.167969 49.394531 398.160156 49.398438 398.148438 C 49.371094 398.152344 49.347656 398.160156 49.324219 398.164062 C 47.785156 398.410156 46.582031 398.1875 45.824219 397.941406 C 45.441406 397.8125 45.160156 397.691406 44.976562 397.59375 C 44.792969 397.5 44.699219 397.449219 44.699219 397.449219 C 44.699219 397.449219 44.792969 397.421875 44.972656 397.363281 C 45.152344 397.316406 45.410156 397.230469 45.734375 397.109375 C 46.371094 396.867188 47.257812 396.449219 48.160156 395.761719 C 49.058594 395.074219 49.980469 394.121094 50.609375 392.953125 C 50.917969 392.382812 51.183594 391.726562 51.308594 391.117188 C 51.4375 390.484375 51.433594 390.039062 51.308594 389.488281 Z M 37.125 397.648438 C 37.527344 397.679688 37.917969 397.738281 38.308594 397.800781 C 38.339844 397.765625 38.363281 397.738281 38.398438 397.707031 C 38.75 397.300781 39.226562 396.683594 39.519531 395.941406 C 39.660156 395.574219 39.761719 395.1875 39.777344 394.8125 C 39.789062 394.460938 39.726562 394.109375 39.605469 393.773438 C 39.488281 393.4375 39.300781 393.136719 39.109375 392.964844 C 39.019531 392.875 38.925781 392.808594 38.847656 392.769531 C 38.796875 392.746094 38.71875 392.710938 38.617188 392.679688 C 38.414062 392.617188 38.144531 392.605469 37.976562 392.617188 C 37.800781 392.640625 37.746094 392.570312 37.558594 392.714844 C 37.390625 392.847656 37.21875 393.160156 37.136719 393.523438 C 37.054688 393.898438 37.039062 394.265625 37.101562 394.6875 C 37.226562 395.507812 37.582031 396.292969 37.839844 396.828125 C 38.121094 397.382812 38.277344 397.6875 38.277344 397.6875 C 38.277344 397.6875 37.894531 397.628906 37.25 397.417969 C 36.613281 397.191406 35.679688 396.84375 34.726562 395.902344 C 34.054688 395.21875 33.34375 394.101562 33.257812 392.628906 C 33.199219 392.777344 33.136719 392.917969 33.070312 393.03125 C 32.890625 393.320312 32.730469 393.507812 32.597656 393.613281 C 32.476562 393.71875 32.410156 393.773438 32.410156 393.773438 C 32.410156 393.773438 32.398438 393.699219 32.375 393.5625 C 32.363281 393.429688 32.308594 393.230469 32.234375 393.007812 C 32.070312 392.550781 31.714844 391.953125 31.109375 391.496094 C 30.519531 391.023438 29.695312 390.820312 29.257812 391.046875 C 28.972656 391.132812 28.847656 391.3125 28.945312 391.328125 C 29.007812 391.332031 28.929688 391.433594 28.894531 391.917969 C 28.859375 392.367188 28.902344 393.015625 28.992188 393.625 C 29.074219 394.214844 29.203125 394.691406 29.292969 394.960938 C 29.402344 395.226562 29.355469 395.328125 29.558594 395.5 C 29.757812 395.671875 30.257812 395.765625 30.785156 395.800781 C 31.859375 395.871094 33.070312 395.894531 33.882812 396.222656 C 34.285156 396.371094 34.585938 396.554688 34.761719 396.691406 C 34.9375 396.835938 35.027344 396.910156 35.027344 396.910156 C 35.027344 396.910156 34.90625 396.910156 34.675781 396.90625 C 34.457031 396.90625 34.136719 396.9375 33.785156 397.050781 C 33.214844 397.210938 32.644531 397.59375 31.902344 398.042969 C 33.589844 397.640625 35.359375 397.496094 37.125 397.648438 Z M 35.847656 374.53125 C 35.945312 374.488281 36.039062 374.445312 36.140625 374.40625 C 36.949219 374.105469 37.976562 373.984375 38.957031 374.222656 C 39.957031 374.449219 40.703125 374.96875 41.214844 375.4375 C 42.078125 376.261719 42.609375 377.144531 42.980469 378.050781 C 42.738281 376.023438 42.550781 373.46875 42.609375 370.652344 C 42.652344 368.601562 42.824219 366.664062 43.039062 364.953125 C 41.332031 365.410156 40.03125 365.636719 39.554688 365.710938 C 38.933594 369.371094 38.386719 371.554688 38.386719 371.554688 C 38.386719 371.554688 38.402344 367.761719 38.429688 361.839844 C 38.121094 361.976562 37.941406 362.050781 37.941406 362.050781 C 37.941406 362.050781 38.109375 361.769531 38.429688 361.3125 C 38.441406 359.316406 38.449219 357.09375 38.460938 354.703125 C 38.386719 354.730469 38.308594 354.761719 38.238281 354.785156 C 38.039062 357.597656 37.804688 360.191406 37.550781 362.507812 C 37.128906 366.421875 36.679688 369.566406 36.332031 371.730469 C 36.105469 373.039062 35.945312 373.984375 35.847656 374.53125 Z M 38.769531 313.304688 C 38.792969 314.097656 38.8125 314.902344 38.835938 315.71875 C 39.394531 314.71875 40.242188 313.585938 41.46875 312.6875 C 41.535156 312.636719 41.609375 312.605469 41.675781 312.558594 C 41.675781 312.511719 41.671875 312.46875 41.671875 312.425781 C 41.660156 312.222656 41.652344 312.019531 41.648438 311.816406 C 40.613281 312.433594 39.609375 312.929688 38.769531 313.304688 Z M 37.636719 289.824219 C 37.828125 292.558594 38.152344 297.652344 38.441406 304.289062 C 39.039062 303.316406 39.855469 302.234375 40.941406 301.285156 C 41.046875 301.191406 41.152344 301.105469 41.261719 301.019531 C 41.195312 298.890625 41.140625 296.839844 41.089844 294.894531 C 40.644531 295.253906 40.234375 295.582031 39.894531 295.859375 C 39.253906 296.402344 38.832031 296.761719 38.832031 296.761719 C 38.832031 296.761719 38.640625 296.132812 38.757812 295.15625 C 38.867188 294.191406 39.375 292.871094 40.496094 291.949219 C 40.664062 291.8125 40.835938 291.695312 41.011719 291.589844 C 40.984375 290.335938 40.960938 289.132812 40.9375 288 C 39.585938 289.039062 38.214844 289.613281 37.636719 289.824219 Z M 42.273438 286.773438 C 42.425781 288.070312 42.585938 289.464844 42.742188 290.9375 C 43.179688 290.859375 43.589844 290.847656 43.945312 290.878906 C 44.171875 290.894531 44.375 290.925781 44.554688 290.964844 C 44.457031 288.546875 44.363281 286.132812 44.285156 283.714844 C 44.253906 283.789062 43.632812 285.285156 42.273438 286.773438 Z M 46.730469 323.894531 C 46.632812 322.863281 46.542969 321.828125 46.453125 320.792969 C 45.921875 321.273438 45.296875 321.785156 44.589844 322.289062 C 44.597656 323.136719 44.601562 323.976562 44.605469 324.796875 C 45.328125 324.410156 46.050781 324.117188 46.730469 323.894531 Z M 47.828125 334.382812 C 47.707031 333.335938 47.59375 332.289062 47.480469 331.246094 C 46.894531 331.675781 46.242188 332.128906 45.539062 332.582031 C 45.195312 332.800781 44.855469 333.011719 44.523438 333.214844 C 44.5 334.191406 44.476562 335.132812 44.449219 336.027344 C 45.601562 335.273438 46.78125 334.746094 47.828125 334.382812 Z M 50.339844 352.3125 C 50.089844 350.765625 49.851562 349.214844 49.617188 347.664062 C 49.359375 347.921875 49.042969 348.222656 48.675781 348.554688 C 48.808594 349.300781 49.054688 350.738281 49.316406 352.691406 C 49.6875 352.542969 50.03125 352.417969 50.339844 352.3125 Z M 51.589844 359.632812 C 51.222656 357.566406 50.867188 355.492188 50.527344 353.417969 C 50.234375 353.71875 49.902344 354.054688 49.527344 354.410156 C 49.714844 356.027344 49.894531 357.886719 50.023438 359.910156 C 50.578125 359.789062 51.105469 359.699219 51.589844 359.632812 Z M 51.878906 361.238281 C 51.359375 361.546875 50.78125 361.871094 50.144531 362.203125 C 50.199219 363.476562 50.230469 364.789062 50.230469 366.140625 C 50.230469 367.160156 50.210938 368.15625 50.175781 369.128906 C 50.582031 368.9375 50.96875 368.773438 51.351562 368.632812 C 51.523438 367.253906 51.730469 365.996094 51.941406 364.933594 C 52.050781 364.355469 52.164062 363.835938 52.265625 363.378906 C 52.132812 362.664062 52.007812 361.949219 51.878906 361.238281 Z M 53.488281 377.628906 C 54.097656 377.636719 54.664062 377.71875 55.152344 377.847656 C 54.878906 376.53125 54.605469 375.214844 54.335938 373.894531 C 54.3125 373.769531 54.285156 373.644531 54.261719 373.515625 C 54.105469 373.671875 53.886719 373.882812 53.628906 374.121094 C 53.609375 375.339844 53.558594 376.515625 53.488281 377.628906 Z M 48.871094 382.378906 C 49.515625 382.328125 50.195312 382.359375 50.886719 382.527344 C 51.113281 382.582031 51.339844 382.660156 51.566406 382.738281 C 51.472656 382.132812 51.382812 381.472656 51.300781 380.761719 C 50.460938 381.03125 49.683594 381.28125 49.015625 381.507812 C 48.964844 381.824219 48.914062 382.117188 48.871094 382.378906 Z M 49.589844 377.242188 C 49.519531 377.859375 49.449219 378.445312 49.375 378.992188 C 49.859375 378.628906 50.421875 378.304688 51.054688 378.066406 C 51.019531 377.496094 50.996094 376.90625 50.980469 376.308594 C 50.734375 376.484375 50.484375 376.664062 50.21875 376.839844 C 50.007812 376.984375 49.796875 377.109375 49.589844 377.242188 Z M 51.078125 371.476562 C 50.742188 371.726562 50.390625 371.980469 50.027344 372.230469 C 49.992188 372.835938 49.949219 373.421875 49.902344 373.992188 C 50.265625 373.828125 50.625 373.695312 50.976562 373.585938 C 50.996094 372.867188 51.027344 372.164062 51.078125 371.476562 Z M 53.589844 370.199219 C 53.621094 371.144531 53.636719 372.140625 53.636719 373.160156 C 53.855469 373.15625 54.042969 373.160156 54.191406 373.171875 C 53.984375 372.179688 53.789062 371.191406 53.589844 370.199219 Z M 45.277344 370.625 C 45.261719 371.515625 45.21875 372.382812 45.160156 373.21875 C 45.789062 372.398438 46.613281 371.515625 47.628906 370.710938 C 47.589844 369.289062 47.5625 367.808594 47.5625 366.265625 C 47.5625 365.296875 47.574219 364.34375 47.59375 363.40625 C 47.550781 363.425781 47.507812 363.445312 47.464844 363.464844 C 46.644531 363.800781 45.839844 364.09375 45.066406 364.347656 C 45.222656 366.199219 45.328125 368.34375 45.277344 370.625 Z M 44.804688 361.765625 C 45.304688 361.503906 45.835938 361.25 46.390625 361.019531 C 46.820312 360.84375 47.246094 360.6875 47.667969 360.550781 C 47.726562 358.882812 47.804688 357.316406 47.894531 355.890625 C 47.210938 356.476562 46.460938 357.082031 45.640625 357.679688 C 45.199219 358 44.761719 358.300781 44.328125 358.589844 C 44.414062 359.0625 44.613281 360.199219 44.804688 361.765625 Z M 40.941406 353.664062 C 40.832031 355.441406 40.6875 357.136719 40.519531 358.71875 C 41.457031 357.695312 42.628906 356.574219 44.019531 355.558594 C 45.414062 354.542969 46.832031 353.78125 48.078125 353.214844 C 48.234375 351.15625 48.386719 349.59375 48.476562 348.730469 C 47.464844 349.632812 46.097656 350.730469 44.460938 351.761719 C 43.234375 352.53125 42.019531 353.164062 40.941406 353.664062 Z M 38.316406 353.695312 C 38.363281 353.636719 38.414062 353.578125 38.464844 353.515625 C 38.46875 352.734375 38.472656 351.933594 38.476562 351.121094 C 38.425781 351.996094 38.371094 352.855469 38.316406 353.695312 Z M 41.816406 315.699219 C 40.953125 316.28125 40.144531 316.792969 39.484375 317.203125 C 39.261719 317.339844 39.0625 317.460938 38.878906 317.574219 C 38.921875 319.59375 38.960938 321.679688 38.984375 323.816406 C 39.664062 322.898438 40.695312 321.738281 42.0625 320.789062 C 41.976562 319.136719 41.894531 317.4375 41.816406 315.699219 Z M 44.292969 311.3125 C 44.78125 311.167969 45.253906 311.054688 45.671875 310.996094 C 45.621094 310.289062 45.574219 309.585938 45.527344 308.878906 C 45.152344 309.226562 44.726562 309.601562 44.230469 310.003906 C 44.253906 310.4375 44.273438 310.875 44.292969 311.3125 Z M 45.789062 312.652344 C 45.375 313.007812 44.902344 313.398438 44.394531 313.804688 C 44.464844 315.742188 44.515625 317.640625 44.550781 319.484375 C 45.171875 319.246094 45.761719 319.078125 46.292969 318.953125 C 46.113281 316.851562 45.945312 314.753906 45.789062 312.652344 Z M 42.511719 328.886719 C 41.398438 329.359375 40.449219 329.667969 39.863281 329.839844 C 39.878906 329.949219 39.894531 330.054688 39.910156 330.164062 C 40.105469 331.476562 40.296875 332.960938 40.46875 334.546875 C 40.578125 334.3125 40.710938 334.054688 40.871094 333.777344 C 41.269531 333.070312 41.882812 332.253906 42.667969 331.492188 C 42.617188 330.644531 42.566406 329.777344 42.511719 328.886719 Z M 42.839844 334.183594 C 42.453125 334.398438 42.082031 334.601562 41.753906 334.777344 C 41.265625 335.035156 40.859375 335.242188 40.558594 335.390625 C 40.6875 336.625 40.796875 337.925781 40.890625 339.28125 C 41.449219 338.597656 42.167969 337.828125 43.03125 337.09375 C 42.96875 336.171875 42.90625 335.199219 42.839844 334.183594 Z M 48.503906 339.808594 C 48.363281 338.742188 48.234375 337.675781 48.101562 336.605469 C 47.457031 337.152344 46.71875 337.71875 45.902344 338.261719 C 45.375 338.613281 44.847656 338.929688 44.335938 339.21875 C 44.292969 340.203125 44.253906 341.125 44.210938 341.964844 C 45.78125 340.921875 47.335938 340.234375 48.503906 339.808594 Z M 39.765625 329.195312 C 40.273438 328.46875 41.148438 327.371094 42.363281 326.335938 C 42.316406 325.484375 42.265625 324.613281 42.21875 323.730469 C 40.96875 324.367188 39.824219 324.796875 39.039062 325.054688 C 39.242188 326.089844 39.496094 327.492188 39.765625 329.195312 Z M 41.132812 344.535156 C 41.746094 343.898438 42.445312 343.253906 43.230469 342.652344 C 43.292969 342.605469 43.351562 342.566406 43.414062 342.519531 C 43.355469 341.695312 43.289062 340.792969 43.21875 339.808594 C 42.378906 340.230469 41.609375 340.566406 40.984375 340.8125 C 41.050781 342.019531 41.101562 343.261719 41.132812 344.535156 Z M 48.707031 341.289062 C 47.757812 342.296875 46.464844 343.539062 44.894531 344.738281 C 44.601562 344.964844 44.308594 345.175781 44.019531 345.378906 C 43.914062 347.046875 43.839844 347.972656 43.839844 347.972656 C 43.839844 347.972656 43.769531 347.140625 43.652344 345.636719 C 42.777344 346.238281 41.925781 346.761719 41.15625 347.195312 C 41.15625 347.289062 41.160156 347.382812 41.160156 347.472656 C 41.152344 348.652344 41.121094 349.796875 41.078125 350.925781 C 41.660156 350.445312 42.296875 349.96875 42.992188 349.53125 C 45.546875 347.925781 48.167969 347.238281 49.511719 346.972656 C 49.230469 345.078125 48.960938 343.183594 48.707031 341.289062 Z M 44.597656 327.871094 C 44.59375 328.625 44.585938 329.359375 44.578125 330.078125 C 45.484375 329.574219 46.40625 329.253906 47.242188 329.074219 C 47.234375 329.019531 47.230469 328.964844 47.222656 328.90625 C 47.136719 328.050781 47.054688 327.195312 46.972656 326.339844 C 46.492188 326.699219 45.984375 327.054688 45.421875 327.398438 C 45.148438 327.566406 44.871094 327.722656 44.597656 327.871094 Z M 44.113281 307.761719 C 44.4375 307.679688 44.746094 307.609375 45.03125 307.558594 C 45.171875 307.535156 45.304688 307.511719 45.433594 307.492188 C 45.289062 305.3125 45.15625 303.132812 45.035156 300.953125 C 44.65625 301.382812 44.230469 301.839844 43.761719 302.304688 C 43.890625 304.074219 44.007812 305.894531 44.113281 307.761719 Z M 41.367188 304.367188 C 40.300781 305.175781 39.292969 305.820312 38.523438 306.269531 C 38.585938 307.789062 38.644531 309.367188 38.699219 311.015625 C 39.28125 310.378906 39.976562 309.738281 40.816406 309.191406 C 41.050781 309.039062 41.289062 308.921875 41.527344 308.792969 C 41.46875 307.289062 41.417969 305.816406 41.367188 304.367188 Z M 43.546875 299.539062 C 44.035156 299.292969 44.503906 299.089844 44.929688 298.929688 C 44.808594 296.617188 44.699219 294.304688 44.601562 291.992188 C 44.171875 292.351562 43.617188 292.820312 42.988281 293.34375 C 43.183594 295.296875 43.371094 297.371094 43.546875 299.539062 Z M 39.589844 365.507812 C 40.105469 365.007812 41.460938 363.773438 43.390625 362.574219 C 43.425781 362.359375 43.464844 362.148438 43.5 361.949219 C 43.785156 360.359375 44.058594 359.214844 44.191406 358.679688 C 42.730469 359.640625 41.351562 360.40625 40.257812 360.964844 C 40.09375 362.273438 39.917969 363.492188 39.738281 364.597656 C 39.691406 364.910156 39.640625 365.214844 39.589844 365.507812 Z M 66.003906 443.367188 C 65.90625 445.925781 65.628906 448.875 65.03125 451.972656 C 64.398438 455.261719 63.496094 458.234375 62.59375 460.707031 C 62.816406 460.710938 63.050781 460.710938 63.269531 460.71875 C 63.410156 460.390625 63.542969 460.078125 63.671875 459.777344 C 64.609375 457.554688 65.199219 456.15625 65.199219 456.15625 C 65.199219 456.15625 65.195312 456.542969 65.191406 457.230469 C 65.179688 457.921875 65.117188 458.914062 64.960938 460.128906 C 64.929688 460.351562 64.894531 460.59375 64.855469 460.835938 C 64.972656 460.84375 65.074219 460.859375 65.183594 460.871094 C 66.5 455.410156 66.40625 449.445312 66.003906 443.367188 Z M 45.550781 478.03125 C 45.804688 477.984375 46.058594 477.9375 46.320312 477.890625 C 47.214844 477.730469 48.089844 477.570312 48.933594 477.414062 C 48.996094 477.148438 49.066406 476.863281 49.144531 476.546875 C 49.28125 475.972656 49.453125 475.304688 49.636719 474.59375 C 49.144531 474.582031 48.671875 474.558594 48.226562 474.527344 C 47.847656 475.226562 47.445312 475.832031 47.066406 476.335938 C 46.554688 477.007812 46.09375 477.511719 45.75 477.839844 C 45.675781 477.914062 45.609375 477.972656 45.550781 478.03125 Z M 49.222656 472.269531 C 49.578125 472.199219 49.9375 472.132812 50.3125 472.078125 C 50.433594 471.644531 50.558594 471.210938 50.691406 470.757812 C 50.832031 470.277344 50.976562 469.808594 51.117188 469.347656 C 50.703125 469.367188 50.292969 469.378906 49.894531 469.386719 C 49.855469 469.710938 49.804688 470.035156 49.738281 470.363281 C 49.609375 471.03125 49.429688 471.667969 49.222656 472.269531 Z M 49.976562 466.824219 C 50.628906 466.746094 51.296875 466.675781 51.988281 466.632812 C 52.191406 466.023438 52.382812 465.441406 52.550781 464.9375 C 52.804688 464.183594 53.019531 463.570312 53.171875 463.140625 C 52.925781 463.097656 52.714844 463.0625 52.527344 463.023438 C 52.070312 463.167969 51.65625 463.222656 51.3125 463.242188 C 50.773438 463.253906 50.265625 463.226562 49.765625 463.125 C 49.59375 463.089844 49.433594 463.042969 49.273438 463 C 49.347656 463.234375 49.425781 463.480469 49.496094 463.757812 C 49.726562 464.605469 49.914062 465.660156 49.976562 466.824219 Z M 43.894531 457.925781 C 43.917969 457.769531 43.925781 457.617188 43.933594 457.464844 C 43.851562 457.230469 43.777344 457.015625 43.722656 456.835938 C 43.714844 456.816406 43.714844 456.804688 43.707031 456.789062 C 42.457031 457.03125 41.164062 457.164062 39.84375 457.140625 C 39.675781 457.140625 39.511719 457.125 39.34375 457.117188 C 39.347656 457.128906 39.355469 457.132812 39.359375 457.144531 C 39.753906 457.890625 40.09375 458.941406 40.003906 460.171875 C 40.171875 460.304688 40.335938 460.421875 40.5 460.511719 C 40.832031 460.699219 41.097656 460.734375 41.257812 460.703125 C 41.398438 460.664062 41.402344 460.601562 41.574219 460.585938 C 41.90625 460.515625 42.519531 460.292969 42.933594 459.980469 C 43.417969 459.597656 43.785156 458.761719 43.894531 457.925781 Z M 35.625 459.730469 C 35.730469 459.671875 35.835938 459.585938 35.9375 459.488281 C 35.933594 459.398438 35.933594 459.304688 35.933594 459.21875 C 35.957031 458.164062 36.113281 457.328125 36.257812 456.761719 C 34.367188 456.386719 32.585938 455.757812 30.988281 454.941406 C 31.03125 455.097656 31.097656 455.335938 31.175781 455.644531 C 31.332031 456.21875 31.527344 457.054688 31.855469 457.894531 C 32.171875 458.742188 32.6875 459.492188 33.261719 459.894531 C 33.539062 460.097656 33.804688 460.179688 33.957031 460.164062 C 34.113281 460.136719 34.101562 460.089844 34.265625 460.085938 C 34.566406 460.074219 35.183594 459.964844 35.625 459.730469 Z M 45.84375 456.25 C 46.019531 456.445312 46.191406 456.664062 46.359375 456.914062 C 46.425781 457.011719 46.488281 457.117188 46.554688 457.230469 C 46.570312 457.234375 46.582031 457.242188 46.597656 457.246094 C 47.472656 457.589844 48.472656 457.957031 49.332031 458.0625 C 49.761719 458.117188 50.132812 458.109375 50.441406 458.066406 C 50.464844 458.0625 50.488281 458.058594 50.515625 458.054688 C 50.582031 457.820312 50.640625 457.578125 50.679688 457.316406 C 50.808594 456.5 50.773438 455.570312 50.589844 454.730469 C 50.535156 454.488281 50.46875 454.257812 50.394531 454.035156 C 49.058594 454.957031 47.519531 455.714844 45.84375 456.25 Z M 53.0625 451.773438 C 53.230469 451.789062 53.394531 451.808594 53.570312 451.820312 C 54.507812 451.902344 55.582031 451.875 56.296875 451.605469 C 56.941406 451.363281 57.59375 450.835938 57.761719 450.597656 C 57.851562 450.484375 57.867188 450.539062 57.980469 450.453125 C 58.074219 450.378906 58.164062 450.128906 58.132812 449.785156 C 58.089844 449.085938 57.6875 448.265625 57.085938 447.5625 C 56.859375 447.296875 56.632812 447.050781 56.410156 446.820312 C 56.40625 446.839844 56.398438 446.855469 56.390625 446.871094 C 55.679688 448.453125 54.59375 450.179688 53.0625 451.773438 Z M 64 464.703125 C 64.25 464.023438 64.476562 463.34375 64.6875 462.65625 C 64.632812 462.671875 64.566406 462.6875 64.507812 462.699219 C 64.367188 463.34375 64.203125 464.011719 64 464.703125 Z M 62.167969 463.1875 C 61.976562 463.21875 61.78125 463.242188 61.585938 463.273438 C 61.550781 463.355469 61.511719 463.449219 61.476562 463.53125 C 60.820312 465.070312 60.242188 466.25 59.84375 467.019531 C 60.019531 467.050781 60.191406 467.074219 60.351562 467.101562 C 61.003906 465.726562 61.613281 464.410156 62.167969 463.1875 Z M 55.351562 476.191406 C 55.417969 476.175781 55.492188 476.164062 55.558594 476.148438 C 55.675781 476.125 55.78125 476.105469 55.894531 476.082031 C 56.226562 475.441406 56.59375 474.726562 56.988281 473.949219 C 56.917969 473.964844 56.847656 473.980469 56.777344 473.992188 C 56.316406 474.816406 55.832031 475.550781 55.351562 476.191406 Z M 50.382812 477.039062 C 50.347656 477.085938 50.316406 477.125 50.277344 477.167969 C 51.398438 476.960938 52.449219 476.761719 53.421875 476.570312 C 53.433594 476.546875 53.441406 476.519531 53.453125 476.492188 C 53.710938 475.867188 53.988281 475.160156 54.273438 474.390625 C 53.613281 474.46875 52.921875 474.535156 52.203125 474.570312 C 52.125 474.574219 52.050781 474.574219 51.976562 474.582031 C 51.457031 475.550781 50.894531 476.382812 50.382812 477.039062 Z M 57.570312 472.433594 C 57.625 472.445312 57.679688 472.460938 57.734375 472.472656 C 58.375 471.191406 59.066406 469.792969 59.773438 468.308594 C 59.507812 468.363281 59.222656 468.417969 58.925781 468.46875 C 58.855469 468.765625 58.792969 469.058594 58.710938 469.355469 C 58.402344 470.460938 58.007812 471.484375 57.570312 472.433594 Z M 53.125 471.890625 C 53.816406 471.898438 54.484375 471.941406 55.109375 472.011719 C 55.433594 471.039062 55.753906 470 56.058594 468.917969 C 55.332031 469.011719 54.558594 469.097656 53.753906 469.171875 C 53.648438 469.910156 53.496094 470.675781 53.269531 471.453125 C 53.222656 471.601562 53.171875 471.746094 53.125 471.890625 Z M 59.460938 463.476562 C 59.472656 464.550781 59.40625 465.714844 59.222656 466.929688 C 59.3125 466.941406 59.402344 466.953125 59.488281 466.964844 C 59.632812 466.171875 59.851562 464.96875 60.140625 463.4375 C 59.90625 463.457031 59.6875 463.464844 59.460938 463.476562 Z M 53.933594 466.570312 C 54.894531 466.566406 55.804688 466.601562 56.660156 466.664062 C 56.933594 465.5625 57.167969 464.507812 57.367188 463.515625 C 56.179688 463.492188 55.09375 463.40625 54.210938 463.292969 C 53.992188 463.261719 53.789062 463.234375 53.597656 463.207031 C 53.691406 463.667969 53.800781 464.320312 53.871094 465.128906 C 53.910156 465.566406 53.933594 466.050781 53.933594 466.570312 Z M 59.023438 455.878906 C 58.027344 456.179688 57.03125 456.25 56.082031 456.105469 C 55.625 456.023438 55.214844 455.90625 54.839844 455.769531 C 54.90625 455.917969 54.984375 456.046875 55.042969 456.203125 C 55.332031 456.96875 55.507812 457.855469 55.484375 458.804688 C 55.472656 459.292969 55.417969 459.859375 55.164062 460.550781 C 55.015625 460.96875 54.714844 461.46875 54.304688 461.914062 C 55.28125 461.617188 56.480469 461.3125 57.804688 461.078125 C 57.832031 460.894531 57.859375 460.707031 57.886719 460.535156 C 58.046875 459.449219 58.164062 458.554688 58.21875 457.929688 C 58.289062 457.304688 58.332031 456.957031 58.332031 456.957031 C 58.332031 456.957031 58.449219 457.289062 58.636719 457.902344 C 58.828125 458.511719 59.046875 459.410156 59.21875 460.535156 C 59.238281 460.640625 59.25 460.757812 59.265625 460.867188 C 59.503906 460.839844 59.730469 460.800781 59.972656 460.78125 C 60.203125 460.761719 60.421875 460.757812 60.648438 460.746094 C 61.03125 458.738281 61.472656 456.402344 61.953125 453.878906 C 61.917969 453.917969 61.898438 453.96875 61.863281 454.007812 C 61.03125 455.007812 60.007812 455.554688 59.023438 455.878906 Z M 62.335938 447.957031 C 62.546875 448.316406 62.722656 448.734375 62.859375 449.183594 C 63.992188 443.398438 64.957031 438.476562 65.414062 436.140625 C 65.277344 434.726562 65.125 433.3125 64.964844 431.898438 C 64.960938 431.984375 64.964844 432.070312 64.960938 432.15625 C 64.796875 436.996094 64.035156 441.308594 63.304688 444.371094 C 62.941406 445.894531 62.59375 447.113281 62.335938 447.957031 Z M 6.832031 159.414062 C 7.03125 160.324219 7.261719 161.222656 7.53125 162.105469 C 7.546875 162.046875 7.558594 161.996094 7.582031 161.933594 C 7.710938 161.574219 7.945312 161.179688 8.261719 160.835938 C 8.144531 160.351562 8.042969 159.882812 7.964844 159.441406 C 7.570312 159.519531 7.171875 159.488281 6.832031 159.414062 Z M 16.578125 171.695312 C 16.914062 172.25 17.207031 172.726562 17.441406 173.105469 C 18.105469 172.925781 18.75 172.894531 19.320312 172.933594 C 19.121094 172.554688 18.941406 172.199219 18.792969 171.898438 C 18.417969 171.023438 18.203125 170.523438 18.160156 170.429688 C 17.71875 170.820312 17.195312 171.257812 16.578125 171.695312 Z M 10.1875 168.140625 C 10.453125 167.871094 10.746094 167.609375 11.074219 167.371094 C 10.898438 167.097656 10.726562 166.8125 10.554688 166.519531 C 10.183594 166.660156 9.820312 166.773438 9.464844 166.859375 C 9.695312 167.292969 9.933594 167.722656 10.1875 168.140625 Z M 8.535156 164.894531 C 8.796875 164.65625 9.085938 164.433594 9.402344 164.226562 C 9.222656 163.804688 9.054688 163.386719 8.90625 162.972656 C 8.699219 163.007812 8.492188 163.035156 8.304688 163.054688 C 8.136719 163.070312 7.988281 163.082031 7.851562 163.089844 C 8.0625 163.699219 8.285156 164.304688 8.535156 164.894531 Z M 12.558594 171.519531 C 12.847656 171.175781 13.1875 170.847656 13.570312 170.539062 C 13.253906 170.207031 12.9375 169.847656 12.617188 169.464844 C 12.203125 169.65625 11.796875 169.835938 11.40625 169.980469 C 11.777344 170.5 12.15625 171.015625 12.558594 171.519531 Z M 15.125 174.511719 C 15.550781 174.070312 16.066406 173.652344 16.699219 173.363281 C 16.738281 173.347656 16.777344 173.339844 16.816406 173.324219 C 16.453125 173.074219 16.027344 172.753906 15.550781 172.371094 C 15.015625 172.695312 14.480469 172.976562 13.972656 173.21875 C 14.351562 173.652344 14.734375 174.085938 15.125 174.511719 Z M 20.996094 175.777344 C 20.664062 175.277344 20.378906 174.8125 20.113281 174.359375 C 19.527344 174.820312 18.761719 175.355469 17.832031 175.777344 C 17.453125 175.953125 17.074219 176.089844 16.703125 176.207031 C 16.765625 176.273438 16.824219 176.335938 16.886719 176.402344 C 17.363281 176.902344 17.84375 177.410156 18.324219 177.914062 C 18.539062 177.730469 18.773438 177.558594 19.042969 177.429688 C 20.125 176.921875 21.363281 177.148438 22.082031 177.355469 C 21.695312 176.8125 21.324219 176.28125 20.996094 175.777344 Z M 24.847656 181.015625 C 24.828125 180.988281 24.8125 180.964844 24.792969 180.941406 C 24.25 181.425781 23.503906 181.984375 22.566406 182.386719 C 22.53125 182.398438 22.5 182.40625 22.464844 182.421875 C 22.894531 182.886719 23.3125 183.359375 23.742188 183.832031 C 23.761719 183.820312 23.777344 183.804688 23.796875 183.796875 C 24.824219 183.3125 25.917969 183.296875 26.742188 183.414062 C 26.101562 182.59375 25.460938 181.789062 24.847656 181.015625 Z M 34.898438 201.03125 C 34.820312 200.519531 34.734375 199.980469 34.621094 199.390625 C 34.53125 198.917969 34.421875 198.417969 34.304688 197.902344 C 34.203125 197.992188 34.085938 198.097656 33.957031 198.203125 C 33.4375 198.636719 32.722656 199.160156 31.851562 199.550781 C 31.605469 199.660156 31.363281 199.75 31.117188 199.828125 L 31.160156 200.871094 C 31.246094 200.820312 31.320312 200.761719 31.410156 200.71875 C 32.292969 200.320312 33.261719 200.417969 33.957031 200.632812 C 34.386719 200.761719 34.703125 200.921875 34.898438 201.03125 Z M 33.53125 196.941406 C 33.75 196.996094 33.941406 197.058594 34.109375 197.121094 C 33.84375 196.074219 33.515625 194.972656 33.089844 193.824219 C 33.0625 193.851562 33.039062 193.875 33.011719 193.902344 C 32.5625 194.308594 31.9375 194.792969 31.160156 195.113281 C 31.046875 195.15625 30.9375 195.191406 30.824219 195.226562 C 30.941406 195.816406 31.007812 196.421875 31.03125 197.03125 C 31.917969 196.722656 32.839844 196.769531 33.53125 196.941406 Z M 29.28125 191.109375 C 29.292969 191.132812 29.304688 191.152344 29.316406 191.175781 C 29.585938 191.660156 29.835938 192.171875 30.050781 192.695312 C 30.078125 192.683594 30.097656 192.664062 30.125 192.652344 C 30.980469 192.300781 31.910156 192.417969 32.589844 192.636719 C 32.597656 192.636719 32.601562 192.640625 32.609375 192.644531 C 32.230469 191.757812 31.789062 190.863281 31.285156 189.964844 C 30.796875 190.34375 30.195312 190.734375 29.488281 191.035156 C 29.417969 191.066406 29.347656 191.085938 29.28125 191.109375 Z M 29.378906 186.941406 C 29.289062 187.058594 29.183594 187.195312 29.046875 187.347656 C 28.703125 187.730469 28.21875 188.171875 27.589844 188.445312 C 27.691406 188.585938 27.785156 188.734375 27.886719 188.878906 C 28.058594 188.773438 28.230469 188.671875 28.421875 188.589844 C 29.027344 188.335938 29.652344 188.242188 30.230469 188.222656 C 29.996094 187.855469 29.761719 187.484375 29.503906 187.117188 C 29.464844 187.054688 29.417969 187 29.378906 186.941406 Z M 27.292969 184.660156 C 26.847656 185.042969 26.261719 185.488281 25.558594 185.882812 C 25.695312 186.039062 25.824219 186.203125 25.957031 186.363281 C 26.121094 186.222656 26.300781 186.09375 26.511719 186.007812 C 27.214844 185.710938 28.007812 185.855469 28.597656 186.089844 C 28.691406 186.128906 28.769531 186.167969 28.847656 186.207031 C 28.414062 185.605469 27.980469 185.019531 27.539062 184.441406 C 27.460938 184.515625 27.386719 184.582031 27.292969 184.660156 Z M 21.488281 179.945312 C 22.238281 179.621094 23.023438 179.539062 23.714844 179.558594 C 23.273438 178.984375 22.863281 178.433594 22.464844 177.886719 C 22.121094 178.371094 21.359375 179.289062 20.199219 179.835938 C 20.175781 179.84375 20.152344 179.851562 20.128906 179.863281 C 20.300781 180.050781 20.476562 180.238281 20.648438 180.429688 C 20.90625 180.246094 21.179688 180.078125 21.488281 179.945312 Z M 73.59375 146.839844 C 73.355469 150.613281 73.074219 154.445312 72.34375 158.285156 C 71.628906 162.109375 70.371094 165.976562 68.246094 169.414062 C 63.972656 176.269531 57.488281 180.703125 53.449219 186.597656 C 51.40625 189.519531 49.890625 192.78125 49.695312 196.117188 L 49.417969 207.324219 L 49.125 218.648438 C 49.105469 219.589844 49.0625 220.535156 49.0625 221.476562 L 49.097656 224.296875 L 49.164062 229.9375 C 49.480469 260.121094 49.457031 290.300781 52.023438 320.277344 C 53.320312 335.261719 55.277344 350.152344 58.148438 364.910156 C 60.960938 379.679688 64.320312 394.390625 66.992188 409.289062 C 68.328125 416.734375 69.488281 424.226562 70.316406 431.769531 C 70.722656 435.542969 71.050781 439.328125 71.28125 443.121094 C 71.523438 446.90625 71.65625 450.757812 71.398438 454.648438 C 71.15625 458.519531 70.410156 462.511719 69.035156 466.195312 C 67.714844 469.902344 65.851562 473.449219 63.421875 476.617188 C 60.992188 479.773438 57.988281 482.570312 54.453125 484.570312 C 50.917969 486.554688 46.917969 487.726562 42.890625 488 C 42.386719 488.058594 41.882812 488.070312 41.382812 488.058594 L 39.871094 488.054688 L 37.058594 488.070312 C 36.050781 488.03125 35.046875 487.914062 34.042969 487.832031 C 33.050781 487.640625 32.046875 487.503906 31.066406 487.257812 C 27.140625 486.285156 23.4375 484.460938 20.246094 482.011719 C 17.039062 479.582031 14.378906 476.507812 12.28125 473.128906 C 10.179688 469.738281 8.65625 466.058594 7.640625 462.210938 C 6.667969 458.34375 6.359375 454.40625 6.328125 450.550781 C 6.289062 446.683594 6.570312 442.917969 6.808594 439.132812 C 7.367188 431.578125 8.3125 424.070312 9.480469 416.617188 C 12.097656 399.835938 15.949219 382.804688 19.164062 365.332031 C 20.757812 356.59375 22.152344 347.75 23.21875 338.753906 C 24.289062 329.761719 25.109375 320.644531 25.71875 311.4375 C 26.921875 293.015625 27.246094 274.230469 27.234375 255.242188 C 27.222656 245.753906 27.128906 236.175781 27.023438 226.628906 C 26.972656 224.242188 27.027344 221.871094 26.886719 219.472656 L 26.578125 212.285156 C 26.371094 207.492188 26.164062 202.691406 25.957031 197.890625 L 25.960938 197.511719 C 25.949219 196.917969 25.910156 196.304688 25.703125 195.625 C 25.488281 194.945312 25.214844 194.226562 24.78125 193.484375 C 23.980469 192.003906 22.785156 190.476562 21.480469 188.957031 C 20.167969 187.429688 18.695312 185.898438 17.183594 184.203125 C 15.820312 182.675781 14.359375 181.171875 12.839844 179.570312 C 9.84375 176.386719 6.5625 172.789062 4.367188 168.152344 C 2.203125 163.578125 1.300781 158.773438 0.839844 154.242188 C 0.398438 149.679688 0.265625 145.386719 0.125 140.996094 C 0.00390625 136.625 -0.0234375 132.265625 0.015625 127.917969 C 0.09375 119.222656 0.433594 110.585938 0.828125 102.015625 C 1.640625 84.898438 2.5 67.925781 3.394531 51.136719 C 3.855469 42.742188 4.316406 34.402344 4.773438 26.121094 C 4.890625 24.050781 5.011719 21.980469 5.128906 19.921875 L 5.308594 16.828125 C 5.371094 15.804688 5.417969 14.773438 5.519531 13.621094 C 5.730469 11.351562 6.089844 8.6875 7.617188 5.996094 C 8.371094 4.691406 9.367188 3.5 10.65625 2.492188 C 11.945312 1.496094 13.617188 0.714844 15.457031 0.503906 L 19.777344 0.00390625 L 19.96875 4.28125 L 19.992188 4.804688 L 19.992188 4.867188 L 20.003906 4.929688 L 20.179688 5.519531 C 20.421875 6.300781 20.605469 7.089844 20.800781 7.875 C 21.160156 9.449219 21.449219 11.023438 21.664062 12.597656 C 22.085938 15.734375 22.253906 18.84375 22.273438 21.882812 C 22.300781 27.992188 21.863281 33.773438 21.550781 39.570312 C 20.835938 51.140625 19.925781 62.46875 19.183594 73.566406 C 17.714844 95.746094 16.960938 117.125 19.25 137.34375 C 19.777344 141.789062 19.546875 143.296875 18.96875 142.273438 C 18.679688 141.761719 18.300781 140.617188 17.882812 138.890625 C 17.671875 138.027344 17.457031 137.019531 17.234375 135.878906 C 17.050781 134.726562 16.871094 133.441406 16.699219 132.023438 C 14.089844 110.484375 14.800781 88.949219 15.867188 67.707031 C 16.414062 57.070312 17.078125 46.480469 17.53125 35.910156 C 17.75 30.625 18.015625 25.347656 17.816406 20.105469 C 17.71875 17.488281 17.480469 14.878906 17.058594 12.304688 C 16.847656 11.019531 16.585938 9.742188 16.261719 8.484375 C 16.09375 7.855469 15.9375 7.222656 15.734375 6.605469 C 15.652344 6.316406 15.5 5.9375 15.441406 5.582031 L 15.417969 5.179688 C 14.710938 5.363281 14.050781 5.710938 13.460938 6.175781 C 13.953125 9.933594 14.859375 18.257812 14.6875 27.84375 C 14.460938 40.90625 12.328125 51.238281 12.328125 51.238281 C 12.328125 51.238281 11.785156 40.976562 12.015625 27.964844 C 12.1875 18.742188 12.6875 10.589844 12.964844 6.613281 C 12.390625 7.167969 11.898438 7.824219 11.53125 8.53125 C 10.589844 10.320312 10.304688 12.425781 10.167969 14.523438 C 9.949219 18.792969 9.734375 23.058594 9.515625 27.320312 C 9.097656 35.855469 8.679688 44.375 8.261719 52.890625 C 7.460938 69.914062 6.664062 86.90625 5.863281 103.875 C 5.492188 112.359375 5.191406 120.839844 5.144531 129.3125 C 5.125 133.546875 5.164062 137.78125 5.292969 142.011719 C 5.445312 146.234375 5.589844 150.480469 6.054688 154.644531 C 6.171875 155.652344 6.316406 156.664062 6.488281 157.664062 C 6.691406 157.316406 6.960938 157 7.328125 156.867188 C 7.433594 156.828125 7.546875 156.816406 7.65625 156.808594 C 7.640625 156.488281 7.632812 156.199219 7.632812 155.964844 C 7.640625 155.378906 7.644531 155.054688 7.644531 155.054688 C 7.644531 155.054688 7.992188 155.78125 8.566406 156.972656 C 9.238281 157.25 9.792969 157.742188 9.792969 157.742188 C 9.792969 157.742188 9.636719 158.128906 9.324219 158.53125 C 9.554688 159 9.800781 159.492188 10.074219 160.015625 C 10.621094 160.003906 11.148438 160.140625 11.542969 160.339844 C 12.160156 160.640625 12.515625 161.023438 12.515625 161.023438 C 12.515625 161.023438 12.234375 161.304688 11.816406 161.644531 C 11.628906 161.792969 11.410156 161.953125 11.179688 162.109375 C 11.386719 162.5 11.597656 162.890625 11.816406 163.296875 C 12.300781 163.214844 12.765625 163.175781 13.171875 163.167969 C 14.0625 163.152344 14.699219 163.265625 14.699219 163.265625 C 14.699219 163.265625 14.40625 163.722656 13.832031 164.328125 C 13.570312 164.601562 13.238281 164.90625 12.863281 165.203125 C 13.070312 165.582031 13.277344 165.953125 13.476562 166.316406 C 14.199219 166.164062 14.886719 166.121094 15.453125 166.152344 C 16.4375 166.207031 17.082031 166.425781 17.082031 166.425781 C 17.082031 166.425781 16.664062 166.835938 15.96875 167.382812 C 15.59375 167.679688 15.136719 168.011719 14.621094 168.351562 C 14.855469 168.765625 15.078125 169.152344 15.300781 169.535156 C 16.203125 169.179688 17.097656 169.035156 17.816406 169.007812 C 18.828125 168.964844 19.503906 169.117188 19.503906 169.117188 C 19.503906 169.117188 19.105469 169.570312 18.429688 170.191406 C 18.351562 170.261719 18.257812 170.34375 18.167969 170.421875 C 18.230469 170.5 18.5625 170.925781 19.140625 171.671875 C 19.472656 172.0625 19.871094 172.539062 20.339844 173.082031 C 20.890625 173.207031 21.234375 173.355469 21.234375 173.355469 C 21.234375 173.355469 21.105469 173.492188 20.886719 173.699219 C 21.234375 174.085938 21.601562 174.488281 22.019531 174.917969 C 23.269531 176.234375 24.800781 177.742188 26.484375 179.464844 C 28.15625 181.183594 29.980469 183.144531 31.617188 185.484375 C 33.257812 187.800781 34.453125 190.355469 35.09375 192.742188 C 35.742188 195.136719 35.929688 197.339844 35.9375 199.164062 C 35.945312 200.988281 35.773438 202.445312 35.628906 203.441406 C 35.484375 204.4375 35.359375 204.976562 35.359375 204.976562 C 35.359375 204.976562 35.308594 204.441406 35.214844 203.464844 C 35.152344 202.898438 35.066406 202.171875 34.945312 201.339844 C 34.820312 201.472656 34.628906 201.671875 34.378906 201.898438 C 33.917969 202.308594 33.296875 202.796875 32.527344 203.144531 C 32.105469 203.332031 31.675781 203.460938 31.273438 203.550781 L 31.335938 205.089844 C 31.464844 204.992188 31.605469 204.90625 31.757812 204.839844 C 33.101562 204.273438 34.824219 205.355469 34.824219 205.355469 C 34.824219 205.355469 34.15625 206.722656 32.8125 207.289062 C 32.351562 207.484375 31.871094 207.558594 31.4375 207.570312 L 31.550781 210.328125 C 32.304688 210.363281 33.140625 210.8125 33.140625 210.8125 C 33.140625 210.8125 33.136719 212.0625 32.371094 212.640625 C 32.15625 212.800781 31.90625 212.886719 31.65625 212.933594 L 31.6875 213.660156 C 31.722656 214.59375 31.761719 215.523438 31.800781 216.457031 C 32.089844 216.734375 32.28125 216.984375 32.28125 216.984375 C 32.28125 216.984375 32.128906 217.296875 31.851562 217.617188 C 31.90625 218.957031 31.960938 220.296875 32 221.640625 L 32.070312 229.636719 C 32.164062 240.28125 32.230469 250.9375 32.167969 261.609375 C 32.042969 282.949219 31.410156 304.371094 29.417969 325.808594 C 28.425781 336.519531 27.070312 347.234375 25.308594 357.90625 C 23.542969 368.578125 21.363281 379.164062 19.273438 389.761719 C 17.167969 400.351562 15.152344 410.957031 13.640625 421.628906 C 12.917969 426.964844 12.257812 432.3125 11.855469 437.679688 C 11.476562 443.039062 11.070312 448.464844 11.386719 453.632812 C 11.617188 457.191406 12.15625 460.625 13.367188 463.855469 C 14.523438 467.125 16.152344 470.210938 18.230469 472.925781 C 22.398438 478.320312 28.472656 482.117188 35.117188 482.8125 L 36.359375 482.917969 C 36.777344 482.964844 37.191406 482.984375 37.609375 482.964844 L 40.441406 482.941406 C 41.277344 482.945312 42.113281 482.96875 42.933594 482.851562 L 44.167969 482.738281 L 45.382812 482.503906 C 48.609375 481.871094 51.667969 480.519531 54.292969 478.5 C 54.496094 478.34375 54.679688 478.167969 54.878906 478.007812 C 54.890625 477.984375 54.902344 477.964844 54.914062 477.941406 C 54.371094 478.191406 53.792969 478.445312 53.164062 478.691406 C 53.039062 478.8125 52.921875 478.921875 52.816406 479.015625 C 52.351562 479.433594 52.085938 479.644531 52.085938 479.644531 C 52.085938 479.644531 52.191406 479.40625 52.375 478.992188 C 50.828125 479.558594 49.074219 480.074219 47.164062 480.441406 C 47.804688 480.691406 48.167969 480.832031 48.167969 480.832031 C 48.167969 480.832031 47.773438 480.832031 47.058594 480.832031 C 46.597656 480.832031 45.992188 480.804688 45.285156 480.746094 C 42.105469 481.167969 39.167969 481.085938 36.992188 480.832031 C 35.722656 480.691406 34.699219 480.515625 33.996094 480.359375 C 33.296875 480.207031 32.90625 480.117188 32.90625 480.117188 C 32.90625 480.117188 33.0625 480.09375 33.328125 480.050781 C 33.308594 480.046875 33.292969 480.042969 33.273438 480.039062 C 32.726562 479.882812 31.945312 479.617188 30.992188 479.226562 C 29.101562 478.445312 26.539062 477.074219 24.121094 474.945312 C 21.703125 472.816406 19.957031 470.398438 18.902344 468.546875 C 18.371094 467.617188 17.992188 466.839844 17.757812 466.289062 C 17.523438 465.738281 17.394531 465.429688 17.394531 465.429688 C 17.394531 465.429688 17.648438 465.65625 18.097656 466.050781 C 18.542969 466.449219 19.175781 467.019531 19.949219 467.71875 C 21.480469 469.066406 23.558594 470.894531 25.828125 472.890625 C 28.082031 474.898438 30.121094 476.714844 31.617188 478.046875 C 32.386719 478.722656 33.011719 479.273438 33.445312 479.65625 C 33.585938 479.785156 33.699219 479.886719 33.796875 479.976562 C 33.871094 479.964844 33.929688 479.957031 34.011719 479.941406 C 34.71875 479.847656 35.734375 479.6875 36.964844 479.5 C 37.339844 479.441406 37.742188 479.378906 38.160156 479.3125 C 36.886719 478.894531 35.558594 478.378906 34.21875 477.722656 C 32.394531 476.828125 30.742188 475.792969 29.308594 474.75 C 27.894531 473.675781 26.675781 472.632812 25.738281 471.664062 C 24.785156 470.710938 24.066406 469.890625 23.601562 469.296875 C 23.140625 468.699219 22.882812 468.371094 22.882812 468.371094 C 22.882812 468.371094 23.238281 468.589844 23.882812 468.984375 C 24.507812 469.386719 25.429688 469.941406 26.550781 470.605469 C 28.792969 471.945312 31.878906 473.605469 35.296875 475.285156 C 37.925781 476.570312 40.402344 477.691406 42.488281 478.578125 C 43.382812 478.421875 44.316406 478.253906 45.273438 478.082031 C 45.363281 477.703125 45.558594 476.921875 45.824219 475.847656 C 45.933594 475.390625 46.054688 474.875 46.175781 474.328125 C 44.871094 474.164062 44.058594 473.988281 44.058594 473.988281 C 44.058594 473.988281 44.984375 473.507812 46.472656 473.007812 C 46.679688 472.046875 46.894531 471.011719 47.109375 469.914062 C 47.144531 469.730469 47.175781 469.5625 47.210938 469.386719 C 43.722656 469.3125 41.277344 468.980469 41.277344 468.980469 C 41.277344 468.980469 43.878906 467.914062 47.617188 467.199219 C 47.84375 465.933594 48.03125 464.765625 48.164062 463.804688 C 48.222656 463.378906 48.273438 462.992188 48.316406 462.65625 C 47.917969 462.476562 47.554688 462.265625 47.230469 462.042969 C 47.167969 462 47.113281 461.953125 47.054688 461.90625 C 46.457031 463.648438 45.039062 465.171875 42.914062 465.742188 C 41.75 466.054688 40.335938 465.957031 39.230469 465.386719 C 38.617188 465.089844 38.117188 464.6875 37.707031 464.257812 C 36.90625 464.84375 35.9375 465.257812 34.820312 465.394531 C 34.210938 465.453125 33.578125 465.414062 32.960938 465.265625 C 32.351562 465.105469 31.734375 464.835938 31.253906 464.496094 C 30.269531 463.808594 29.652344 462.890625 29.304688 462.039062 C 29.140625 461.632812 29.027344 461.230469 28.957031 460.839844 C 28.828125 460.972656 28.714844 461.101562 28.570312 461.230469 C 28.011719 461.71875 27.332031 462.191406 26.417969 462.542969 C 25.535156 462.882812 24.265625 463.085938 22.941406 462.671875 C 22.285156 462.457031 21.714844 462.132812 21.1875 461.679688 C 20.671875 461.230469 20.292969 460.6875 20.03125 460.148438 C 19.605469 459.265625 19.488281 458.414062 19.515625 457.632812 C 18.734375 457.703125 17.949219 457.636719 17.199219 457.480469 C 16.8125 457.398438 16.480469 457.3125 16.0625 457.167969 C 15.640625 457.007812 15.09375 456.777344 14.503906 456.289062 C 13.898438 455.796875 13.429688 455.0625 13.214844 454.433594 C 12.984375 453.792969 12.925781 453.203125 12.933594 452.671875 C 12.960938 451.617188 13.28125 450.640625 13.746094 449.882812 C 14.691406 448.351562 16.054688 447.628906 17.191406 447.324219 C 18.347656 447.023438 19.320312 447.179688 19.914062 447.382812 C 20.214844 447.480469 20.429688 447.59375 20.570312 447.679688 C 20.710938 447.761719 20.78125 447.804688 20.78125 447.804688 C 20.78125 447.804688 20.695312 447.839844 20.535156 447.90625 C 20.375 447.96875 20.152344 448.0625 19.902344 448.21875 C 19.398438 448.511719 18.808594 449.03125 18.40625 449.695312 C 18.003906 450.359375 17.765625 451.171875 17.828125 451.785156 C 17.839844 451.949219 17.878906 452.085938 17.917969 452.207031 C 17.933594 452.21875 17.941406 452.230469 17.980469 452.253906 C 18.113281 452.335938 18.367188 452.460938 18.550781 452.558594 C 18.925781 452.757812 19.285156 452.949219 19.628906 453.132812 C 19.964844 453.304688 20.277344 453.453125 20.613281 453.554688 C 20.816406 453.632812 21.050781 453.667969 21.289062 453.679688 C 21.425781 453.546875 21.566406 453.417969 21.699219 453.308594 C 22.558594 452.613281 23.296875 452.292969 23.796875 452.074219 C 24.304688 451.863281 24.59375 451.773438 24.59375 451.773438 C 24.59375 451.773438 24.527344 452.109375 24.375 452.675781 C 24.34375 452.789062 24.308594 452.917969 24.273438 453.050781 C 24.273438 453.054688 24.273438 453.054688 24.273438 453.0625 C 24.308594 453.558594 24.207031 454.273438 23.820312 455.011719 C 23.761719 455.414062 23.730469 455.816406 23.753906 456.1875 C 23.785156 456.59375 23.90625 456.886719 24.046875 457.183594 C 24.191406 457.46875 24.390625 457.675781 24.511719 457.703125 C 24.515625 457.707031 24.519531 457.703125 24.523438 457.703125 L 24.527344 457.699219 C 24.535156 457.664062 24.550781 457.597656 24.546875 457.59375 C 24.554688 457.59375 24.5625 457.609375 24.578125 457.617188 L 24.570312 457.628906 C 24.566406 457.632812 24.5625 457.640625 24.558594 457.644531 L 24.578125 457.617188 C 24.582031 457.617188 24.582031 457.621094 24.585938 457.621094 C 24.628906 457.652344 24.738281 457.664062 24.875 457.675781 C 25.164062 457.683594 25.582031 457.628906 26.011719 457.527344 C 26.882812 457.324219 27.824219 456.980469 28.570312 456.648438 C 29.324219 456.320312 29.929688 455.878906 30.261719 455.363281 C 30.417969 455.121094 30.515625 454.890625 30.566406 454.71875 C 30.03125 454.429688 29.507812 454.125 29.019531 453.796875 C 26.097656 451.828125 24.066406 449.386719 22.734375 447.191406 C 21.402344 444.984375 20.710938 443.027344 20.339844 441.667969 C 20.160156 440.980469 20.039062 440.449219 19.976562 440.082031 C 19.910156 439.71875 19.875 439.527344 19.875 439.527344 C 19.875 439.527344 19.984375 439.6875 20.191406 440 C 20.386719 440.308594 20.699219 440.757812 21.097656 441.3125 C 21.898438 442.425781 23.136719 443.949219 24.8125 445.519531 C 26.5 447.085938 28.660156 448.679688 31.203125 449.851562 C 33.722656 451.039062 36.667969 451.730469 39.75 451.808594 C 42.828125 451.875 45.730469 451.277344 48.144531 450.125 C 50.582031 448.976562 52.578125 447.300781 54.03125 445.628906 C 55.472656 443.9375 56.398438 442.257812 56.914062 441.019531 C 57.167969 440.402344 57.359375 439.898438 57.460938 439.550781 C 57.578125 439.203125 57.640625 439.019531 57.640625 439.019531 C 57.640625 439.019531 57.65625 439.207031 57.691406 439.558594 C 57.734375 439.917969 57.753906 440.441406 57.738281 441.132812 C 57.714844 442.117188 57.554688 443.453125 57.085938 444.992188 C 57.394531 445.007812 57.726562 445.035156 58.101562 445.097656 C 58.339844 445.144531 58.59375 445.203125 58.855469 445.28125 C 58.695312 442.160156 58.570312 437.929688 58.695312 433.207031 C 58.765625 430.449219 58.914062 427.832031 59.089844 425.476562 C 58.828125 422.710938 58.550781 419.632812 58.289062 416.355469 C 57.804688 410.242188 57.464844 404.613281 57.230469 400.507812 C 56.996094 396.402344 56.894531 393.820312 56.894531 393.820312 C 56.894531 393.820312 57.652344 396.273438 58.546875 400.273438 C 59.441406 404.273438 60.445312 409.832031 60.9375 415.988281 C 61.222656 419.566406 61.296875 422.933594 61.265625 425.925781 C 61.378906 428.144531 61.429688 430.585938 61.363281 433.152344 C 61.234375 438.179688 60.675781 442.664062 60.164062 445.84375 C 60.777344 446.195312 61.378906 446.671875 61.910156 447.335938 C 61.910156 447.339844 61.914062 447.34375 61.917969 447.347656 C 61.929688 446.542969 61.945312 445.519531 61.96875 444.300781 C 62.03125 441.214844 62.128906 436.957031 62.289062 432.191406 C 62.480469 427.421875 62.65625 423.042969 62.78125 419.84375 C 62.832031 418.835938 62.871094 417.964844 62.90625 417.214844 C 61.042969 405.882812 58.648438 394.585938 56.269531 383.226562 C 56.128906 383.339844 55.980469 383.449219 55.808594 383.539062 C 54.996094 383.957031 54.0625 383.878906 53.578125 383.800781 C 54.925781 384.808594 56.003906 386.308594 56.472656 388.140625 C 56.867188 389.601562 56.699219 391.269531 56.226562 392.488281 C 55.761719 393.75 55.066406 394.730469 54.28125 395.550781 C 53.121094 396.75 51.800781 397.460938 50.582031 397.855469 C 50.625 397.976562 50.671875 398.105469 50.71875 398.242188 C 51.070312 399.277344 51.449219 400.644531 51.507812 402.132812 C 51.558594 403.476562 51.335938 404.71875 51.089844 405.714844 C 52.015625 406.996094 52.722656 408.28125 53.230469 409.484375 C 54.238281 411.839844 54.558594 413.855469 54.652344 415.21875 C 54.714844 415.898438 54.691406 416.429688 54.679688 416.785156 C 54.667969 417.136719 54.660156 417.320312 54.660156 417.320312 C 54.660156 417.320312 54.589844 417.15625 54.460938 416.839844 C 54.328125 416.527344 54.152344 416.0625 53.863281 415.492188 C 53.320312 414.339844 52.425781 412.726562 51.03125 410.996094 C 50.339844 410.128906 49.523438 409.234375 48.566406 408.378906 C 47.613281 407.515625 46.542969 406.664062 45.328125 405.925781 C 42.914062 404.4375 40 403.265625 36.84375 402.976562 C 33.675781 402.675781 30.773438 403.289062 28.523438 404.773438 C 27.359375 405.511719 26.285156 406.445312 25.28125 407.398438 C 24.28125 408.363281 23.332031 409.316406 22.546875 410.175781 C 20.957031 411.898438 19.976562 413.464844 19.519531 414.648438 C 19.28125 415.234375 19.160156 415.71875 19.085938 416.050781 C 19.019531 416.386719 18.988281 416.5625 18.988281 416.5625 C 18.988281 416.5625 18.941406 416.386719 18.855469 416.046875 C 18.785156 415.703125 18.699219 415.179688 18.703125 414.484375 C 18.679688 413.09375 19.15625 410.984375 20.335938 408.679688 C 20.925781 407.519531 21.632812 406.332031 22.464844 405.082031 C 23.3125 403.832031 24.324219 402.5 25.703125 401.261719 C 26.609375 400.429688 27.726562 399.691406 28.949219 399.097656 C 28.449219 399.113281 27.859375 399.015625 27.300781 398.789062 C 26.730469 398.554688 26.203125 398.183594 25.773438 397.761719 C 24.910156 396.90625 24.398438 395.898438 24.054688 394.925781 C 23.730469 393.957031 23.507812 392.933594 23.5625 391.675781 C 23.597656 391.050781 23.714844 390.382812 23.980469 389.691406 C 24.246094 389.011719 24.6875 388.308594 25.285156 387.765625 C 25.871094 387.222656 26.609375 386.847656 27.273438 386.675781 C 27.949219 386.496094 28.589844 386.476562 29.175781 386.546875 C 30.371094 386.695312 31.40625 387.25 32.058594 387.910156 C 32.726562 388.574219 33.109375 389.3125 33.316406 389.992188 C 33.398438 390.273438 33.445312 390.542969 33.472656 390.800781 C 33.800781 389.691406 34.75 388.507812 35.960938 387.925781 C 36.09375 387.859375 36.238281 387.820312 36.378906 387.761719 C 36.285156 387.738281 36.199219 387.722656 36.09375 387.683594 C 35.382812 387.457031 34.332031 386.898438 33.402344 385.722656 C 32.480469 384.570312 31.699219 382.785156 31.816406 380.589844 C 31.886719 379.5 32.199219 378.3125 32.859375 377.207031 C 33.464844 376.179688 34.367188 375.195312 35.777344 374.5625 C 35.804688 374.019531 35.847656 373.066406 35.910156 371.742188 C 36.007812 369.589844 36.121094 366.46875 36.210938 362.589844 C 36.40625 354.839844 36.34375 344.074219 36.351562 331.984375 C 36.371094 325.679688 36.453125 319.648438 36.570312 314.171875 L 36.566406 314.175781 C 36.566406 314.175781 36.566406 314.164062 36.570312 314.164062 C 36.804688 302.867188 37.171875 293.949219 37.355469 289.921875 C 37.355469 289.925781 37.335938 289.929688 37.335938 289.929688 C 37.335938 289.929688 37.34375 289.882812 37.363281 289.804688 C 37.425781 288.367188 37.46875 287.582031 37.46875 287.582031 C 37.46875 287.582031 37.511719 288.085938 37.578125 289.023438 C 37.878906 288.09375 38.515625 286.636719 39.726562 285.550781 C 40.089844 285.222656 40.484375 284.953125 40.878906 284.730469 C 40.789062 279.199219 40.777344 275.8125 40.777344 275.8125 C 40.777344 275.8125 41.300781 278.980469 41.964844 284.230469 C 43.199219 283.765625 44.234375 283.703125 44.285156 283.699219 C 44.28125 283.644531 44.28125 283.589844 44.277344 283.539062 C 43.761719 268.417969 43.617188 253.328125 43.4375 238.277344 L 43.292969 226.972656 L 43.214844 221.28125 L 43.339844 215.652344 L 43.738281 198.765625 L 43.769531 197.339844 C 43.78125 196.777344 43.746094 196.273438 43.808594 195.648438 C 43.871094 194.445312 44.085938 193.273438 44.355469 192.136719 C 46.554688 183.757812 52.558594 178.277344 57.167969 173.511719 C 59.523438 171.097656 61.632812 168.75 63.15625 166.273438 C 64.65625 163.84375 65.628906 161.046875 66.273438 158 C 66.917969 154.957031 67.226562 151.703125 67.460938 148.328125 C 67.695312 144.9375 67.863281 141.539062 67.988281 138.132812 C 68.226562 131.320312 68.265625 124.480469 68.191406 117.621094 C 68.023438 103.910156 67.546875 90.074219 67.230469 76.28125 C 66.898438 62.484375 66.566406 48.695312 66.234375 34.925781 C 66.082031 28.085938 65.925781 21.246094 65.769531 14.414062 C 65.734375 13.652344 65.671875 12.964844 65.574219 12.347656 L 65.441406 11.660156 C 65.433594 11.625 65.414062 11.578125 65.375 11.550781 C 65.339844 11.519531 65.273438 11.519531 65.238281 11.554688 C 65.222656 11.574219 65.214844 11.601562 65.207031 11.625 L 65.097656 13.273438 L 64.851562 17 L 64.554688 22.105469 C 64.371094 25.515625 64.191406 28.925781 64.007812 32.332031 C 63.679688 39.148438 63.390625 45.960938 63.160156 52.761719 C 62.703125 66.371094 62.441406 79.957031 62.390625 93.5 C 62.347656 100.269531 62.394531 107.03125 62.445312 113.78125 C 62.492188 117.160156 62.542969 120.53125 62.589844 123.902344 C 62.625 127.265625 62.773438 130.613281 62.667969 134.171875 C 62.570312 137.191406 62.1875 139.804688 61.558594 141.902344 C 60.945312 144.003906 60.128906 145.558594 59.425781 146.601562 C 58.699219 147.648438 58.09375 148.191406 57.746094 148.390625 C 57.394531 148.585938 57.277344 148.421875 57.355469 147.96875 C 57.378906 147.847656 57.421875 147.695312 57.472656 147.527344 C 56.949219 147.59375 56.230469 147.496094 55.433594 147.046875 C 52.441406 145.308594 50.972656 142.121094 50.515625 139.203125 C 50.035156 136.230469 50.191406 133.421875 50.097656 130.621094 C 49.984375 125.007812 49.875 119.421875 49.761719 113.855469 C 49.519531 102.726562 49.679688 91.664062 49.925781 80.617188 C 50.414062 58.542969 51.246094 36.410156 49.058594 14.074219 C 48.894531 12.136719 48.515625 10.253906 47.933594 8.597656 C 47.902344 8.503906 47.867188 8.414062 47.832031 8.320312 C 47.640625 9.441406 47.535156 10.652344 47.476562 11.886719 C 47.414062 13.222656 47.414062 14.582031 47.429688 15.996094 L 47.464844 20.296875 C 47.5 26.027344 47.539062 31.765625 47.574219 37.503906 C 47.636719 48.980469 47.695312 60.457031 47.757812 71.910156 C 47.839844 84.417969 47.972656 96.984375 47.773438 109.480469 C 47.671875 115.726562 47.484375 121.957031 47.167969 128.152344 C 47.082031 129.703125 46.996094 131.25 46.90625 132.792969 L 46.757812 135.109375 C 46.703125 135.910156 46.636719 136.765625 46.515625 137.671875 C 46.261719 139.464844 45.785156 141.609375 44.320312 143.570312 C 42.769531 145.703125 40.074219 146.773438 37.617188 146.507812 C 36.527344 146.398438 35.570312 145.984375 34.902344 145.449219 C 34.226562 144.925781 33.871094 144.289062 33.722656 143.835938 C 33.476562 142.878906 33.820312 142.589844 34.257812 142.648438 C 34.707031 142.699219 35.3125 143.078125 36.101562 143.226562 C 36.871094 143.386719 37.792969 143.371094 38.820312 143.105469 C 39.449219 142.945312 40.035156 142.628906 40.507812 142.199219 C 40.976562 141.765625 41.316406 141.214844 41.578125 140.59375 C 42.09375 139.363281 42.21875 137.957031 42.238281 136.53125 C 42.191406 133.589844 42.144531 130.644531 42.09375 127.695312 C 42.027344 121.785156 41.957031 115.863281 41.886719 109.9375 C 41.796875 98.085938 41.796875 86.210938 41.835938 74.324219 C 41.898438 62.441406 41.960938 50.550781 42.023438 38.667969 C 42.050781 32.726562 42.082031 26.789062 42.113281 20.855469 C 42.148438 17.882812 42.082031 14.953125 42.226562 11.863281 C 42.3125 10.328125 42.449219 8.777344 42.746094 7.1875 C 43.074219 5.605469 43.460938 3.957031 44.613281 2.269531 L 45.210938 1.394531 L 46.339844 1.464844 L 46.984375 1.507812 C 47.609375 1.5625 48.238281 1.628906 48.820312 1.859375 C 49.113281 1.972656 49.394531 2.105469 49.644531 2.300781 C 49.910156 2.464844 50.152344 2.667969 50.371094 2.890625 C 51.261719 3.722656 51.949219 5.023438 52.304688 5.886719 C 53.078125 7.773438 53.480469 9.609375 53.765625 11.472656 C 54.046875 13.40625 54.085938 15.089844 54.246094 16.875 C 54.394531 18.636719 54.476562 20.398438 54.574219 22.164062 C 55.117188 31.976562 55.347656 42.589844 55.363281 53.523438 C 55.363281 64.457031 55.15625 75.695312 54.941406 86.757812 C 54.765625 97.789062 54.59375 108.726562 54.429688 119.152344 C 54.3125 124.378906 54.105469 129.535156 53.726562 134.460938 C 53.546875 136.859375 53.429688 139.015625 53.894531 141.007812 C 54.347656 142.929688 55.46875 144.871094 57.355469 145.917969 C 57.5625 146.027344 57.742188 146.132812 57.886719 146.242188 C 58.246094 145.136719 58.699219 143.632812 59.011719 141.726562 C 59.277344 140.101562 59.433594 138.199219 59.464844 136.050781 C 59.484375 133.902344 59.382812 131.511719 59.253906 128.894531 C 57.78125 99.003906 57.503906 68.980469 58.429688 38.941406 C 58.667969 31.421875 58.96875 23.945312 59.351562 16.390625 L 59.710938 10.34375 L 59.800781 8.828125 C 59.890625 8.296875 59.984375 7.703125 60.136719 7.175781 C 60.457031 6.109375 61 5.132812 61.84375 4.429688 C 62.6875 3.726562 63.863281 3.441406 64.945312 3.617188 C 66.039062 3.777344 67.039062 4.324219 67.902344 5.03125 C 68.347656 5.371094 68.710938 5.824219 69.09375 6.246094 C 69.414062 6.730469 69.785156 7.175781 70.027344 7.726562 C 70.304688 8.25 70.554688 8.789062 70.734375 9.367188 C 70.921875 9.945312 71.066406 10.539062 71.160156 11.015625 C 71.546875 13.027344 71.554688 14.980469 71.613281 16.84375 L 71.777344 22.480469 L 72.09375 33.757812 C 72.300781 41.277344 72.511719 48.800781 72.71875 56.320312 C 73.128906 71.371094 73.535156 86.425781 73.941406 101.488281 C 74.324219 116.558594 74.578125 131.695312 73.59375 146.839844 Z M 25.28125 141.269531 C 24.828125 141.933594 24.160156 142.4375 23.390625 142.746094 C 22.421875 143.121094 21.542969 143.269531 20.765625 143.246094 C 19.984375 143.238281 19.332031 143.015625 18.882812 143.070312 C 18.449219 143.113281 18.183594 143.464844 18.589844 144.316406 C 18.808594 144.71875 19.242188 145.242188 19.953125 145.632812 C 20.652344 146.03125 21.609375 146.296875 22.664062 146.265625 C 23.746094 146.230469 24.761719 145.972656 25.714844 145.527344 C 26.664062 145.082031 27.59375 144.390625 28.296875 143.527344 C 29.730469 141.765625 30.3125 139.785156 30.617188 138.085938 C 30.917969 136.339844 30.976562 134.867188 31.09375 133.46875 C 31.300781 130.617188 31.484375 127.757812 31.621094 124.890625 C 31.90625 119.15625 32.054688 113.394531 32.113281 107.617188 C 32.238281 96.0625 31.992188 84.449219 31.714844 72.894531 C 31.433594 61.183594 31.105469 49.449219 30.660156 37.722656 C 30.441406 31.859375 30.195312 25.996094 29.914062 20.140625 L 29.8125 17.945312 C 29.777344 17.246094 29.757812 16.570312 29.746094 15.894531 C 29.734375 14.550781 29.792969 13.242188 29.964844 12.019531 C 30.019531 11.722656 30.050781 11.40625 30.117188 11.121094 L 30.273438 10.402344 C 30.335938 10.148438 30.386719 9.964844 30.476562 9.757812 C 30.644531 9.351562 30.910156 8.949219 31.300781 8.664062 C 31.511719 8.480469 31.78125 8.421875 32.03125 8.285156 C 32.296875 8.117188 32.582031 8.308594 32.726562 8.507812 C 32.890625 8.714844 32.996094 8.960938 33.050781 9.226562 C 33.097656 9.488281 33.109375 9.765625 33.140625 10.054688 C 33.683594 20.71875 34.214844 31.238281 34.746094 41.679688 C 35.269531 52.511719 35.722656 63.273438 35.960938 74.039062 C 36.429688 95.5625 36.046875 117.152344 33.542969 139.195312 C 33.265625 141.6875 34.675781 142.507812 35.230469 140.550781 C 40.234375 123.203125 41.539062 101.648438 41.203125 79.859375 C 40.886719 58.050781 39.027344 35.96875 38.355469 16.957031 L 38.199219 12.480469 L 38.121094 10.058594 C 38.078125 8.972656 38.09375 7.847656 37.980469 6.8125 C 37.839844 5.785156 37.675781 4.910156 37.316406 4.066406 C 36.960938 3.234375 36.480469 2.46875 35.816406 1.875 C 35.484375 1.578125 35.097656 1.316406 34.652344 1.167969 C 34.207031 1.019531 33.722656 1.011719 33.351562 1.132812 L 31.972656 1.441406 L 31.628906 1.523438 L 31.308594 1.695312 L 30.671875 2.039062 C 29.832031 2.257812 29.085938 2.9375 28.390625 3.546875 C 27.71875 4.21875 27.085938 4.964844 26.601562 5.847656 L 26.226562 6.503906 L 25.921875 7.214844 C 25.703125 7.679688 25.550781 8.164062 25.402344 8.648438 C 25.222656 9.171875 25.160156 9.519531 25.0625 9.921875 C 24.964844 10.316406 24.914062 10.703125 24.839844 11.097656 C 24.332031 14.203125 24.488281 17.3125 24.59375 20.15625 C 24.769531 25.949219 24.949219 31.753906 25.125 37.554688 C 25.429688 49.164062 25.636719 60.785156 25.792969 72.402344 C 25.921875 84.023438 26.050781 95.632812 26.179688 107.222656 C 26.238281 113.019531 26.296875 118.808594 26.355469 124.589844 C 26.390625 127.480469 26.425781 130.371094 26.457031 133.257812 C 26.46875 134.707031 26.53125 136.144531 26.421875 137.511719 C 26.316406 138.875 26.003906 140.203125 25.28125 141.269531 Z M 24.582031 457.613281 L 24.582031 457.609375 L 24.578125 457.617188 Z M 24.792969 442.726562 C 22.753906 438.984375 22.089844 434.945312 21.992188 431.238281 C 21.949219 429.375 22.03125 427.570312 22.21875 425.816406 C 22.398438 424.050781 22.695312 422.308594 23.144531 420.613281 C 24.035156 417.242188 25.636719 414.042969 27.984375 411.710938 C 30.277344 409.390625 33.15625 407.914062 36.003906 407.554688 C 37.410156 407.363281 38.835938 407.5 40.027344 407.789062 C 41.230469 408.070312 42.285156 408.488281 43.234375 408.949219 C 45.140625 409.851562 46.59375 411 47.621094 412.117188 C 48.65625 413.238281 49.191406 414.40625 49.363281 415.234375 C 49.488281 415.648438 49.464844 415.957031 49.484375 416.164062 C 49.496094 416.367188 49.503906 416.472656 49.503906 416.472656 C 49.476562 416.476562 49.460938 416.058594 49.148438 415.320312 C 48.851562 414.570312 48.183594 413.601562 47.082031 412.753906 C 45.984375 411.90625 44.507812 411.097656 42.695312 410.550781 C 40.894531 410.003906 38.726562 409.625 36.621094 410.15625 C 34.496094 410.6875 32.421875 412.0625 30.8125 414.019531 C 29.203125 415.964844 28.152344 418.515625 27.59375 421.382812 C 27.042969 424.226562 26.910156 427.480469 27.082031 430.699219 C 27.269531 433.90625 27.886719 437.132812 29.320312 439.882812 C 30.046875 441.28125 30.90625 442.421875 31.972656 443.398438 C 33.054688 444.355469 34.289062 445.136719 35.578125 445.632812 C 36.867188 446.113281 38.199219 446.355469 39.445312 446.257812 C 40.679688 446.152344 41.84375 445.765625 42.894531 445.082031 C 44.988281 443.71875 46.457031 441.328125 47.425781 438.925781 C 48.402344 436.507812 48.914062 433.996094 49.292969 431.703125 C 50.027344 427.097656 49.863281 423.21875 49.683594 420.566406 C 49.539062 417.917969 49.503906 416.472656 49.503906 416.472656 C 49.503906 416.472656 49.855469 417.863281 50.496094 420.386719 C 51.148438 422.855469 52.03125 426.800781 51.96875 431.683594 C 51.921875 434.125 51.746094 436.824219 50.984375 439.765625 C 50.601562 441.222656 50.054688 442.730469 49.257812 444.226562 C 48.460938 445.714844 47.382812 447.214844 45.886719 448.449219 C 44.425781 449.699219 42.519531 450.640625 40.460938 450.996094 C 38.410156 451.378906 36.285156 451.1875 34.3125 450.582031 C 32.328125 449.992188 30.476562 448.984375 28.839844 447.648438 C 27.195312 446.34375 25.789062 444.558594 24.792969 442.726562" fill="#000000"/></g></svg>