<?xml version="1.0" encoding="UTF-8" standalone="no"?><svg xmlns="http://www.w3.org/2000/svg" xmlns:xlink="http://www.w3.org/1999/xlink" fill="#000000" height="485.8" preserveAspectRatio="xMidYMid meet" version="1" viewBox="0.0 0.0 113.6 485.8" width="113.6" zoomAndPan="magnify"><defs><clipPath id="a"><path d="M 0 0 L 113.601562 0 L 113.601562 485.789062 L 0 485.789062 Z M 0 0"/></clipPath></defs><g><g clip-path="url(#a)" id="change1_1"><path d="M 75.921875 141.453125 C 75.921875 141.453125 76.175781 142.160156 76.226562 143.289062 C 76.28125 144.40625 76.074219 145.96875 75.242188 147.398438 C 74.410156 148.824219 73.160156 149.753906 72.175781 150.246094 C 71.183594 150.746094 70.457031 150.859375 70.457031 150.859375 C 70.457031 150.859375 70.71875 150.265625 71.15625 149.382812 C 71.597656 148.5 72.191406 147.328125 72.917969 146.085938 C 73.648438 144.839844 74.398438 143.71875 74.960938 142.863281 C 75.523438 142.011719 75.921875 141.453125 75.921875 141.453125 Z M 45.519531 153.519531 C 45.882812 153.125 46.28125 152.664062 46.6875 152.144531 C 47.398438 152.472656 48.101562 152.769531 48.804688 153.039062 C 48.609375 153.550781 48.441406 154.027344 48.296875 154.460938 C 47.367188 154.191406 46.441406 153.871094 45.519531 153.519531 Z M 38.726562 150.085938 C 39.183594 149.488281 39.644531 148.832031 40.097656 148.109375 C 40.785156 148.644531 41.503906 149.160156 42.25 149.660156 C 42.035156 150.183594 41.839844 150.679688 41.675781 151.109375 C 41.597656 151.320312 41.527344 151.511719 41.460938 151.691406 C 40.679688 151.28125 39.90625 150.839844 39.144531 150.367188 C 39.003906 150.277344 38.867188 150.179688 38.726562 150.085938 Z M 34.882812 147.289062 C 35.492188 146.695312 36.136719 145.988281 36.75 145.175781 C 37.171875 145.589844 37.605469 146.003906 38.058594 146.414062 C 37.621094 147.269531 37.25 148.101562 36.9375 148.878906 C 36.230469 148.367188 35.546875 147.835938 34.882812 147.289062 Z M 32.226562 144.890625 C 32.875 144.160156 33.550781 143.292969 34.171875 142.296875 C 34.410156 142.597656 34.667969 142.898438 34.929688 143.199219 C 34.332031 144.199219 33.839844 145.160156 33.4375 146.027344 C 33.027344 145.65625 32.625 145.277344 32.226562 144.890625 Z M 29.449219 147.21875 C 28.890625 146.371094 28.261719 145.460938 27.6875 144.390625 C 27.285156 143.695312 26.855469 142.96875 26.425781 142.199219 C 26.445312 142.179688 26.464844 142.160156 26.480469 142.140625 C 27.480469 143.492188 28.578125 144.8125 29.777344 146.078125 C 29.625 146.570312 29.515625 146.964844 29.449219 147.21875 Z M 16.78125 105.292969 C 16.855469 105.257812 16.933594 105.214844 17.015625 105.171875 C 17.007812 105.300781 16.996094 105.4375 16.988281 105.59375 C 16.945312 106.179688 16.914062 106.992188 16.886719 108 C 16.816406 108.101562 16.742188 108.199219 16.671875 108.300781 C 16.554688 108.472656 16.449219 108.640625 16.339844 108.808594 C 16.242188 107.703125 16.152344 106.632812 16.113281 105.597656 C 16.304688 105.515625 16.527344 105.417969 16.78125 105.292969 Z M 17.011719 114.269531 C 16.878906 113.417969 16.757812 112.582031 16.652344 111.753906 C 16.726562 111.714844 16.808594 111.65625 16.886719 111.609375 C 16.90625 112.433594 16.949219 113.320312 17.011719 114.269531 Z M 18.261719 114.964844 C 18.734375 114.679688 19.277344 114.289062 19.824219 113.804688 C 19.835938 114.015625 19.847656 114.21875 19.867188 114.445312 C 19.886719 114.6875 19.910156 114.949219 19.9375 115.210938 C 19.425781 115.660156 18.867188 116.214844 18.324219 116.871094 C 18.214844 116.265625 18.113281 115.675781 18.023438 115.105469 C 18.101562 115.0625 18.179688 115.015625 18.261719 114.964844 Z M 21.378906 122.625 C 20.96875 123.457031 20.632812 124.269531 20.359375 125.027344 C 20.082031 124.164062 19.828125 123.316406 19.601562 122.484375 C 20.082031 122.136719 20.578125 121.726562 21.054688 121.257812 C 21.167969 121.679688 21.292969 122.105469 21.425781 122.539062 C 21.410156 122.570312 21.394531 122.597656 21.378906 122.625 Z M 23.378906 127.648438 C 22.917969 128.410156 22.507812 129.15625 22.148438 129.871094 C 21.800781 129.054688 21.484375 128.242188 21.1875 127.441406 C 21.636719 126.96875 22.117188 126.402344 22.582031 125.757812 C 22.847656 126.394531 23.121094 127.011719 23.40625 127.605469 C 23.398438 127.621094 23.386719 127.632812 23.378906 127.648438 Z M 24.210938 134.175781 C 23.871094 133.535156 23.546875 132.898438 23.238281 132.261719 C 23.765625 131.679688 24.308594 131.015625 24.832031 130.277344 C 25.058594 130.664062 25.28125 131.03125 25.503906 131.386719 C 24.984375 132.371094 24.558594 133.320312 24.210938 134.175781 Z M 27.164062 133.796875 C 27.542969 134.300781 27.894531 134.742188 28.214844 135.132812 C 27.925781 135.574219 27.636719 136.027344 27.351562 136.496094 C 27.042969 137.007812 26.753906 137.507812 26.480469 138.003906 C 26.027344 137.316406 25.59375 136.625 25.191406 135.925781 C 25.792969 135.316406 26.453125 134.570312 27.09375 133.699219 C 27.117188 133.730469 27.140625 133.765625 27.164062 133.796875 Z M 31.628906 138.5625 C 31.894531 139 32.171875 139.460938 32.460938 139.9375 C 32.382812 140.070312 32.308594 140.199219 32.230469 140.335938 C 31.636719 141.40625 31.152344 142.449219 30.757812 143.398438 C 29.792969 142.363281 28.890625 141.296875 28.054688 140.199219 C 28.605469 139.472656 29.152344 138.675781 29.667969 137.820312 C 29.957031 137.34375 30.21875 136.871094 30.46875 136.402344 C 30.789062 137.070312 31.148438 137.808594 31.628906 138.5625 Z M 39.90625 138.464844 C 39.949219 138.609375 39.988281 138.753906 40.054688 138.917969 C 40.273438 139.597656 40.660156 140.472656 41.253906 141.449219 C 40.628906 142.246094 39.949219 143.191406 39.285156 144.253906 C 38.851562 143.90625 38.4375 143.5625 38.03125 143.214844 C 39.007812 141.464844 39.582031 139.726562 39.90625 138.464844 Z M 44.394531 145.140625 C 44.117188 145.652344 43.835938 146.183594 43.558594 146.742188 C 43.480469 146.898438 43.414062 147.050781 43.339844 147.207031 C 42.65625 146.757812 41.996094 146.296875 41.359375 145.832031 C 41.804688 144.90625 42.175781 144.015625 42.480469 143.171875 C 43.019531 143.835938 43.660156 144.496094 44.394531 145.140625 Z M 43.953125 150.726562 C 44.253906 150.898438 44.550781 151.070312 44.847656 151.234375 C 44.621094 151.894531 44.4375 152.496094 44.292969 153.027344 C 43.652344 152.753906 43.015625 152.453125 42.382812 152.140625 C 42.519531 152.035156 42.664062 151.925781 42.816406 151.800781 C 43.175781 151.507812 43.5625 151.136719 43.953125 150.726562 Z M 46.535156 146.78125 C 46.601562 146.824219 46.675781 146.863281 46.746094 146.902344 C 46.566406 147.230469 46.390625 147.566406 46.222656 147.914062 C 46.082031 148.195312 45.957031 148.472656 45.832031 148.746094 C 45.742188 148.695312 45.652344 148.644531 45.5625 148.589844 C 45.699219 148.355469 45.847656 148.132812 45.972656 147.878906 C 46.160156 147.492188 46.3125 147.105469 46.453125 146.722656 C 46.480469 146.742188 46.503906 146.761719 46.535156 146.78125 Z M 50.804688 148.828125 C 50.765625 148.898438 50.722656 148.960938 50.679688 149.03125 C 50.34375 149.628906 50.042969 150.214844 49.769531 150.785156 C 49.226562 150.53125 48.679688 150.273438 48.128906 149.992188 C 48.304688 149.683594 48.476562 149.367188 48.640625 149.039062 C 48.789062 148.734375 48.921875 148.429688 49.050781 148.128906 C 49.613281 148.382812 50.199219 148.617188 50.804688 148.828125 Z M 53.488281 149.578125 C 54.117188 149.703125 54.738281 149.796875 55.355469 149.867188 C 54.816406 150.808594 54.339844 151.695312 53.921875 152.507812 C 53.324219 152.289062 52.71875 152.050781 52.09375 151.816406 C 52.414062 151.332031 52.730469 150.828125 53.03125 150.292969 C 53.171875 150.046875 53.285156 149.804688 53.414062 149.558594 C 53.4375 149.5625 53.460938 149.570312 53.488281 149.578125 Z M 66.414062 149.015625 C 65.445312 150.710938 64.636719 152.265625 64.042969 153.449219 C 63.785156 153.964844 63.574219 154.40625 63.402344 154.765625 C 62.84375 154.710938 62.167969 154.632812 61.390625 154.46875 C 61.132812 154.414062 60.859375 154.367188 60.578125 154.316406 C 61.417969 153.410156 62.269531 152.316406 63 151.035156 C 63.28125 150.546875 63.523438 150.054688 63.746094 149.566406 C 64.714844 149.398438 65.605469 149.210938 66.414062 149.015625 Z M 58.425781 153.847656 C 57.648438 153.65625 56.820312 153.445312 55.957031 153.167969 C 56.773438 152.285156 57.605469 151.246094 58.347656 150.03125 C 59.105469 150.03125 59.84375 150.007812 60.546875 149.953125 C 59.742188 151.371094 59.027344 152.699219 58.425781 153.847656 Z M 59.582031 155.316406 C 59.992188 155.328125 60.382812 155.320312 60.753906 155.316406 C 60.3125 155.382812 59.863281 155.429688 59.414062 155.476562 C 59.46875 155.425781 59.527344 155.371094 59.582031 155.316406 Z M 53.46875 155.480469 C 53.703125 155.296875 53.957031 155.089844 54.226562 154.855469 C 54.28125 154.808594 54.34375 154.746094 54.398438 154.699219 C 54.699219 154.753906 54.992188 154.800781 55.277344 154.855469 C 56.136719 155.03125 56.957031 155.117188 57.734375 155.183594 C 57.722656 155.207031 57.707031 155.234375 57.695312 155.261719 C 57.632812 155.382812 57.574219 155.496094 57.515625 155.609375 C 56.191406 155.65625 54.839844 155.628906 53.46875 155.480469 Z M 51.472656 153.976562 C 51.992188 154.113281 52.492188 154.246094 52.992188 154.382812 C 52.820312 154.742188 52.667969 155.066406 52.542969 155.34375 C 51.621094 155.214844 50.695312 155.042969 49.765625 154.828125 C 50.0625 154.488281 50.371094 154.117188 50.695312 153.714844 C 50.953125 153.800781 51.21875 153.898438 51.472656 153.976562 Z M 47.691406 156.953125 C 47.90625 157.007812 48.125 157.070312 48.34375 157.121094 C 51.855469 157.945312 55.371094 158.179688 58.664062 157.816406 C 65.269531 157.085938 70.679688 154.230469 74.4375 151.132812 C 76.320312 149.558594 77.78125 147.882812 78.949219 146.347656 C 79.484375 145.539062 80.003906 144.808594 80.40625 144.089844 C 80.78125 143.351562 81.175781 142.710938 81.429688 142.085938 C 81.6875 141.460938 81.914062 140.90625 82.113281 140.429688 C 82.28125 139.941406 82.394531 139.515625 82.496094 139.175781 C 82.699219 138.503906 82.800781 138.148438 82.800781 138.148438 C 82.800781 138.148438 82.65625 138.496094 82.382812 139.15625 C 82.242188 139.484375 82.09375 139.898438 81.871094 140.367188 C 81.628906 140.828125 81.347656 141.355469 81.03125 141.953125 C 80.710938 142.542969 80.269531 143.152344 79.835938 143.839844 C 79.363281 144.5 78.808594 145.191406 78.207031 145.921875 C 76.949219 147.335938 75.375 148.8125 73.46875 150.203125 C 71.128906 151.847656 68.238281 153.347656 64.949219 154.359375 C 65.015625 154.308594 65.078125 154.257812 65.144531 154.203125 C 66.40625 153.160156 68.003906 151.546875 69.261719 149.414062 C 69.535156 148.949219 69.769531 148.484375 69.992188 148.019531 C 70.066406 147.992188 70.152344 147.96875 70.222656 147.945312 C 71.078125 147.65625 71.550781 147.496094 71.550781 147.496094 C 71.550781 147.496094 71.066406 147.515625 70.207031 147.546875 C 70.863281 146.046875 71.273438 144.597656 71.492188 143.441406 C 71.808594 141.800781 71.808594 140.722656 71.808594 140.722656 C 71.808594 140.722656 71.1875 141.554688 70.273438 142.894531 C 69.433594 144.132812 68.332031 145.796875 67.214844 147.652344 C 66.902344 147.664062 66.582031 147.675781 66.242188 147.6875 C 65.6875 147.703125 65.085938 147.714844 64.464844 147.726562 C 64.8125 146.664062 65.039062 145.671875 65.179688 144.824219 C 65.457031 143.128906 65.421875 142.023438 65.421875 142.023438 C 65.421875 142.023438 64.828125 142.910156 63.941406 144.320312 C 63.355469 145.261719 62.628906 146.4375 61.851562 147.730469 C 61.113281 147.71875 60.347656 147.6875 59.5625 147.640625 C 60.140625 146.308594 60.546875 145.035156 60.789062 143.992188 C 61.179688 142.34375 61.242188 141.25 61.242188 141.25 C 61.242188 141.25 60.570312 142.070312 59.59375 143.402344 C 58.820312 144.460938 57.847656 145.84375 56.847656 147.402344 C 56.097656 147.3125 55.335938 147.195312 54.566406 147.058594 C 54.910156 146.183594 55.195312 145.359375 55.414062 144.648438 C 55.890625 143.097656 56.074219 142.050781 56.074219 142.050781 C 56.074219 142.050781 55.324219 142.746094 54.265625 143.96875 C 53.664062 144.664062 52.964844 145.550781 52.257812 146.554688 C 51.421875 146.328125 50.625 146.058594 49.851562 145.765625 C 50.515625 143.300781 50.535156 141.375 50.535156 141.375 C 50.535156 141.375 49.292969 142.765625 47.90625 144.933594 C 47.601562 144.785156 47.308594 144.632812 47.019531 144.476562 C 47.105469 143.925781 47.164062 143.398438 47.179688 142.941406 C 47.226562 141.59375 47.054688 140.726562 47.054688 140.726562 C 47.054688 140.726562 46.582031 141.414062 45.917969 142.503906 C 45.738281 142.800781 45.539062 143.132812 45.335938 143.484375 C 44.445312 142.902344 43.648438 142.292969 42.984375 141.675781 C 43.027344 141.53125 43.082031 141.371094 43.121094 141.234375 C 43.570312 139.679688 43.738281 138.628906 43.738281 138.628906 C 43.738281 138.628906 42.976562 139.355469 41.925781 140.613281 C 41.277344 139.914062 40.765625 139.257812 40.425781 138.726562 C 40.238281 138.476562 40.113281 138.261719 40.003906 138.070312 C 40.222656 137.148438 40.296875 136.5625 40.296875 136.5625 C 40.296875 136.5625 38.148438 138.496094 36.082031 141.429688 C 35.75 141.121094 35.4375 140.808594 35.144531 140.488281 C 36.730469 137.089844 36.957031 133.890625 36.957031 133.890625 C 36.957031 133.890625 35.148438 135.734375 33.332031 138.519531 C 33.117188 138.261719 32.894531 138 32.691406 137.753906 C 32.003906 136.988281 31.488281 136.214844 30.992188 135.554688 C 30.972656 135.527344 30.957031 135.507812 30.9375 135.480469 C 32.804688 131.652344 33.453125 128.351562 33.453125 128.351562 C 33.453125 128.351562 31.601562 130.308594 29.464844 133.300781 C 29.035156 132.640625 28.789062 132.265625 28.789062 132.265625 C 28.789062 132.265625 28.960938 132.730469 29.269531 133.578125 C 29.105469 133.808594 28.945312 134.042969 28.78125 134.28125 C 28.625 133.902344 28.457031 133.503906 28.277344 133.058594 C 28.183594 132.835938 28.085938 132.597656 27.988281 132.355469 C 28.082031 132.207031 28.171875 132.0625 28.257812 131.90625 C 30.382812 128.148438 30.679688 124.230469 30.679688 124.230469 C 30.679688 124.230469 28.671875 126.242188 26.753906 129.242188 C 26.589844 128.828125 26.425781 128.402344 26.257812 127.96875 C 28.195312 124.308594 28.671875 120.820312 28.671875 120.820312 C 28.671875 120.820312 26.996094 122.46875 25.128906 125.027344 C 24.964844 124.589844 24.796875 124.148438 24.628906 123.699219 C 24.503906 123.363281 24.378906 123.035156 24.253906 122.703125 C 25.453125 119.652344 25.371094 116.800781 25.371094 116.800781 C 25.371094 116.800781 24.324219 117.910156 23.125 119.664062 C 23.035156 119.425781 22.953125 119.191406 22.867188 118.957031 C 24.203125 116.742188 24.59375 114.621094 24.59375 114.621094 C 24.59375 114.621094 23.433594 115.308594 21.996094 116.539062 C 21.839844 116.101562 21.691406 115.675781 21.550781 115.269531 C 21.703125 114.433594 21.707031 113.859375 21.707031 113.859375 C 21.707031 113.859375 21.5 113.988281 21.1875 114.214844 C 21.183594 114.195312 21.175781 114.179688 21.171875 114.164062 C 21.015625 113.699219 20.871094 113.273438 20.738281 112.875 C 20.871094 112.71875 21.011719 112.570312 21.140625 112.402344 C 22.050781 111.214844 22.558594 109.953125 22.820312 109.015625 C 23.078125 108.074219 23.113281 107.457031 23.113281 107.457031 C 23.113281 107.457031 22.480469 107.78125 21.660156 108.355469 C 20.835938 108.933594 19.828125 109.734375 19 110.8125 C 18.449219 111.53125 18.042969 112.300781 17.722656 113.019531 C 17.640625 112.386719 17.566406 111.777344 17.503906 111.207031 C 18.007812 110.835938 18.496094 110.363281 18.898438 109.773438 C 19.730469 108.542969 19.980469 107.136719 19.964844 106.117188 C 19.953125 105.085938 19.730469 104.429688 19.730469 104.429688 C 19.730469 104.429688 19.316406 104.890625 18.734375 105.597656 C 18.296875 106.140625 17.753906 106.804688 17.203125 107.554688 C 17.152344 106.746094 17.117188 106.078125 17.101562 105.582031 C 17.097656 105.414062 17.089844 105.269531 17.085938 105.136719 C 17.625 104.855469 18.191406 104.511719 18.597656 104.003906 C 19.082031 103.402344 19.300781 102.617188 19.476562 101.9375 C 19.648438 101.261719 19.738281 100.703125 19.738281 100.703125 C 19.738281 100.703125 19.28125 100.703125 18.625 100.914062 C 17.972656 101.117188 17.125 101.570312 16.5 102.355469 C 16.304688 102.601562 16.15625 102.859375 16.027344 103.121094 C 16.019531 102.84375 16.007812 102.5625 16.007812 102.292969 C 16.019531 101.46875 16.035156 100.675781 16.050781 99.914062 C 16.03125 98.394531 16.175781 97.023438 16.253906 95.8125 C 16.292969 95.203125 16.335938 94.636719 16.371094 94.117188 C 16.433594 93.597656 16.496094 93.125 16.550781 92.699219 C 16.75 90.984375 16.863281 90.03125 16.863281 90.03125 C 16.863281 90.03125 16.601562 90.96875 16.132812 92.652344 C 16.019531 93.074219 15.890625 93.542969 15.75 94.058594 C 15.644531 94.578125 15.53125 95.144531 15.410156 95.753906 C 15.167969 96.972656 14.867188 98.359375 14.710938 99.914062 C 14.617188 100.6875 14.519531 101.5 14.414062 102.347656 C 14.367188 103.195312 14.316406 104.082031 14.265625 104.996094 C 14.113281 106.828125 14.226562 108.785156 14.242188 110.84375 C 14.273438 111.320312 14.324219 111.820312 14.363281 112.3125 C 14.320312 112.40625 14.285156 112.472656 14.285156 112.472656 C 14.285156 112.472656 14.324219 112.472656 14.375 112.464844 C 14.617188 115.425781 15.066406 118.542969 15.78125 121.730469 C 15.703125 122.007812 15.664062 122.171875 15.664062 122.171875 C 15.664062 122.171875 15.742188 122.148438 15.867188 122.101562 C 16.011719 122.726562 16.140625 123.351562 16.304688 123.980469 C 17.308594 127.8125 18.699219 131.320312 20.183594 134.484375 C 20.007812 135 19.917969 135.304688 19.917969 135.304688 C 19.917969 135.304688 20.101562 135.179688 20.402344 134.941406 C 20.609375 135.378906 20.8125 135.832031 21.023438 136.253906 C 21.5 137.140625 21.960938 138.003906 22.410156 138.839844 C 22.867188 139.671875 23.390625 140.433594 23.851562 141.191406 C 24.042969 141.511719 24.234375 141.8125 24.429688 142.109375 C 23.542969 144.109375 23.105469 145.441406 23.105469 145.441406 C 23.105469 145.441406 24.03125 144.714844 25.3125 143.402344 C 25.769531 144.050781 26.226562 144.660156 26.65625 145.246094 C 27.511719 146.480469 28.457031 147.464844 29.207031 148.382812 C 29.957031 149.300781 30.675781 150.023438 31.265625 150.613281 C 32.4375 151.789062 33.082031 152.433594 33.082031 152.433594 C 33.082031 152.433594 32.539062 151.679688 31.554688 150.3125 C 31.308594 149.976562 31.035156 149.601562 30.734375 149.1875 C 30.4375 148.773438 30.152344 148.296875 29.824219 147.800781 C 29.742188 147.671875 29.65625 147.539062 29.570312 147.40625 C 29.75 147.269531 30.039062 147.039062 30.40625 146.714844 C 31.042969 147.359375 31.703125 147.984375 32.390625 148.59375 C 32.171875 149.210938 32.070312 149.578125 32.070312 149.578125 C 32.070312 149.578125 32.378906 149.386719 32.871094 149.019531 C 33.871094 149.878906 34.917969 150.703125 36.019531 151.476562 C 35.605469 152.835938 35.445312 153.707031 35.445312 153.707031 C 35.445312 153.707031 36.101562 153.136719 37.019531 152.136719 C 37.371094 152.367188 37.710938 152.609375 38.070312 152.832031 C 41.121094 154.675781 44.347656 156.078125 47.613281 156.933594 C 47.601562 156.996094 47.59375 157.039062 47.59375 157.039062 C 47.59375 157.039062 47.632812 157.003906 47.691406 156.953125 Z M 72.542969 22.878906 C 72.542969 22.878906 72.507812 23.308594 72.378906 24.035156 C 73.386719 25.078125 74.375 26.214844 75.320312 27.453125 C 75.65625 27.082031 75.851562 26.867188 75.851562 26.867188 C 75.851562 26.867188 75.757812 27.199219 75.558594 27.777344 C 76.300781 28.773438 77.023438 29.820312 77.703125 30.933594 C 79.109375 33.191406 80.371094 35.65625 81.527344 38.261719 C 81.765625 37.960938 81.898438 37.796875 81.898438 37.796875 C 81.898438 37.796875 81.832031 38.101562 81.691406 38.625 C 82.285156 39.976562 82.847656 41.371094 83.382812 42.789062 C 83.429688 42.734375 83.460938 42.699219 83.460938 42.699219 C 83.460938 42.699219 83.445312 42.769531 83.421875 42.882812 C 83.992188 44.394531 84.53125 45.941406 85.046875 47.511719 C 85.6875 49.457031 86.246094 51.382812 86.746094 53.28125 C 87.660156 52.226562 88.292969 51.613281 88.292969 51.613281 C 88.292969 51.613281 88.0625 53.242188 87.292969 55.441406 C 87.414062 55.953125 87.539062 56.464844 87.652344 56.972656 C 88.28125 56.109375 88.695312 55.613281 88.695312 55.613281 C 88.695312 55.613281 88.597656 57.046875 88.109375 59.097656 C 88.40625 60.535156 88.664062 61.953125 88.890625 63.339844 C 89.636719 62.371094 90.148438 61.8125 90.148438 61.8125 C 90.148438 61.8125 90.042969 63.707031 89.316406 66.179688 C 89.53125 67.722656 89.707031 69.230469 89.84375 70.679688 C 90.453125 69.859375 90.863281 69.378906 90.863281 69.378906 C 90.863281 69.378906 90.828125 71.4375 90.113281 74.0625 C 90.183594 75.207031 90.238281 76.308594 90.269531 77.367188 C 90.710938 77.058594 91.007812 76.90625 91.007812 76.90625 C 91.007812 76.90625 90.988281 77.59375 90.824219 78.535156 C 90.722656 79.105469 90.5625 79.761719 90.320312 80.433594 C 90.328125 84.144531 90.144531 87.160156 89.976562 89.277344 C 89.769531 91.5625 89.621094 92.816406 89.621094 92.816406 C 89.621094 92.816406 89.597656 91.578125 89.5625 89.320312 C 89.507812 87.601562 89.417969 85.292969 89.21875 82.507812 C 88.667969 83.238281 88.03125 83.824219 87.476562 84.277344 C 86.75 84.867188 86.164062 85.210938 86.164062 85.210938 C 86.164062 85.210938 86.125 84.632812 86.257812 83.734375 C 86.390625 82.84375 86.710938 81.632812 87.398438 80.445312 C 87.835938 79.691406 88.363281 79.0625 88.878906 78.546875 C 88.847656 78.234375 88.816406 77.914062 88.78125 77.59375 C 86.878906 81.414062 83.996094 83.761719 83.996094 83.761719 C 83.996094 83.761719 84.582031 80.214844 86.476562 76.242188 C 87.035156 75.078125 87.640625 74.007812 88.222656 73.074219 C 88.082031 72.085938 87.925781 71.070312 87.757812 70.027344 C 85.695312 73.894531 82.671875 76.230469 82.671875 76.230469 C 82.671875 76.230469 83.402344 72.644531 85.46875 68.664062 C 85.976562 67.6875 86.515625 66.777344 87.042969 65.960938 C 86.894531 65.195312 86.742188 64.425781 86.582031 63.644531 C 86.472656 63.890625 86.359375 64.132812 86.238281 64.378906 C 84.070312 68.78125 80.847656 71.558594 80.847656 71.558594 C 80.847656 71.558594 81.652344 67.660156 83.820312 63.257812 C 84.4375 62 85.101562 60.839844 85.730469 59.820312 C 85.683594 59.617188 85.636719 59.414062 85.585938 59.210938 C 85.484375 59.394531 85.382812 59.574219 85.273438 59.753906 C 82.835938 63.742188 79.46875 66.054688 79.46875 66.054688 C 79.46875 66.054688 80.527344 62.402344 82.964844 58.414062 C 83.539062 57.472656 84.140625 56.597656 84.722656 55.808594 C 84.429688 54.699219 84.117188 53.582031 83.785156 52.453125 C 83.332031 53.878906 82.671875 55.511719 81.71875 57.128906 C 80.410156 59.347656 78.816406 61.085938 77.5625 62.246094 C 76.304688 63.40625 75.386719 64.011719 75.386719 64.011719 C 75.386719 64.011719 76.828125 60.171875 79.386719 55.828125 C 80.710938 53.59375 82.089844 51.625 83.117188 50.238281 C 82.953125 49.707031 82.789062 49.175781 82.613281 48.644531 C 82.441406 48.113281 82.261719 47.585938 82.085938 47.0625 C 81.335938 48.953125 80.21875 51.257812 78.648438 53.519531 C 76.796875 56.179688 74.691406 58.242188 73.0625 59.609375 C 71.429688 60.976562 70.285156 61.675781 70.285156 61.675781 C 70.285156 61.675781 70.910156 60.558594 71.996094 58.808594 C 73.078125 57.054688 74.601562 54.660156 76.410156 52.0625 C 78.222656 49.464844 79.984375 47.136719 81.289062 45.441406 C 81.347656 45.367188 81.398438 45.300781 81.453125 45.226562 C 81.117188 44.265625 80.777344 43.316406 80.425781 42.382812 C 79.644531 44.335938 78.492188 46.703125 76.882812 49.039062 C 74.96875 51.816406 72.800781 53.980469 71.125 55.417969 C 69.445312 56.859375 68.269531 57.601562 68.269531 57.601562 C 68.269531 57.601562 68.925781 56.445312 70.054688 54.621094 C 71.183594 52.800781 72.765625 50.308594 74.636719 47.59375 C 76.511719 44.882812 78.324219 42.449219 79.667969 40.671875 C 79.691406 40.640625 79.710938 40.613281 79.734375 40.585938 C 79.273438 39.421875 78.796875 38.289062 78.304688 37.183594 C 78.242188 37.355469 78.179688 37.527344 78.109375 37.714844 C 77.347656 39.726562 76.074219 42.414062 74.15625 45.007812 C 72.234375 47.597656 70.0625 49.570312 68.386719 50.855469 C 66.707031 52.144531 65.539062 52.777344 65.539062 52.777344 C 65.539062 52.777344 66.210938 51.699219 67.355469 50.011719 C 68.5 48.316406 70.097656 46.003906 71.964844 43.484375 C 73.835938 40.964844 75.632812 38.699219 76.957031 37.042969 C 77.257812 36.664062 77.535156 36.328125 77.785156 36.019531 C 77.429688 35.265625 77.066406 34.53125 76.695312 33.8125 C 76.597656 34.101562 76.496094 34.402344 76.375 34.726562 C 75.585938 36.886719 74.230469 39.777344 72.160156 42.550781 C 70.085938 45.320312 67.726562 47.40625 65.914062 48.746094 C 64.097656 50.089844 62.835938 50.730469 62.835938 50.730469 C 62.835938 50.730469 63.617188 49.625 64.90625 47.871094 C 66.195312 46.128906 67.976562 43.71875 69.972656 41.019531 C 72.519531 37.652344 74.816406 34.617188 76.171875 32.824219 C 76.078125 32.648438 75.988281 32.46875 75.890625 32.296875 C 75.488281 31.5625 75.070312 30.859375 74.644531 30.167969 C 74.625 30.214844 74.609375 30.253906 74.589844 30.296875 C 73.714844 32.355469 72.328125 35.097656 70.355469 37.789062 C 68.382812 40.484375 66.210938 42.597656 64.542969 44.023438 C 62.871094 45.445312 61.707031 46.195312 61.707031 46.195312 C 61.707031 46.195312 64.269531 41.585938 68.152344 36.28125 C 70.320312 33.335938 72.457031 30.757812 73.929688 29.046875 C 73.265625 28.046875 72.582031 27.109375 71.882812 26.222656 C 71.351562 28.144531 70.363281 30.691406 68.699219 33.132812 C 66.996094 35.625 64.949219 37.46875 63.363281 38.632812 C 61.769531 39.800781 60.648438 40.335938 60.648438 40.335938 C 60.648438 40.335938 61.285156 39.34375 62.335938 37.777344 C 63.386719 36.226562 64.835938 34.085938 66.453125 31.6875 C 68.234375 29.113281 69.859375 26.761719 70.984375 25.132812 C 70.066406 24.054688 69.125 23.066406 68.175781 22.1875 C 68.203125 22.40625 68.226562 22.644531 68.238281 22.90625 C 68.304688 24.136719 68.09375 25.859375 67.21875 27.46875 C 66.34375 29.074219 65.019531 30.164062 63.972656 30.765625 C 62.917969 31.371094 62.144531 31.542969 62.144531 31.542969 C 62.144531 31.542969 62.445312 30.898438 62.9375 29.925781 C 63.429688 28.949219 64.082031 27.644531 64.855469 26.230469 C 65.632812 24.816406 66.398438 23.523438 66.957031 22.535156 C 67.167969 22.171875 67.351562 21.855469 67.5 21.597656 C 67.308594 21.433594 67.121094 21.257812 66.929688 21.101562 C 66.507812 20.753906 66.089844 20.425781 65.671875 20.117188 C 65.675781 20.125 66.53125 22.113281 65.769531 23.621094 C 65.007812 25.132812 62.910156 25.585938 62.910156 25.585938 C 62.910156 25.585938 62.617188 23.949219 63.378906 22.4375 C 64.140625 20.929688 65.667969 20.117188 65.671875 20.113281 C 62.949219 18.089844 60.371094 16.898438 58.460938 16.238281 C 57.355469 15.867188 56.472656 15.636719 55.867188 15.511719 C 55.257812 15.386719 54.941406 15.320312 54.941406 15.320312 C 54.941406 15.320312 55.261719 15.34375 55.871094 15.394531 C 56.484375 15.449219 57.386719 15.574219 58.535156 15.824219 C 60.8125 16.34375 64.113281 17.5 67.621094 19.949219 C 69.082031 20.953125 70.5625 22.203125 72.007812 23.65625 C 72.347656 23.160156 72.542969 22.878906 72.542969 22.878906 Z M 93.449219 105.535156 C 93.75 99.417969 93.855469 90.921875 93.21875 81.445312 C 92.894531 76.710938 92.421875 72.179688 91.898438 68.046875 C 91.316406 63.925781 90.75 60.191406 90.128906 57.070312 C 89.855469 55.5 89.542969 54.089844 89.285156 52.84375 C 89.039062 51.597656 88.800781 50.527344 88.589844 49.652344 C 88.191406 47.898438 87.96875 46.921875 87.96875 46.921875 C 87.96875 46.921875 88.328125 47.84375 88.980469 49.503906 C 89.304688 50.335938 89.6875 51.355469 90.082031 52.558594 C 90.488281 53.757812 90.964844 55.121094 91.402344 56.652344 C 92.339844 59.695312 93.257812 63.378906 94.089844 67.5 C 94.875 71.628906 95.527344 76.203125 95.867188 81.023438 C 96.195312 85.84375 96.15625 90.433594 95.945312 94.585938 C 95.707031 98.738281 95.277344 102.445312 94.785156 105.53125 C 94.570312 107.078125 94.28125 108.460938 94.054688 109.679688 C 93.832031 110.894531 93.59375 111.933594 93.394531 112.777344 C 92.988281 114.464844 92.761719 115.398438 92.761719 115.398438 C 92.761719 115.398438 92.839844 114.460938 92.976562 112.761719 C 93.132812 111.0625 93.289062 108.59375 93.449219 105.535156 Z M 56.773438 176.238281 C 56.773438 176.238281 57.550781 174.042969 59.441406 172.152344 C 61.335938 170.257812 63.625 169.382812 63.625 169.382812 C 63.625 169.382812 63.246094 172.121094 61.351562 174.015625 C 59.460938 175.90625 56.773438 176.238281 56.773438 176.238281 Z M 62.582031 470.492188 C 62.546875 471.796875 61.90625 472.882812 61.292969 473.523438 C 60.679688 474.175781 60.121094 474.433594 60.121094 474.433594 C 60.121094 474.433594 60.058594 473.925781 60.003906 473.1875 C 59.953125 472.441406 59.882812 471.484375 59.914062 470.445312 C 59.949219 469.40625 60.074219 468.429688 60.160156 467.660156 C 60.25 466.898438 60.332031 466.363281 60.332031 466.363281 C 60.332031 466.363281 60.878906 466.667969 61.460938 467.363281 C 62.042969 468.050781 62.617188 469.191406 62.582031 470.492188 Z M 58.042969 241.570312 C 58.042969 241.570312 59.710938 245.152344 59.710938 249.507812 C 59.710938 253.859375 58.042969 257.332031 58.042969 257.332031 C 58.042969 257.332031 57.042969 253.914062 57.042969 249.5625 C 57.042969 245.210938 58.042969 241.570312 58.042969 241.570312 Z M 55.40625 203.621094 C 54.535156 189.652344 54.371094 177.898438 54.371094 177.898438 C 54.371094 177.898438 55.066406 180.730469 55.878906 185.320312 C 56.695312 189.910156 57.613281 196.261719 58.054688 203.273438 C 58.5 210.285156 58.386719 216.613281 58.152344 221.179688 C 57.921875 225.746094 57.589844 228.554688 57.589844 228.554688 C 57.589844 228.554688 56.289062 217.589844 55.40625 203.621094 Z M 24.546875 52.019531 C 23.84375 53.796875 23.277344 55.253906 22.925781 56.273438 C 22.546875 57.289062 22.335938 57.851562 22.335938 57.851562 C 22.335938 57.851562 22.398438 57.269531 22.511719 56.210938 C 22.617188 55.148438 22.855469 53.621094 23.242188 51.734375 C 24.019531 47.976562 25.566406 42.785156 28.382812 37.453125 C 29.789062 34.796875 31.363281 32.371094 32.921875 30.253906 C 34.523438 28.160156 36.054688 26.339844 37.460938 24.917969 C 38.140625 24.183594 38.804688 23.566406 39.382812 23.019531 C 39.953125 22.464844 40.464844 22.011719 40.898438 21.648438 C 41.753906 20.925781 42.226562 20.523438 42.226562 20.523438 C 42.226562 20.523438 41.863281 21.023438 41.214844 21.925781 C 40.878906 22.363281 40.480469 22.910156 40.035156 23.554688 C 39.589844 24.195312 39.058594 24.902344 38.527344 25.722656 C 37.410156 27.320312 36.179688 29.273438 34.847656 31.429688 C 33.546875 33.609375 32.171875 36.011719 30.808594 38.566406 C 28.097656 43.683594 25.960938 48.460938 24.546875 52.019531 Z M 43.761719 454.640625 C 43.765625 454.640625 43.765625 454.636719 43.765625 454.636719 C 43.765625 454.636719 43.765625 454.640625 43.761719 454.640625 Z M 43.765625 454.636719 C 43.773438 454.628906 43.769531 454.628906 43.765625 454.636719 Z M 43.925781 439.984375 C 41.914062 436.28125 41.257812 432.289062 41.160156 428.628906 C 41.117188 426.785156 41.199219 425.003906 41.382812 423.269531 C 41.5625 421.527344 41.859375 419.800781 42.300781 418.128906 C 43.183594 414.796875 44.769531 411.632812 47.089844 409.328125 C 49.355469 407.035156 52.207031 405.578125 55.023438 405.222656 C 56.414062 405.03125 57.824219 405.167969 59 405.453125 C 60.191406 405.734375 61.234375 406.148438 62.171875 406.605469 C 64.054688 407.5 65.488281 408.632812 66.507812 409.738281 C 67.527344 410.847656 68.054688 412 68.222656 412.824219 C 68.347656 413.234375 68.324219 413.535156 68.34375 413.738281 C 68.355469 413.941406 68.359375 414.046875 68.359375 414.046875 C 68.335938 414.050781 68.316406 413.640625 68.011719 412.90625 C 67.71875 412.167969 67.054688 411.210938 65.964844 410.375 C 64.878906 409.539062 63.421875 408.742188 61.628906 408.203125 C 59.851562 407.667969 57.714844 407.292969 55.636719 407.824219 C 53.542969 408.351562 51.5 409.707031 49.917969 411.640625 C 48.332031 413.5625 47.300781 416.074219 46.75 418.902344 C 46.207031 421.703125 46.078125 424.917969 46.246094 428.089844 C 46.433594 431.253906 47.046875 434.433594 48.457031 437.144531 C 49.175781 438.523438 50.019531 439.644531 51.070312 440.605469 C 52.132812 441.546875 53.347656 442.316406 54.617188 442.804688 C 55.886719 443.277344 57.195312 443.519531 58.417969 443.425781 C 59.636719 443.320312 60.78125 442.941406 61.8125 442.269531 C 63.875 440.933594 65.324219 438.574219 66.28125 436.207031 C 67.25 433.824219 67.757812 431.347656 68.132812 429.082031 C 68.863281 424.535156 68.707031 420.710938 68.53125 418.089844 C 68.398438 415.472656 68.359375 414.046875 68.359375 414.046875 C 68.359375 414.046875 68.710938 415.417969 69.347656 417.910156 C 69.992188 420.34375 70.867188 424.238281 70.808594 429.066406 C 70.765625 431.476562 70.589844 434.144531 69.839844 437.050781 C 69.460938 438.492188 68.925781 439.984375 68.132812 441.460938 C 67.347656 442.933594 66.28125 444.417969 64.800781 445.640625 C 63.355469 446.875 61.46875 447.808594 59.433594 448.160156 C 57.402344 448.542969 55.296875 448.351562 53.347656 447.753906 C 51.382812 447.167969 49.550781 446.175781 47.933594 444.851562 C 46.300781 443.5625 44.914062 441.792969 43.925781 439.984375 Z M 73.21875 363.226562 C 73.003906 363.617188 72.742188 364.09375 72.441406 364.644531 C 71.820312 365.789062 71.03125 367.230469 70.179688 368.824219 C 70.09375 367.746094 70.007812 366.628906 69.914062 365.46875 C 70.933594 363.0625 71.421875 360.695312 71.621094 358.9375 C 71.832031 357.09375 71.765625 355.90625 71.765625 355.90625 C 71.765625 355.90625 71.1875 356.914062 70.351562 358.523438 C 70.089844 359.03125 69.792969 359.613281 69.484375 360.226562 C 69.171875 356.464844 68.824219 352.414062 68.445312 348.175781 C 68.449219 347.453125 68.414062 347.03125 68.414062 347.03125 C 68.414062 347.03125 68.386719 347.078125 68.351562 347.148438 C 68.308594 346.660156 68.265625 346.175781 68.21875 345.6875 C 67.789062 340.964844 67.351562 336.425781 66.933594 332.207031 C 67.234375 330.980469 67.414062 329.839844 67.511719 328.875 C 67.707031 326.972656 67.617188 325.753906 67.617188 325.753906 C 67.617188 325.753906 67.179688 326.585938 66.503906 327.941406 C 66.328125 326.207031 66.160156 324.542969 65.996094 322.960938 C 66.433594 321.824219 66.789062 320.730469 67.082031 319.71875 C 67.277344 321.875 67.464844 324.03125 67.6875 326.1875 C 68.9375 338.613281 70.824219 350.996094 73.21875 363.226562 Z M 79.421875 392.972656 C 79.300781 393.046875 79.179688 393.128906 79.054688 393.214844 C 78.632812 391.136719 78.222656 389.238281 77.851562 387.589844 C 77.414062 385.652344 77.027344 384.058594 76.738281 382.898438 C 76.878906 382.679688 77.011719 382.453125 77.144531 382.210938 C 77.910156 385.800781 78.671875 389.386719 79.421875 392.972656 Z M 85.375 460.929688 C 84.847656 461.167969 84.285156 461.410156 83.683594 461.664062 C 84.632812 459.828125 85.554688 457.386719 85.90625 454.570312 C 86.296875 451.480469 85.917969 448.613281 85.359375 446.5 C 85.40625 446.171875 85.453125 445.84375 85.5 445.484375 C 85.953125 441.972656 86.289062 437.214844 86.015625 431.902344 C 86.441406 435.859375 86.785156 439.820312 87 443.789062 C 87.300781 449.609375 87.101562 455.453125 85.375 460.929688 Z M 74.128906 477.527344 C 74.292969 477.273438 74.460938 477.007812 74.632812 476.714844 C 75.167969 475.820312 75.734375 474.71875 76.257812 473.464844 C 77.136719 473.171875 77.902344 472.769531 78.558594 472.34375 C 78.4375 472.878906 78.320312 473.378906 78.203125 473.839844 C 76.972656 475.203125 75.613281 476.4375 74.128906 477.527344 Z M 71.683594 472.652344 C 71.582031 472.710938 71.484375 472.765625 71.390625 472.820312 C 71.5625 472.335938 71.71875 471.84375 71.851562 471.324219 C 71.945312 470.964844 72.023438 470.601562 72.089844 470.246094 C 72.9375 470.050781 73.890625 469.796875 74.890625 469.460938 C 74.773438 470.078125 74.652344 470.683594 74.53125 471.265625 C 73.445312 471.699219 72.472656 472.214844 71.683594 472.652344 Z M 82.265625 466.480469 C 82.300781 466.183594 82.320312 465.886719 82.339844 465.589844 C 82.472656 465.492188 82.546875 465.433594 82.546875 465.433594 C 82.546875 465.433594 82.476562 465.425781 82.355469 465.417969 C 82.371094 465.164062 82.378906 464.910156 82.382812 464.660156 C 83.15625 464.21875 83.871094 463.773438 84.519531 463.324219 C 83.773438 465.277344 82.863281 467.171875 81.789062 468.96875 C 81.996094 468.179688 82.160156 467.351562 82.265625 466.480469 Z M 77.8125 468.285156 C 78.402344 468.007812 78.949219 467.722656 79.445312 467.445312 C 79.3125 468.402344 79.160156 469.316406 79 470.175781 C 78.480469 470.242188 77.914062 470.328125 77.308594 470.449219 C 77.503906 469.757812 77.671875 469.03125 77.8125 468.285156 Z M 72.277344 459.632812 C 73.152344 459.121094 73.738281 458.238281 73.972656 457.574219 C 74.226562 456.890625 74.28125 456.324219 74.292969 455.84375 C 74.3125 454.902344 74.136719 454.023438 73.851562 453.265625 C 73.800781 453.128906 73.730469 453.019531 73.675781 452.890625 C 74.03125 453.019531 74.417969 453.128906 74.847656 453.203125 C 75.789062 453.347656 76.773438 453.28125 77.761719 452.980469 C 78.738281 452.660156 79.753906 452.117188 80.582031 451.125 C 81.425781 450.171875 81.886719 448.734375 81.792969 447.496094 C 81.75 446.828125 81.582031 446.234375 81.347656 445.707031 C 81.421875 445.460938 81.890625 443.8125 82.292969 441.171875 C 82.730469 438.3125 83.035156 434.28125 82.566406 429.84375 C 82.328125 427.589844 81.914062 425.464844 81.429688 423.554688 C 81.703125 423.292969 81.953125 423.027344 82.179688 422.761719 C 82.398438 423.605469 82.597656 424.34375 82.769531 424.96875 C 82.921875 426.582031 83.074219 428.253906 83.214844 429.96875 C 83.617188 434.835938 83.882812 439.28125 84.050781 442.902344 C 83.917969 442.621094 83.835938 442.464844 83.835938 442.464844 C 83.835938 442.464844 83.84375 442.8125 83.851562 443.433594 C 83.875 444.054688 83.875 444.949219 83.859375 446.035156 C 83.839844 448.214844 83.65625 451.15625 83.25 454.320312 C 82.929688 456.839844 82.515625 459.125 82.117188 460.984375 C 81.929688 459.863281 81.664062 458.855469 81.375 458.015625 C 81.023438 456.976562 80.660156 456.164062 80.371094 455.617188 C 80.089844 455.070312 79.917969 454.777344 79.917969 454.777344 C 79.917969 454.777344 79.933594 455.117188 79.96875 455.71875 C 80.011719 456.316406 80.042969 457.183594 80.058594 458.234375 C 80.085938 459.609375 80.042969 461.308594 79.90625 463.167969 C 79.363281 463.375 78.808594 463.578125 78.238281 463.789062 C 78.25 461.769531 78.039062 459.945312 77.746094 458.503906 C 77.511719 457.308594 77.246094 456.359375 77.027344 455.707031 C 76.804688 455.0625 76.679688 454.703125 76.679688 454.703125 C 76.679688 454.703125 76.65625 455.078125 76.613281 455.757812 C 76.582031 456.429688 76.511719 457.398438 76.414062 458.578125 C 76.28125 460.261719 76.042969 462.363281 75.703125 464.671875 C 74.566406 465.054688 73.46875 465.410156 72.414062 465.742188 C 72.367188 464.679688 72.238281 463.710938 72.070312 462.886719 C 71.855469 461.820312 71.601562 460.976562 71.386719 460.402344 C 71.339844 460.277344 71.300781 460.167969 71.261719 460.066406 C 71.578125 459.976562 71.914062 459.847656 72.277344 459.632812 Z M 68.199219 455.082031 C 67.351562 454.984375 66.363281 454.625 65.496094 454.292969 C 65.484375 454.289062 65.476562 454.285156 65.464844 454.28125 C 65.402344 454.171875 65.335938 454.0625 65.269531 453.964844 C 65.109375 453.730469 64.945312 453.523438 64.78125 453.339844 C 66.421875 452.8125 67.925781 452.066406 69.238281 451.164062 C 69.304688 451.378906 69.367188 451.597656 69.414062 451.824219 C 69.59375 452.65625 69.621094 453.574219 69.488281 454.378906 C 69.449219 454.621094 69.394531 454.851562 69.332031 455.070312 C 69.316406 455.074219 69.300781 455.078125 69.285156 455.078125 C 68.984375 455.125 68.617188 455.132812 68.199219 455.082031 Z M 61.839844 456.992188 C 61.433594 457.289062 60.832031 457.5 60.515625 457.5625 C 60.355469 457.582031 60.359375 457.640625 60.226562 457.683594 C 60.074219 457.71875 59.8125 457.691406 59.488281 457.511719 C 59.328125 457.425781 59.164062 457.3125 59.003906 457.183594 C 59.085938 455.976562 58.753906 454.945312 58.367188 454.210938 C 58.519531 454.214844 58.664062 454.230469 58.816406 454.234375 C 60.117188 454.253906 61.394531 454.121094 62.628906 453.882812 C 62.632812 453.890625 62.632812 453.894531 62.636719 453.902344 C 62.691406 454.082031 62.761719 454.300781 62.84375 454.53125 C 62.835938 454.679688 62.828125 454.828125 62.804688 454.980469 C 62.691406 455.804688 62.320312 456.621094 61.839844 456.992188 Z M 53.304688 457.070312 C 53.152344 457.074219 53.171875 457.125 53.023438 457.152344 C 52.878906 457.175781 52.617188 457.101562 52.34375 456.902344 C 51.773438 456.515625 51.261719 455.78125 50.945312 454.941406 C 50.613281 454.113281 50.417969 453.289062 50.257812 452.71875 C 50.238281 452.636719 50.21875 452.570312 50.199219 452.496094 C 50.195312 452.484375 50.195312 452.46875 50.191406 452.453125 C 50.1875 452.429688 50.175781 452.414062 50.167969 452.386719 C 50.136719 452.261719 50.105469 452.152344 50.078125 452.0625 C 51.652344 452.867188 53.398438 453.484375 55.257812 453.851562 C 55.117188 454.410156 54.960938 455.226562 54.933594 456.253906 C 54.933594 456.335938 54.9375 456.421875 54.9375 456.507812 C 54.835938 456.601562 54.734375 456.6875 54.628906 456.738281 C 54.195312 456.960938 53.589844 457.0625 53.304688 457.070312 Z M 75.171875 444.070312 C 75.175781 444.058594 75.183594 444.042969 75.1875 444.03125 C 75.402344 444.257812 75.621094 444.496094 75.832031 444.753906 C 76.425781 445.453125 76.8125 446.265625 76.851562 446.949219 C 76.878906 447.285156 76.785156 447.527344 76.691406 447.59375 C 76.578125 447.671875 76.5625 447.609375 76.480469 447.71875 C 76.328125 447.9375 75.691406 448.460938 75.066406 448.707031 C 74.363281 448.976562 73.300781 449.007812 72.375 448.933594 C 72.214844 448.921875 72.0625 448.90625 71.910156 448.894531 C 73.410156 447.324219 74.472656 445.625 75.171875 444.070312 Z M 77.152344 436.597656 C 77.71875 434.71875 78.265625 432.046875 78.226562 429.054688 C 78.210938 427.917969 78.109375 426.828125 77.960938 425.808594 C 78.347656 425.640625 78.835938 425.402344 79.367188 425.09375 C 79.550781 426.714844 79.738281 428.441406 79.925781 430.234375 C 80.375 434.550781 80.730469 438.414062 80.960938 441.21875 C 81.160156 443.65625 81.292969 445.277344 81.324219 445.664062 C 81.125 445.222656 80.886719 444.828125 80.625 444.5 C 80.039062 443.765625 79.367188 443.257812 78.6875 442.902344 C 78.011719 442.550781 77.398438 442.390625 76.847656 442.289062 C 76.484375 442.226562 76.164062 442.199219 75.863281 442.1875 C 76.300781 440.734375 76.460938 439.472656 76.492188 438.515625 C 76.683594 438.023438 76.914062 437.382812 77.152344 436.597656 Z M 78.503906 420.046875 C 78.5 419.394531 78.488281 418.679688 78.472656 417.9375 C 78.523438 418.289062 78.570312 418.660156 78.625 419.054688 C 78.75 419.992188 78.886719 421.054688 79.023438 422.191406 C 78.828125 422.402344 78.648438 422.625 78.488281 422.851562 C 78.5 422.070312 78.507812 421.136719 78.503906 420.046875 Z M 78.738281 406.667969 C 79.101562 408.839844 79.492188 410.902344 79.886719 412.835938 C 79.476562 412.972656 79.058594 413.140625 78.648438 413.359375 C 78.539062 413.421875 78.433594 413.484375 78.328125 413.550781 C 78.238281 411.648438 78.105469 409.609375 77.90625 407.46875 C 77.898438 407.394531 77.890625 407.320312 77.882812 407.246094 C 78.164062 407.066406 78.449219 406.875 78.738281 406.667969 Z M 71.535156 394.675781 C 72.070312 394.332031 72.597656 393.917969 73.09375 393.40625 C 73.867188 392.597656 74.5625 391.625 75.023438 390.378906 C 75.050781 390.3125 75.0625 390.234375 75.085938 390.167969 C 75.023438 390.992188 74.914062 392.683594 74.851562 394.996094 C 74.832031 395.679688 74.820312 396.429688 74.816406 397.214844 C 74.136719 398.125 73.59375 399.050781 73.160156 399.90625 C 72.601562 397.582031 71.945312 395.726562 71.535156 394.675781 Z M 78.261719 403.667969 C 78.113281 403.773438 77.964844 403.886719 77.820312 404.007812 C 77.734375 404.078125 77.648438 404.15625 77.566406 404.234375 C 77.34375 402.335938 77.097656 400.539062 76.84375 398.898438 C 77.019531 398.699219 77.191406 398.496094 77.363281 398.285156 C 77.414062 398.226562 77.457031 398.167969 77.507812 398.109375 C 77.722656 399.894531 77.972656 401.757812 78.261719 403.667969 Z M 80.730469 402.3125 C 80.328125 399.863281 79.902344 397.515625 79.476562 395.335938 C 79.59375 395.152344 79.703125 394.972656 79.804688 394.796875 C 80.3125 397.234375 80.792969 399.671875 81.277344 402.113281 C 81.101562 402.171875 80.917969 402.238281 80.730469 402.3125 Z M 79.914062 418.714844 C 79.542969 417.71875 79.1875 416.875 78.886719 416.199219 C 79.238281 416.050781 79.59375 415.882812 79.949219 415.691406 C 80.117188 415.601562 80.265625 415.503906 80.425781 415.40625 C 80.832031 417.285156 81.234375 418.992188 81.605469 420.492188 C 81.304688 420.609375 80.992188 420.75 80.679688 420.917969 C 80.425781 420.121094 80.167969 419.382812 79.914062 418.714844 Z M 82.835938 413.816406 C 82.816406 413.746094 82.792969 413.683594 82.773438 413.613281 C 82.992188 413.40625 83.175781 413.21875 83.332031 413.050781 C 83.769531 415.578125 84.179688 418.109375 84.558594 420.644531 C 84.027344 418.058594 83.421875 415.742188 82.835938 413.816406 Z M 81.785156 404.652344 C 82.289062 407.226562 82.761719 409.804688 83.214844 412.386719 C 82.984375 412.378906 82.707031 412.375 82.390625 412.390625 C 82.261719 411.980469 82.132812 411.601562 82.011719 411.238281 C 81.753906 409.132812 81.449219 406.898438 81.09375 404.578125 C 81.292969 404.363281 81.472656 404.15625 81.644531 403.953125 C 81.691406 404.1875 81.742188 404.417969 81.785156 404.652344 Z M 76.539062 387.839844 C 76.671875 389.824219 76.867188 392.160156 77.128906 394.714844 C 76.847656 394.964844 76.570312 395.222656 76.289062 395.503906 C 76.253906 395.292969 76.214844 395.070312 76.179688 394.867188 C 75.714844 392.242188 75.320312 390.433594 75.1875 389.832031 C 75.511719 388.695312 75.601562 387.316406 75.265625 386.070312 C 75.179688 385.730469 75.066406 385.40625 74.941406 385.089844 C 75.261719 384.789062 75.765625 384.261719 76.292969 383.550781 C 76.34375 384.691406 76.421875 386.140625 76.539062 387.839844 Z M 76.171875 377.632812 C 75.875 378.257812 75.589844 378.953125 75.355469 379.699219 C 74.765625 381.566406 74.613281 383.296875 74.585938 384.351562 C 73.945312 383.136719 73.015625 382.15625 71.945312 381.46875 C 72.113281 381.335938 72.285156 381.191406 72.464844 381.027344 C 73.59375 380.011719 74.972656 378.386719 75.878906 376.257812 C 75.976562 376.714844 76.074219 377.171875 76.171875 377.632812 Z M 73.707031 365.71875 C 74.101562 367.691406 74.515625 369.65625 74.921875 371.621094 C 74.476562 372.691406 73.980469 373.886719 73.449219 375.167969 C 72.613281 377.195312 71.867188 379.015625 71.324219 380.335938 C 71.242188 380.535156 71.164062 380.71875 71.09375 380.898438 C 70.960938 379.027344 70.78125 376.558594 70.554688 373.613281 C 70.925781 373.054688 71.285156 372.457031 71.617188 371.820312 C 72.804688 369.527344 73.390625 367.207031 73.652344 365.425781 C 73.671875 365.523438 73.6875 365.621094 73.707031 365.71875 Z M 69.492188 402.828125 C 69.652344 402.089844 69.730469 401.214844 69.535156 400.316406 C 69.042969 398.027344 67.011719 396.496094 67.011719 396.496094 C 67.011719 396.496094 66.589844 398.078125 66.792969 399.984375 C 66.757812 399.953125 66.730469 399.925781 66.699219 399.898438 C 64.738281 398.234375 62.207031 396.777344 59.308594 395.992188 C 59.695312 395.871094 60.109375 395.714844 60.550781 395.445312 C 61.105469 395.105469 61.683594 394.605469 62.15625 393.890625 C 62.640625 393.160156 62.96875 392.222656 63.03125 391.1875 C 63.085938 390.152344 62.890625 388.988281 62.226562 387.894531 C 61.894531 387.347656 61.460938 386.835938 60.894531 386.394531 C 60.316406 385.945312 59.660156 385.625 58.976562 385.441406 C 57.964844 385.164062 56.925781 385.179688 55.957031 385.453125 C 55.867188 385.335938 55.773438 385.195312 55.671875 385.003906 C 55.363281 384.46875 55.03125 383.652344 54.902344 382.660156 C 54.769531 381.675781 54.875 380.492188 55.28125 379.472656 C 55.492188 378.964844 55.773438 378.511719 56.109375 378.144531 C 56.402344 377.773438 56.84375 377.527344 56.964844 377.496094 C 57.023438 377.484375 56.945312 377.5 56.863281 377.460938 C 56.773438 377.417969 56.847656 377.402344 57.015625 377.507812 C 57.386719 377.765625 57.804688 378.160156 58.117188 378.585938 C 58.78125 379.449219 59.15625 380.53125 59.320312 381.488281 C 59.476562 382.449219 59.410156 383.300781 59.300781 383.890625 C 59.253906 384.1875 59.1875 384.417969 59.140625 384.574219 C 59.097656 384.734375 59.074219 384.820312 59.074219 384.820312 C 59.074219 384.820312 59.160156 384.777344 59.328125 384.703125 C 59.5 384.625 59.75 384.492188 60.039062 384.273438 C 60.621094 383.84375 61.4375 383.035156 61.980469 381.691406 C 62.507812 380.371094 62.789062 378.492188 62.085938 376.453125 C 61.804688 375.671875 61.402344 374.902344 60.796875 374.167969 C 61.113281 372.1875 61.566406 368.65625 61.640625 364.417969 C 61.96875 364.09375 62.359375 363.691406 62.789062 363.203125 C 63.109375 362.839844 63.449219 362.425781 63.792969 361.972656 C 64.167969 365.136719 64.589844 368.007812 64.996094 370.4375 C 64.910156 370.660156 64.816406 370.902344 64.742188 371.109375 C 64.132812 372.75 63.808594 373.792969 63.808594 373.792969 C 63.808594 373.792969 64.429688 373.296875 65.328125 372.363281 C 65.652344 374.183594 65.945312 375.664062 66.167969 376.738281 C 65.449219 378.214844 65.027344 379.152344 65.027344 379.152344 C 65.027344 379.152344 65.597656 378.808594 66.460938 378.109375 C 66.546875 378.5 66.59375 378.710938 66.59375 378.710938 C 66.59375 378.710938 66.601562 378.457031 66.613281 377.984375 C 66.839844 377.792969 67.082031 377.589844 67.34375 377.351562 C 68 376.753906 68.738281 375.992188 69.472656 375.085938 C 69.867188 377.324219 70.226562 379.230469 70.519531 380.753906 C 70.257812 380.65625 69.996094 380.570312 69.726562 380.511719 C 68.488281 380.207031 67.257812 380.320312 66.28125 380.648438 C 65.289062 380.972656 64.503906 381.492188 63.910156 382.046875 C 62.710938 383.171875 62.296875 384.402344 62.1875 385.183594 C 62.136719 385.585938 62.136719 385.882812 62.164062 386.089844 C 62.1875 386.285156 62.203125 386.390625 62.203125 386.390625 C 62.203125 386.390625 62.261719 386.3125 62.378906 386.167969 C 62.484375 386.023438 62.667969 385.824219 62.910156 385.601562 C 63.390625 385.15625 64.183594 384.625 65.203125 384.378906 C 66.21875 384.121094 67.394531 384.195312 68.214844 384.75 C 69.082031 385.261719 69.871094 386.335938 70.105469 387.414062 C 70.226562 387.949219 70.230469 388.382812 70.105469 389.007812 C 69.984375 389.601562 69.722656 390.246094 69.421875 390.808594 C 68.808594 391.957031 67.902344 392.902344 67.019531 393.578125 C 66.132812 394.261719 65.261719 394.679688 64.628906 394.917969 C 64.3125 395.039062 64.058594 395.125 63.882812 395.171875 C 63.703125 395.226562 63.613281 395.257812 63.613281 395.257812 C 63.613281 395.257812 63.707031 395.308594 63.882812 395.402344 C 64.066406 395.5 64.339844 395.621094 64.71875 395.75 C 65.46875 395.996094 66.660156 396.222656 68.179688 395.980469 C 69.0625 395.839844 70.066406 395.523438 71.066406 394.964844 C 70.972656 396.851562 70.878906 400.683594 71.335938 404.96875 C 71.371094 405.273438 71.40625 405.570312 71.441406 405.867188 C 70.929688 404.871094 70.285156 403.847656 69.492188 402.828125 Z M 51.105469 395.785156 C 51.777344 395.371094 52.304688 395.023438 52.835938 394.871094 C 53.183594 394.757812 53.503906 394.726562 53.71875 394.722656 C 53.949219 394.726562 54.066406 394.726562 54.066406 394.726562 C 54.066406 394.726562 53.976562 394.652344 53.804688 394.511719 C 53.628906 394.371094 53.332031 394.191406 52.933594 394.042969 C 52.128906 393.71875 50.929688 393.691406 49.871094 393.617188 C 49.351562 393.578125 48.855469 393.484375 48.667969 393.316406 C 48.472656 393.144531 48.527344 393.050781 48.425781 392.789062 C 48.339844 392.527344 48.214844 392.0625 48.136719 391.484375 C 48.050781 390.886719 48.007812 390.246094 48.039062 389.808594 C 48.074219 389.335938 48.152344 389.242188 48.082031 389.246094 C 47.976562 389.238281 48.089844 389.0625 48.367188 388.972656 C 48.785156 388.75 49.59375 388.941406 50.175781 389.402344 C 50.773438 389.84375 51.125 390.433594 51.292969 390.878906 C 51.367188 391.101562 51.421875 391.296875 51.433594 391.425781 C 51.460938 391.5625 51.472656 391.636719 51.472656 391.636719 C 51.472656 391.636719 51.535156 391.582031 51.660156 391.480469 C 51.789062 391.371094 51.945312 391.191406 52.125 390.90625 C 52.1875 390.804688 52.242188 390.683594 52.296875 390.550781 C 52.398438 391.988281 53.09375 393.078125 53.753906 393.746094 C 54.699219 394.671875 55.628906 395.015625 56.257812 395.234375 C 56.894531 395.441406 57.273438 395.496094 57.273438 395.496094 C 57.273438 395.496094 57.121094 395.191406 56.847656 394.644531 C 56.597656 394.113281 56.246094 393.339844 56.128906 392.527344 C 56.066406 392.117188 56.085938 391.757812 56.167969 391.390625 C 56.253906 391.03125 56.421875 390.730469 56.589844 390.605469 C 56.773438 390.46875 56.820312 390.546875 56.984375 390.527344 C 57.144531 390.519531 57.402344 390.53125 57.597656 390.59375 C 57.695312 390.617188 57.765625 390.652344 57.816406 390.671875 C 57.886719 390.710938 57.976562 390.773438 58.066406 390.855469 C 58.25 391.023438 58.4375 391.3125 58.554688 391.640625 C 58.671875 391.96875 58.738281 392.308594 58.726562 392.652344 C 58.714844 393.019531 58.621094 393.402344 58.480469 393.765625 C 58.195312 394.496094 57.726562 395.105469 57.382812 395.507812 C 57.359375 395.535156 57.339844 395.554688 57.316406 395.578125 C 56.925781 395.519531 56.535156 395.460938 56.136719 395.429688 C 54.4375 395.28125 52.734375 395.410156 51.105469 395.785156 Z M 56.84375 361.730469 C 57.652344 354.269531 58.558594 343.914062 58.984375 332.367188 C 59.105469 329.027344 59.179688 325.777344 59.21875 322.648438 C 59.335938 322.53125 59.460938 322.40625 59.59375 322.269531 C 59.703125 325.339844 59.882812 328.171875 60.082031 330.636719 C 59.277344 333.078125 58.902344 334.691406 58.902344 334.691406 C 58.902344 334.691406 59.460938 334.089844 60.292969 333.019531 C 60.632812 336.5625 60.972656 339.039062 61.097656 339.914062 C 60.878906 340.464844 60.671875 340.984375 60.492188 341.449219 C 59.835938 343.121094 59.46875 344.1875 59.46875 344.1875 C 59.46875 344.1875 60.410156 343.460938 61.671875 342.070312 C 61.972656 341.738281 62.289062 341.363281 62.613281 340.957031 C 62.609375 342.5 62.628906 344.214844 62.675781 346.058594 C 61.894531 347.925781 61.171875 349.644531 60.5625 351.105469 C 59.988281 347.832031 59.398438 345.742188 59.398438 345.742188 C 59.398438 345.742188 58.980469 349.664062 58.894531 355.132812 C 58.742188 355.523438 58.652344 355.746094 58.652344 355.746094 C 58.652344 355.746094 58.742188 355.675781 58.890625 355.546875 C 58.871094 357.269531 58.882812 359.132812 58.953125 361.070312 C 59.140625 366.285156 59.695312 370.785156 60.085938 373.421875 C 59.582031 372.980469 58.882812 372.515625 57.949219 372.300781 C 57.125 372.101562 56.273438 372.167969 55.542969 372.367188 C 55.804688 370.484375 56.296875 366.769531 56.84375 361.730469 Z M 59.332031 292.042969 C 60.5 290.265625 61.996094 287.78125 63.320312 284.871094 C 63.902344 283.589844 64.398438 282.339844 64.828125 281.152344 C 64.894531 283.171875 64.957031 285.191406 65.035156 287.207031 C 64.863281 287.558594 64.667969 287.949219 64.453125 288.382812 C 63.574219 290.191406 62.363281 292.644531 61.097656 295.328125 C 60.914062 295.714844 60.734375 296.097656 60.558594 296.472656 C 60.550781 296.414062 60.546875 296.378906 60.546875 296.378906 C 60.546875 296.378906 60.539062 296.4375 60.527344 296.542969 C 59.9375 297.808594 59.394531 298.996094 58.914062 300.066406 C 58.800781 297.175781 58.679688 294.828125 58.582031 293.152344 C 58.8125 292.820312 59.0625 292.453125 59.332031 292.042969 Z M 65.453125 317.695312 C 65.328125 316.472656 65.207031 315.332031 65.09375 314.273438 C 65.609375 313.144531 66.027344 312.03125 66.363281 310.972656 C 66.496094 312.785156 66.621094 314.597656 66.773438 316.410156 C 66.402344 317.007812 65.984375 317.699219 65.535156 318.480469 C 65.507812 318.21875 65.480469 317.953125 65.453125 317.695312 Z M 61.785156 309.109375 C 62.742188 307.980469 63.761719 306.527344 64.558594 304.792969 C 65.089844 303.640625 65.464844 302.488281 65.730469 301.40625 C 65.835938 303.183594 65.929688 304.960938 66.046875 306.734375 C 65.613281 307.527344 65.109375 308.453125 64.570312 309.46875 C 64.324219 307.246094 64.179688 305.992188 64.179688 305.992188 C 64.179688 305.992188 64.132812 307.574219 64.109375 310.347656 C 63.566406 311.386719 63 312.503906 62.429688 313.675781 C 62.304688 313.9375 62.183594 314.195312 62.058594 314.453125 C 61.988281 312.582031 61.894531 310.789062 61.785156 309.109375 Z M 59.214844 311.617188 C 59.3125 311.542969 59.425781 311.449219 59.546875 311.347656 C 59.488281 313.644531 59.460938 316.105469 59.5 318.65625 C 59.507812 319.15625 59.519531 319.644531 59.53125 320.132812 C 59.453125 320.324219 59.375 320.511719 59.300781 320.691406 C 59.277344 320.742188 59.257812 320.789062 59.238281 320.84375 C 59.265625 317.59375 59.253906 314.503906 59.214844 311.617188 Z M 59.601562 309.6875 C 59.449219 310.078125 59.316406 310.429688 59.203125 310.730469 C 59.160156 307.910156 59.09375 305.308594 59.019531 302.964844 C 59.050781 302.929688 59.078125 302.902344 59.109375 302.867188 C 59.40625 302.558594 59.71875 302.203125 60.039062 301.824219 C 59.875 303.976562 59.707031 306.65625 59.601562 309.6875 Z M 65.476562 297.046875 C 65.324219 297.332031 65.148438 297.65625 64.960938 298.015625 C 64.183594 299.496094 63.140625 301.507812 62.109375 303.734375 C 61.890625 304.207031 61.6875 304.664062 61.488281 305.117188 C 61.339844 303.371094 61.1875 301.824219 61.050781 300.539062 C 61.921875 299.359375 62.800781 297.972656 63.542969 296.394531 C 64.332031 294.714844 64.867188 293.042969 65.226562 291.53125 C 65.308594 293.367188 65.382812 295.207031 65.476562 297.046875 Z M 62.632812 324.101562 C 62.457031 324.484375 62.289062 324.867188 62.125 325.242188 C 62.171875 323.335938 62.191406 321.316406 62.171875 319.214844 C 62.824219 318.328125 63.488281 317.316406 64.113281 316.203125 C 64.117188 316.753906 64.121094 317.3125 64.128906 317.898438 C 64.140625 318.867188 64.15625 319.886719 64.179688 320.949219 C 63.664062 321.933594 63.136719 322.992188 62.632812 324.101562 Z M 63.214844 334.898438 C 62.976562 333.507812 62.824219 332.722656 62.824219 332.722656 C 62.824219 332.722656 62.75 333.960938 62.6875 336.097656 C 62.144531 337.355469 61.65625 338.535156 61.230469 339.585938 C 61.371094 338.253906 61.683594 335.070312 61.910156 330.777344 C 62.695312 329.617188 63.542969 328.226562 64.34375 326.667969 C 64.40625 328.355469 64.484375 330.117188 64.574219 331.9375 C 64.136719 332.871094 63.679688 333.859375 63.214844 334.898438 Z M 64.332031 342.195312 C 64.203125 341.25 64.070312 340.34375 63.949219 339.515625 C 63.933594 339.398438 63.914062 339.289062 63.898438 339.175781 C 64.242188 338.652344 64.578125 338.089844 64.902344 337.492188 C 64.964844 338.453125 65.03125 339.417969 65.105469 340.398438 C 64.863281 340.964844 64.601562 341.566406 64.332031 342.195312 Z M 65.570312 346.007812 C 65.578125 346.074219 65.582031 346.140625 65.589844 346.207031 C 65.761719 348.082031 65.949219 349.914062 66.140625 351.710938 C 65.964844 352.09375 65.78125 352.480469 65.59375 352.894531 C 65.410156 350.964844 65.207031 349.109375 65 347.359375 C 65.101562 347.132812 65.207031 346.910156 65.308594 346.675781 C 65.402344 346.453125 65.484375 346.230469 65.570312 346.007812 Z M 61.652344 362.457031 C 61.644531 361.9375 61.632812 361.40625 61.613281 360.867188 C 61.519531 358.199219 61.253906 355.695312 60.945312 353.515625 C 60.972656 353.480469 61.003906 353.449219 61.035156 353.414062 C 61.605469 352.769531 62.238281 351.980469 62.867188 351.070312 C 62.953125 352.71875 63.0625 354.421875 63.207031 356.164062 C 63.261719 356.789062 63.316406 357.398438 63.375 358.003906 C 62.683594 359.703125 62.101562 361.234375 61.652344 362.457031 Z M 68.839844 371.390625 C 67.992188 373.03125 67.246094 374.535156 66.636719 375.78125 C 66.640625 374.746094 66.636719 373.46875 66.617188 371.984375 C 66.609375 371.648438 66.605469 371.285156 66.597656 370.929688 C 67.171875 370.222656 67.78125 369.398438 68.363281 368.453125 C 68.523438 369.472656 68.683594 370.449219 68.839844 371.390625 Z M 67.6875 363.953125 C 67.5625 364.234375 67.433594 364.5 67.308594 364.785156 C 67.015625 365.4375 66.742188 366.070312 66.484375 366.6875 C 66.394531 364.160156 66.257812 361.351562 66.046875 358.367188 C 66.246094 357.972656 66.441406 357.566406 66.621094 357.144531 C 66.664062 357.046875 66.699219 356.949219 66.738281 356.851562 C 67.046875 359.335938 67.367188 361.710938 67.6875 363.953125 Z M 43.621094 454.859375 Z M 38.777344 468.839844 C 38.949219 469.007812 39.117188 469.175781 39.296875 469.34375 C 40.761719 470.675781 42.476562 472.019531 44.402344 473.214844 C 43.152344 473.550781 42.09375 473.945312 41.316406 474.277344 C 40.726562 473.988281 40.222656 473.746094 39.859375 473.5625 C 39.40625 473.34375 39.152344 473.222656 39.152344 473.222656 C 39.152344 473.222656 39.257812 473.382812 39.441406 473.660156 C 37.980469 472.019531 36.695312 470.210938 35.589844 468.300781 C 35.523438 468.183594 35.464844 468.058594 35.398438 467.9375 C 36.359375 468.25 37.503906 468.570312 38.777344 468.839844 Z M 48.199219 475.210938 C 48.863281 475.511719 49.527344 475.789062 50.164062 476.027344 C 48.910156 476.300781 47.820312 476.667969 47 476.992188 C 45.707031 476.375 44.496094 475.796875 43.417969 475.28125 C 44.78125 475.347656 46.433594 475.359375 48.199219 475.210938 Z M 113.539062 91.898438 C 113.242188 81.335938 111.90625 70.726562 109.125 60.417969 C 107.726562 55.253906 106.039062 50.230469 103.871094 45.238281 C 101.695312 40.273438 99.015625 35.5625 96 31.117188 C 89.964844 22.210938 82.523438 14.457031 74.402344 7.710938 C 73.398438 6.855469 72.359375 6.039062 71.324219 5.222656 L 70.550781 4.609375 C 70.285156 4.402344 69.914062 4.164062 69.601562 3.949219 C 68.933594 3.519531 68.308594 3.035156 67.601562 2.667969 C 64.820312 1.082031 61.617188 0.246094 58.511719 0.0429688 C 55.386719 -0.15625 52.351562 0.28125 49.519531 1.085938 C 48.097656 1.488281 46.726562 1.992188 45.390625 2.578125 C 44.050781 3.175781 42.761719 3.800781 41.398438 4.726562 C 32.421875 10.738281 24.785156 18.523438 18.761719 27.289062 C 12.6875 36.132812 8.125 45.917969 5.15625 56.046875 C 2.167969 66.179688 0.578125 76.605469 0.144531 86.988281 C -0.0820312 92.179688 -0.0351562 97.367188 0.238281 102.523438 C 0.515625 107.679688 1.019531 112.839844 1.890625 117.960938 C 3.609375 128.175781 6.78125 138.335938 12.335938 147.289062 C 17.878906 156.179688 25.796875 163.75 35.472656 168.058594 C 36.066406 168.347656 36.6875 168.578125 37.304688 168.816406 C 37.925781 169.039062 38.527344 169.316406 39.160156 169.496094 L 41 170.070312 C 41.378906 170.183594 41.804688 170.265625 42.210938 170.367188 L 42.828125 170.511719 C 42.960938 170.664062 43.027344 170.875 43.109375 171.0625 C 43.265625 171.449219 43.390625 171.851562 43.511719 172.257812 L 43.683594 172.882812 L 43.894531 173.738281 C 44.03125 174.328125 44.164062 174.921875 44.285156 175.523438 C 45.261719 180.332031 45.902344 185.292969 46.480469 190.242188 C 47.621094 200.148438 48.253906 210.113281 48.410156 220.085938 C 48.542969 230.09375 48.65625 240.109375 48.683594 250.117188 C 48.730469 270.128906 48.445312 290.148438 47.035156 310.144531 C 46.335938 320.140625 45.363281 330.128906 44.03125 340.078125 C 42.71875 350.035156 40.976562 359.941406 38.976562 369.824219 C 35.011719 389.589844 30.292969 409.347656 27.925781 429.679688 C 27.371094 434.765625 26.882812 439.855469 26.671875 445.011719 C 26.480469 450.160156 26.671875 455.46875 28.136719 460.625 C 28.902344 463.164062 29.867188 465.652344 31.105469 468.019531 C 32.382812 470.371094 33.894531 472.601562 35.65625 474.648438 C 39.234375 478.671875 43.882812 481.941406 49.195312 483.496094 C 51.582031 484.257812 53.664062 484.367188 55.199219 484.316406 C 56.738281 484.253906 57.757812 483.921875 58.21875 483.675781 C 58.679688 483.402344 58.582031 483.109375 57.929688 482.855469 C 57.277344 482.578125 56.066406 482.445312 54.285156 482.089844 C 52.78125 481.832031 51.3125 481.425781 49.894531 480.890625 C 50.992188 481.152344 52.003906 481.28125 52.84375 481.328125 C 53.695312 481.378906 54.378906 481.367188 54.851562 481.328125 C 55.320312 481.285156 55.578125 481.265625 55.578125 481.265625 C 55.578125 481.265625 55.332031 481.136719 54.898438 480.914062 C 54.464844 480.699219 53.84375 480.394531 53.085938 480.019531 C 52.128906 479.539062 50.933594 478.945312 49.617188 478.289062 C 50.667969 478.355469 51.84375 478.382812 53.074219 478.316406 C 54.589844 478.234375 55.976562 478.023438 57.132812 477.792969 C 57.65625 477.867188 58.121094 477.917969 58.5 477.941406 C 59.296875 478 59.738281 478.03125 59.738281 478.03125 C 59.738281 478.03125 59.320312 477.851562 58.566406 477.53125 C 58.539062 477.519531 58.503906 477.503906 58.472656 477.492188 C 59.703125 477.1875 60.449219 476.914062 60.449219 476.914062 C 60.449219 476.914062 57.8125 475.769531 54.347656 475.644531 C 53.695312 475.328125 53.003906 474.984375 52.277344 474.613281 C 54.738281 474.097656 56.347656 473.492188 56.347656 473.492188 C 56.347656 473.492188 52.800781 472.234375 48.449219 472.523438 C 47.566406 472.015625 46.660156 471.476562 45.738281 470.910156 C 44.96875 470.429688 44.21875 469.945312 43.492188 469.46875 C 45.78125 469.59375 47.824219 469.445312 49.339844 469.238281 C 51.140625 468.996094 52.21875 468.703125 52.21875 468.703125 C 52.21875 468.703125 51.09375 468.332031 49.3125 467.90625 C 47.527344 467.480469 45.105469 466.980469 42.402344 466.714844 C 41.308594 466.605469 40.25 466.546875 39.25 466.515625 C 38.289062 465.804688 37.402344 465.128906 36.640625 464.5 C 36.058594 464.054688 35.566406 463.609375 35.113281 463.234375 C 34.65625 462.863281 34.273438 462.527344 33.96875 462.242188 C 33.332031 461.691406 32.976562 461.386719 32.976562 461.386719 C 32.976562 461.386719 33.21875 461.789062 33.648438 462.515625 C 33.863281 462.882812 34.140625 463.316406 34.492188 463.804688 C 34.835938 464.300781 35.222656 464.867188 35.703125 465.449219 C 35.960938 465.789062 36.25 466.140625 36.558594 466.496094 C 36.125 466.503906 35.707031 466.511719 35.324219 466.527344 C 35.105469 466.53125 34.898438 466.542969 34.699219 466.550781 C 33.238281 463.507812 32.179688 460.234375 31.65625 456.921875 C 31.035156 452.925781 31.121094 448.730469 31.460938 444.402344 C 32.902344 426.878906 36.742188 408.894531 40.933594 390.351562 C 43.023438 381.070312 45.1875 371.621094 47.085938 361.941406 C 49.011719 352.265625 50.542969 342.355469 51.734375 332.386719 C 54.117188 312.425781 55.136719 292.109375 55.425781 271.796875 C 55.574219 261.640625 55.554688 251.476562 55.460938 241.335938 C 55.398438 236.269531 55.339844 231.207031 55.277344 226.144531 C 55.210938 221.125 55.136719 215.941406 54.875 210.835938 C 54.382812 200.578125 53.410156 190.433594 51.871094 180.320312 C 51.472656 177.773438 51.019531 175.226562 50.421875 172.613281 L 50.179688 171.621094 L 50.007812 170.976562 L 49.796875 170.199219 C 49.5 169.164062 49.152344 168.105469 48.691406 167.167969 C 48.042969 164.941406 45.527344 164.828125 43.6875 164.003906 L 41.660156 163.390625 C 41.132812 163.242188 40.613281 163.054688 40.101562 162.851562 C 39.058594 162.488281 38.050781 162.027344 37.042969 161.566406 C 35.054688 160.582031 33.09375 159.511719 31.273438 158.191406 C 29.4375 156.902344 27.671875 155.492188 26.042969 153.921875 C 24.390625 152.382812 22.859375 150.703125 21.441406 148.9375 C 18.570312 145.410156 16.238281 141.511719 14.300781 137.367188 C 10.457031 129.058594 8.382812 119.960938 7.320312 110.832031 C 5.308594 92.484375 6.378906 74.109375 11.417969 57.640625 C 13.042969 52.304688 15.113281 47.121094 17.597656 42.144531 C 20.105469 37.175781 23.0625 32.4375 26.417969 28.007812 C 29.808594 23.609375 33.605469 19.523438 37.804688 15.902344 C 39.929688 14.128906 42.089844 12.386719 44.40625 10.867188 L 45.261719 10.277344 L 45.460938 10.140625 L 45.617188 10.046875 L 46.015625 9.820312 C 46.566406 9.519531 47.148438 9.21875 47.742188 8.960938 C 48.925781 8.414062 50.160156 7.972656 51.40625 7.621094 C 53.898438 6.933594 56.460938 6.644531 58.902344 6.9375 C 61.34375 7.222656 63.644531 8.125 65.636719 9.574219 C 66.132812 9.875 66.699219 10.351562 67.246094 10.789062 L 68.898438 12.113281 C 69.96875 13.027344 71.074219 13.90625 72.117188 14.855469 C 74.246094 16.703125 76.28125 18.648438 78.269531 20.636719 C 82.226562 24.632812 85.855469 28.9375 89.101562 33.503906 C 92.304688 38.089844 95.101562 42.957031 97.339844 48.066406 C 101.730469 58.359375 104.347656 69.488281 105.511719 80.726562 C 106.085938 86.355469 106.34375 92.027344 106.253906 97.699219 C 106.167969 103.378906 105.835938 109.058594 105.085938 114.652344 C 104.355469 120.25 103.183594 125.769531 101.46875 131.089844 C 99.730469 136.390625 97.441406 141.523438 94.433594 146.148438 C 91.425781 150.777344 87.738281 154.980469 83.449219 158.402344 C 81.3125 160.121094 79.035156 161.660156 76.617188 162.921875 C 76.03125 163.265625 75.402344 163.53125 74.792969 163.828125 C 74.179688 164.132812 73.5625 164.40625 72.925781 164.644531 C 72.289062 164.886719 71.671875 165.175781 71.023438 165.363281 L 69.78125 165.769531 C 69.289062 165.902344 68.800781 166.054688 68.3125 166.175781 L 67.378906 168.941406 L 67.277344 169.1875 L 67.011719 169.375 L 66.472656 169.75 C 66.285156 169.839844 66.140625 170.074219 65.992188 170.296875 L 65.546875 170.957031 L 65.097656 171.613281 C 65.042969 171.734375 64.90625 171.8125 64.917969 171.964844 L 64.902344 172.398438 L 64.875 173.164062 C 63.832031 174.085938 62.664062 175.222656 61.539062 176.546875 C 58.378906 180.253906 56.84375 183.882812 56.84375 183.882812 C 56.84375 183.882812 60.503906 181.867188 63.609375 178.230469 C 64.015625 177.75 64.394531 177.261719 64.75 176.777344 L 64.652344 179.761719 C 64.167969 180.507812 63.652344 181.296875 63.113281 182.125 C 60.621094 185.957031 58.625 189.023438 58.625 189.023438 C 58.625 189.023438 59.59375 188.710938 60.953125 187.859375 C 62.023438 187.195312 63.332031 186.152344 64.492188 184.734375 L 64.441406 186.351562 C 64.429688 186.722656 64.421875 187.097656 64.410156 187.46875 C 64.042969 188.035156 63.667969 188.617188 63.285156 189.234375 C 62.148438 191.046875 61.183594 192.714844 60.472656 193.941406 C 59.765625 195.167969 59.34375 195.964844 59.34375 195.964844 C 59.34375 195.964844 60.253906 195.625 61.511719 194.777344 C 62.355469 194.214844 63.34375 193.378906 64.273438 192.316406 C 64.269531 192.492188 64.265625 192.664062 64.261719 192.839844 C 63.46875 194 62.539062 195.429688 61.632812 197.023438 C 60.519531 198.984375 59.65625 200.820312 59.0625 202.179688 C 58.46875 203.535156 58.15625 204.410156 58.15625 204.410156 C 58.15625 204.410156 59.019531 203.90625 60.191406 202.886719 C 61.363281 201.871094 62.832031 200.316406 63.980469 198.289062 C 64.035156 198.191406 64.074219 198.09375 64.128906 197.996094 C 64.09375 199.394531 64.066406 200.792969 64.035156 202.191406 C 63.863281 202.507812 63.6875 202.828125 63.511719 203.15625 C 62.414062 205.203125 61.433594 207.035156 60.71875 208.367188 C 60 209.710938 59.5625 210.570312 59.5625 210.570312 C 59.5625 210.570312 60.503906 210.148438 61.796875 209.152344 C 62.457031 208.648438 63.203125 207.976562 63.933594 207.148438 C 63.933594 207.304688 63.929688 207.460938 63.929688 207.617188 C 63.832031 207.789062 63.730469 207.957031 63.640625 208.140625 C 62.316406 210.789062 62.171875 213.316406 62.171875 213.316406 C 62.171875 213.316406 62.949219 212.898438 63.871094 212.074219 C 63.855469 213.503906 63.84375 214.929688 63.839844 216.359375 C 63.828125 219.71875 63.886719 223.0625 63.929688 226.375 L 64.148438 246.328125 C 64.234375 253.789062 64.339844 261.257812 64.496094 268.726562 C 64.46875 268.785156 64.441406 268.839844 64.414062 268.898438 C 63.609375 270.5625 62.523438 272.820312 61.449219 275.316406 C 61.445312 275.324219 61.441406 275.335938 61.4375 275.34375 C 61.480469 275.011719 61.515625 274.667969 61.542969 274.320312 C 61.742188 271.722656 61.394531 269.332031 60.980469 267.625 C 60.570312 265.914062 60.117188 264.878906 60.117188 264.878906 C 60.117188 264.878906 59.902344 265.953125 59.648438 267.652344 C 59.390625 269.351562 59.074219 271.660156 58.878906 274.179688 C 58.683594 276.699219 58.644531 278.96875 58.644531 280.621094 C 58.644531 281.316406 58.65625 281.898438 58.671875 282.34375 C 58.191406 283.664062 57.929688 284.480469 57.929688 284.480469 C 57.929688 284.480469 58.851562 283.75 60.074219 282.359375 C 61.296875 280.96875 62.8125 278.894531 63.925781 276.308594 C 64.195312 275.675781 64.429688 275.046875 64.628906 274.429688 C 64.652344 275.246094 64.667969 276.066406 64.691406 276.886719 C 63.53125 278.671875 62.113281 281.082031 60.859375 283.839844 C 59.757812 286.265625 58.964844 288.558594 58.410156 290.425781 C 58.402344 290.296875 58.394531 290.222656 58.394531 290.222656 C 58.394531 290.222656 58.386719 290.339844 58.375 290.539062 C 58.269531 290.902344 58.167969 291.253906 58.078125 291.582031 C 57.53125 293.601562 57.316406 294.875 57.316406 294.875 C 57.316406 294.875 57.648438 294.460938 58.183594 293.714844 C 58.054688 295.894531 57.875 299.015625 57.671875 302.84375 C 57.054688 304.238281 56.699219 305.09375 56.699219 305.09375 C 56.699219 305.09375 57.042969 304.835938 57.589844 304.347656 C 57.191406 311.886719 56.710938 321.8125 56.308594 332.5625 C 55.882812 344.09375 55.640625 354.390625 55.503906 361.808594 C 55.40625 366.855469 55.367188 370.566406 55.351562 372.425781 C 55.285156 372.445312 55.210938 372.460938 55.148438 372.484375 C 53.53125 373.097656 52.542969 374.160156 51.894531 375.261719 C 51.242188 376.359375 50.933594 377.535156 50.867188 378.613281 C 50.75 380.789062 51.53125 382.558594 52.445312 383.695312 C 53.371094 384.855469 54.410156 385.402344 55.117188 385.625 C 55.203125 385.65625 55.269531 385.667969 55.347656 385.6875 C 55.222656 385.738281 55.09375 385.773438 54.972656 385.835938 C 53.796875 386.398438 52.867188 387.535156 52.527344 388.617188 C 52.496094 388.386719 52.457031 388.148438 52.382812 387.898438 C 52.179688 387.226562 51.804688 386.492188 51.140625 385.832031 C 50.496094 385.175781 49.472656 384.625 48.285156 384.472656 C 47.703125 384.402344 47.066406 384.425781 46.398438 384.601562 C 45.734375 384.769531 45.003906 385.144531 44.417969 385.683594 C 43.828125 386.222656 43.390625 386.921875 43.125 387.597656 C 42.859375 388.277344 42.746094 388.945312 42.710938 389.566406 C 42.652344 390.8125 42.875 391.824219 43.199219 392.78125 C 43.539062 393.746094 44.046875 394.742188 44.90625 395.59375 C 45.332031 396.011719 45.855469 396.378906 46.421875 396.609375 C 46.945312 396.820312 47.488281 396.910156 47.96875 396.90625 C 46.792969 397.488281 45.714844 398.203125 44.839844 399.007812 C 43.476562 400.234375 42.480469 401.554688 41.644531 402.785156 C 40.824219 404.023438 40.128906 405.199219 39.546875 406.34375 C 38.386719 408.625 37.917969 410.710938 37.949219 412.085938 C 37.945312 412.773438 38.03125 413.289062 38.101562 413.628906 C 38.191406 413.960938 38.234375 414.136719 38.234375 414.136719 C 38.234375 414.136719 38.269531 413.964844 38.332031 413.632812 C 38.40625 413.304688 38.527344 412.828125 38.765625 412.246094 C 39.21875 411.078125 40.1875 409.542969 41.757812 407.84375 C 42.53125 406.996094 43.46875 406.058594 44.460938 405.109375 C 45.453125 404.167969 46.511719 403.246094 47.65625 402.519531 C 49.875 401.0625 52.730469 400.460938 55.851562 400.757812 C 58.960938 401.042969 61.835938 402.191406 64.214844 403.65625 C 66.589844 405.140625 68.484375 406.945312 69.84375 408.652344 C 71.222656 410.359375 72.105469 411.949219 72.644531 413.082031 C 72.753906 413.296875 72.835938 413.480469 72.914062 413.660156 C 73.246094 414.941406 73.484375 415.691406 73.484375 415.691406 C 73.484375 415.691406 74.628906 410.675781 73.980469 404.609375 C 73.886719 403.738281 73.761719 402.894531 73.613281 402.085938 C 73.996094 401.761719 74.414062 401.386719 74.855469 400.96875 C 74.910156 402.914062 75.019531 405.019531 75.210938 407.207031 C 74.621094 408.25 74.359375 409.039062 74.359375 409.039062 C 74.359375 409.039062 74.738281 408.90625 75.34375 408.632812 C 75.589844 411.054688 75.90625 413.320312 76.246094 415.359375 C 75.394531 416.359375 74.960938 417.25 74.960938 417.25 C 74.960938 417.25 75.59375 417.191406 76.53125 416.972656 C 76.75 418.183594 76.976562 419.304688 77.1875 420.289062 C 77.492188 421.691406 77.769531 422.828125 77.984375 423.671875 C 77.871094 423.878906 77.773438 424.082031 77.683594 424.277344 C 77.464844 423.226562 77.203125 422.269531 76.941406 421.464844 C 76.316406 419.5625 75.726562 418.433594 75.726562 418.433594 C 75.726562 418.433594 75.660156 419.683594 75.617188 421.640625 C 75.578125 423.605469 75.523438 426.269531 75.558594 429.160156 C 75.597656 432.054688 75.714844 434.644531 75.820312 436.53125 C 75.84375 436.976562 75.867188 437.378906 75.890625 437.738281 C 75.824219 437.910156 75.753906 438.089844 75.671875 438.28125 C 75.15625 439.503906 74.242188 441.160156 72.8125 442.824219 C 71.375 444.472656 69.402344 446.121094 66.996094 447.246094 C 64.617188 448.382812 61.757812 448.964844 58.722656 448.898438 C 55.691406 448.820312 52.785156 448.144531 50.300781 446.980469 C 47.792969 445.824219 45.65625 444.257812 43.988281 442.71875 C 42.328125 441.167969 41.101562 439.667969 40.304688 438.570312 C 39.914062 438.023438 39.601562 437.582031 39.410156 437.277344 C 39.203125 436.972656 39.09375 436.808594 39.09375 436.808594 C 39.09375 436.808594 39.128906 437 39.195312 437.359375 C 39.253906 437.722656 39.375 438.246094 39.550781 438.925781 C 39.914062 440.269531 40.59375 442.203125 41.910156 444.386719 C 43.222656 446.558594 45.226562 448.972656 48.113281 450.921875 C 48.601562 451.246094 49.121094 451.550781 49.652344 451.839844 C 49.597656 452.003906 49.507812 452.21875 49.359375 452.441406 C 49.027344 452.953125 48.421875 453.382812 47.675781 453.707031 C 46.9375 454.027344 46.003906 454.359375 45.144531 454.558594 C 44.71875 454.652344 44.3125 454.703125 44.03125 454.695312 C 43.902344 454.683594 43.804688 454.667969 43.761719 454.640625 C 43.757812 454.652344 43.746094 454.671875 43.726562 454.695312 C 43.730469 454.691406 43.734375 454.683594 43.738281 454.679688 L 43.75 454.660156 L 43.753906 454.652344 L 43.757812 454.648438 C 43.734375 454.6875 43.75 454.660156 43.761719 454.640625 C 43.761719 454.640625 43.753906 454.640625 43.753906 454.636719 C 43.722656 454.636719 43.726562 454.605469 43.71875 454.621094 L 43.703125 454.71875 C 43.703125 454.726562 43.699219 454.730469 43.699219 454.734375 C 43.582031 454.707031 43.390625 454.511719 43.25 454.242188 C 43.109375 453.953125 42.984375 453.664062 42.949219 453.265625 C 42.921875 452.902344 42.953125 452.507812 43.007812 452.117188 C 43.394531 451.378906 43.492188 450.667969 43.457031 450.171875 C 43.457031 450.15625 43.453125 450.148438 43.453125 450.132812 C 43.484375 450.011719 43.515625 449.894531 43.542969 449.789062 C 43.691406 449.226562 43.753906 448.890625 43.753906 448.890625 C 43.753906 448.890625 43.46875 448.976562 42.96875 449.1875 C 42.46875 449.402344 41.738281 449.71875 40.886719 450.398438 C 40.753906 450.511719 40.617188 450.636719 40.480469 450.769531 C 40.246094 450.75 40.023438 450.714844 39.824219 450.636719 C 39.492188 450.53125 39.1875 450.386719 38.863281 450.214844 C 38.523438 450.03125 38.171875 449.839844 37.804688 449.644531 C 37.625 449.542969 37.371094 449.421875 37.246094 449.339844 C 37.207031 449.316406 37.203125 449.3125 37.1875 449.296875 C 37.152344 449.191406 37.121094 449.066406 37.105469 448.921875 C 37.035156 448.320312 37.265625 447.515625 37.660156 446.859375 C 38.050781 446.199219 38.628906 445.679688 39.128906 445.386719 C 39.378906 445.230469 39.597656 445.136719 39.753906 445.074219 C 39.914062 445.007812 40 444.972656 40 444.972656 C 40 444.972656 39.929688 444.929688 39.792969 444.847656 C 39.652344 444.765625 39.441406 444.648438 39.140625 444.550781 C 38.554688 444.351562 37.589844 444.191406 36.441406 444.484375 C 35.316406 444.785156 33.960938 445.5 33.027344 447.019531 C 32.5625 447.769531 32.246094 448.738281 32.214844 449.785156 C 32.207031 450.3125 32.269531 450.898438 32.496094 451.539062 C 32.710938 452.164062 33.175781 452.890625 33.777344 453.382812 C 34.363281 453.871094 34.90625 454.097656 35.328125 454.253906 C 35.738281 454.398438 36.066406 454.484375 36.453125 454.566406 C 37.183594 454.71875 37.949219 454.777344 38.714844 454.714844 C 38.691406 455.480469 38.808594 456.316406 39.226562 457.183594 C 39.488281 457.71875 39.867188 458.257812 40.378906 458.703125 C 40.898438 459.152344 41.46875 459.476562 42.121094 459.691406 C 43.4375 460.101562 44.695312 459.902344 45.574219 459.558594 C 46.476562 459.214844 47.152344 458.742188 47.703125 458.261719 C 47.832031 458.144531 47.9375 458.027344 48.054688 457.90625 C 48.125 458.277344 48.226562 458.660156 48.386719 459.046875 C 48.730469 459.894531 49.339844 460.804688 50.320312 461.488281 C 50.796875 461.824219 51.40625 462.09375 52.015625 462.253906 C 52.628906 462.398438 53.257812 462.4375 53.859375 462.378906 C 54.960938 462.246094 55.914062 461.839844 56.703125 461.265625 C 57.105469 461.6875 57.597656 462.078125 58.199219 462.371094 C 59.296875 462.933594 60.699219 463.03125 61.855469 462.722656 C 63.949219 462.15625 65.351562 460.667969 65.953125 458.953125 C 66 458.988281 66.046875 459.027344 66.097656 459.066406 C 66.769531 459.53125 67.621094 459.941406 68.605469 460.136719 C 69.101562 460.238281 69.605469 460.265625 70.144531 460.257812 C 70.394531 460.242188 70.683594 460.207031 70.996094 460.136719 C 70.988281 460.234375 70.980469 460.332031 70.972656 460.449219 C 70.9375 461.042969 70.855469 461.898438 70.734375 462.933594 C 70.621094 463.941406 70.449219 465.117188 70.214844 466.394531 C 69.160156 466.695312 68.175781 466.964844 67.300781 467.171875 C 66.824219 467.289062 66.390625 467.394531 65.980469 467.492188 C 65.933594 467.328125 65.882812 467.171875 65.832031 467.023438 C 65.390625 465.730469 64.890625 464.992188 64.890625 464.992188 C 64.890625 464.992188 64.726562 465.8125 64.5 467.070312 C 64.457031 467.3125 64.40625 467.585938 64.359375 467.855469 C 64.339844 467.859375 64.3125 467.867188 64.292969 467.871094 C 63.566406 468.03125 63.164062 468.125 63.164062 468.125 C 63.164062 468.125 63.566406 468.183594 64.28125 468.28125 C 64.09375 469.332031 63.878906 470.542969 63.679688 471.828125 C 63.398438 473.648438 63.203125 475.296875 63.058594 476.523438 C 62.914062 477.742188 62.847656 478.53125 62.847656 478.53125 C 62.847656 478.53125 63.53125 477.996094 64.332031 476.917969 C 65.128906 475.847656 66.015625 474.1875 66.324219 472.183594 C 66.527344 470.835938 66.433594 469.546875 66.214844 468.457031 C 66.601562 468.476562 67.011719 468.492188 67.457031 468.496094 C 68.171875 468.515625 68.960938 468.492188 69.800781 468.429688 C 69.671875 469.019531 69.527344 469.621094 69.375 470.234375 C 69.003906 470.582031 68.796875 470.808594 68.796875 470.808594 C 68.796875 470.808594 68.960938 470.792969 69.242188 470.757812 C 68.480469 473.699219 67.578125 476.28125 66.832031 478.144531 C 66.457031 479.070312 66.140625 479.828125 65.902344 480.339844 C 65.675781 480.863281 65.550781 481.152344 65.550781 481.152344 C 65.550781 481.152344 65.808594 480.949219 66.257812 480.558594 C 66.714844 480.171875 67.328125 479.566406 68.019531 478.753906 C 69.015625 477.582031 70.132812 475.90625 70.996094 473.855469 C 71.246094 473.898438 71.542969 473.941406 71.878906 473.972656 C 72.464844 474.027344 73.171875 474.035156 73.941406 473.957031 C 73.742188 474.804688 73.550781 475.59375 73.371094 476.285156 C 73.132812 477.160156 72.933594 477.894531 72.777344 478.472656 C 69.484375 480.59375 66.332031 481.78125 63.855469 482.484375 C 63.207031 482.695312 62.59375 482.808594 62.042969 482.976562 C 61.492188 483.132812 60.992188 483.300781 60.554688 483.394531 C 59.675781 483.617188 59.039062 483.859375 58.691406 484.105469 C 57.992188 484.597656 58.445312 485.113281 60.472656 485.550781 C 62.460938 485.898438 66.226562 486.152344 71.375 484.179688 C 77.351562 481.816406 82.367188 477.386719 85.824219 472.183594 C 87.566406 469.578125 88.980469 466.792969 90.113281 463.910156 L 90.902344 461.730469 C 91.144531 460.980469 91.378906 460.210938 91.574219 459.445312 C 91.976562 457.914062 92.277344 456.375 92.503906 454.84375 C 92.960938 451.773438 93.101562 448.746094 93.117188 445.796875 C 93.140625 442.835938 92.988281 439.992188 92.851562 437.117188 C 92.53125 431.390625 92.035156 425.660156 91.300781 419.988281 C 88.457031 397.25 82.992188 375.171875 79.324219 353.132812 C 71.933594 309.097656 72.570312 263.457031 71.722656 218.140625 C 71.6875 209.65625 71.859375 201.058594 72.054688 192.472656 L 72.394531 179.578125 L 72.582031 173.40625 L 72.582031 172.933594 C 72.605469 172.917969 72.636719 172.914062 72.667969 172.902344 L 72.847656 172.851562 L 73.253906 172.710938 C 73.949219 172.496094 74.625 172.238281 75.292969 171.960938 C 76.652344 171.449219 77.945312 170.820312 79.242188 170.191406 C 81.792969 168.867188 84.242188 167.375 86.515625 165.671875 C 91.066406 162.273438 95.035156 158.214844 98.363281 153.730469 C 105.09375 144.695312 108.976562 134.140625 111.117188 123.613281 C 112.195312 118.332031 112.84375 113.019531 113.207031 107.738281 C 113.578125 102.457031 113.683594 97.191406 113.539062 91.898438" fill="#000000"/></g></g></svg>