<?xml version="1.0" encoding="UTF-8" standalone="no"?><svg xmlns="http://www.w3.org/2000/svg" xmlns:xlink="http://www.w3.org/1999/xlink" fill="#000000" height="500" preserveAspectRatio="xMidYMid meet" version="1" viewBox="-0.1 -0.0 207.7 500.0" width="207.7" zoomAndPan="magnify"><linearGradient gradientUnits="userSpaceOnUse" id="a" x1="103.762" x2="103.762" xlink:actuate="onLoad" xlink:show="other" xlink:type="simple" y1="543.072" y2="168.268"><stop offset="0" stop-color="#000000"/><stop offset="1" stop-color="#fcf1b1"/></linearGradient><path d="M207.4226,295.9275c0.1948-0.42,0.106-0.9172-0.2222-1.2444 c-0.3277-0.3266-0.8244-0.4146-1.2452-0.2171c-9.5044,4.4513-17.9945,11.2004-25.2706,18.5545 c9.4678-18.1602,12.472-32.0966,12.5191-32.3222c0.0942-0.4534-0.1049-0.9175-0.4989-1.1613 c-0.3944-0.2435-0.8987-0.2153-1.2625,0.0716c-22.1037,17.4189-33.3662,49.2586-37.3578,62.8972 c-0.8074-10.8809-2.0801-21.7263-3.8177-32.5059c3.9848-2.4402,24.3735-16.446,34.1346-52.6998 c0.1286-0.4778-0.077-0.9826-0.5026-1.2347c-0.4267-0.2521-0.9676-0.1897-1.3243,0.1526 c-0.6441,0.6173-8.891,8.5869-17.2333,19.4677c4.651-13.4646,8.1551-25.6486,8.4398-26.6431c0.12-0.4198-0.0188-0.8707-0.3541-1.15 c-0.3358-0.2796-0.805-0.3344-1.1946-0.1407c-11.6408,5.7685-19.5223,18.3112-22.7925,36.2721 c-0.8492,4.6616-1.2848,9.139-1.4922,13.0063c-1.7925-9.1059-3.9232-18.1538-6.3822-27.1269 c3.9014-3.0363,25.2308-20.422,30.7068-41.6173c0.1087-0.4214-0.0404-0.8669-0.3804-1.1379 c-0.3401-0.2712-0.8088-0.3159-1.1941-0.1162c-0.2422,0.1257-23.1304,12.271-30.4597,38.1469 c-1.5482-5.377-3.2145-10.7255-5.0025-16.041c-0.0183-0.1009-0.0514-0.1961-0.0952-0.2859 c-0.0995-0.2957-0.1951-0.5925-0.2954-0.8879c0.0667-0.0976,0.1227-0.2033,0.1561-0.3212c0.0293-0.1041,0.042-0.2101,0.0406-0.3149 c2.5448-2.5995,5.0579-5.6313,7.5042-8.944c19.5809-15.4115,36.3606-42.0383,37.1764-43.3425 c0.2265-0.3624,0.2228-0.8233-0.0092-1.1823c-0.2314-0.3587-0.6447-0.554-1.0746-0.4937 c-4.5208,0.6164-8.8323,1.8386-12.9027,3.6353c3.8369-8.4328,6.2297-14.5251,6.4963-15.2092 c0.1491-0.3818,0.0737-0.8147-0.1953-1.1239c-0.2685-0.3089-0.6877-0.4437-1.0859-0.3487 c-14.1049,3.3469-25.3502,16.1245-32.5202,36.9512c-2.2085,6.4146-3.7179,12.6951-4.732,17.8782 c-0.6934,1.9464-1.2218,3.6484-1.6098,5.0116c-3.359-9.2172-7.0834-18.3263-11.17-27.3066 c1.8035-4.5053,18.4541-44.4631,45.2088-55.4798c0.4972-0.2048,0.7744-0.7388,0.6549-1.2635 c-0.1189-0.5247-0.593-0.8874-1.1376-0.8556c-0.4978,0.0283-12.3232,0.7822-24.1281,8.2546 c-1.5584,0.9864-3.1556,2.1269-4.7466,3.4295c7.5266-19.8176,10.638-37.4706,10.6881-37.7611 c0.0742-0.4308-0.1136-0.8648-0.4784-1.1059c-0.3643-0.2408-0.8373-0.2438-1.2049-0.0067 c-15.2829,9.854-23.0637,29.8562-26.8995,44.9013c-2.8042,10.9968-3.9682,21.0208-4.4291,26.3765 c-1.9488-3.8708-3.9593-7.7177-6.0467-11.5327l-6.7866-12.4028c27.5931-46.4842,26.7765-92.007,26.7647-92.462 c-0.0113-0.4631-0.3116-0.8693-0.7507-1.0168c-0.4391-0.1475-0.9234-0.0051-1.2124,0.3576 c-8.3555,10.4773-14.0667,23.0766-17.9714,35.1681c0.7308-25.662-3.6733-43.0975-3.7448-43.3735 c-0.1168-0.4483-0.5015-0.7757-0.9627-0.8196c-0.4574-0.042-0.9003,0.2056-1.0994,0.624 c-9.8844,20.792-10.7556,45.9135-9.7461,63.3268c0.7442,12.8445,2.5943,23.5027,3.7066,29.0277l-25.9583-47.4407 c0.0086-0.0037,0.0161-0.0095,0.0245-0.0134c0.0428-0.0202,0.0839-0.0424,0.1235-0.0679c0.0205-0.013,0.0401-0.0265,0.0597-0.041 c0.0398-0.0294,0.077-0.0617,0.1125-0.0962c0.0108-0.0104,0.0234-0.018,0.0339-0.029c0.003-0.0033,0.0043-0.0076,0.0075-0.0109 c0.0678-0.0733,0.1243-0.1567,0.1706-0.2472c0.0073-0.0143,0.0151-0.028,0.0215-0.0426c0.0328-0.0713,0.0608-0.1453,0.078-0.2245 C84.2824,58.0955,69.3488,1.3809,69.1965,0.8151c-0.1152-0.4275-0.4752-0.7445-0.9137-0.8053 c-0.4343-0.0581-0.8707,0.1469-1.0973,0.5276c-7.8099,13.1043-9.8505,36.888-6.0658,70.6903 c0.0431,0.3842,0.088,0.7648,0.1321,1.1473c-3.5089-23.1138-9.8171-50.9776-20.7511-64.3872 c-0.2884-0.3541-0.7658-0.494-1.1968-0.3509c-0.4337,0.1418-0.7345,0.5357-0.7577,0.991 c-0.0086,0.1698-0.8363,17.2172,1.7774,38.0799c1.6819,13.4256,5.0738,30.3924,11.89,45.2923 C42.0535,81.5898,26.2427,69.1046,4.8862,62.9776c-0.4203-0.1211-0.8718,0.0186-1.1511,0.3544 c-0.2798,0.3358-0.3342,0.805-0.1394,1.1963c0.1641,0.3296,4.1361,8.1927,14.3078,18.87 c9.0895,9.5419,25.0166,23.1397,49.6912,34.431l25.4425,46.4981c-26.6902-35.6316-59.7049-50.9101-60.0601-51.0712 c-0.4214-0.1913-0.9186-0.0979-1.2425,0.2322c-0.324,0.3309-0.4068,0.8293-0.2066,1.2471 c7.2421,15.1354,19.7246,27.9088,31.8992,37.7004c-16.4888-6.3584-28.77-7.5485-28.967-7.5662 c-0.4553-0.0404-0.8987,0.2104-1.0956,0.6299s-0.1103,0.9172,0.2169,1.2455c19.3587,19.4462,53.3093,25.0034,60.9278,26.03 c1.8641,0.9726,2.9603,1.493,3.031,1.526c0.1501,0.0702,0.3089,0.1039,0.4666,0.1039c0.1674,0,0.3315-0.0408,0.4822-0.1141 l7.9762,14.5771c1.3426,2.4537,2.6492,4.9223,3.9343,7.3994c-8.0994-9.8481-21.8187-22.6421-40.0363-25.4863 c-0.4246-0.0665-0.8438,0.1176-1.0827,0.4714c-0.2395,0.3538-0.2529,0.8136-0.0344,1.1806 c0.1106,0.1864,6.986,11.5629,19.1187,21.9351c-12.9501-4.7667-28.1625-8.9748-41.5145-8.9748 c-0.4547,0-0.8626,0.2793-1.0273,0.7031c-0.1647,0.4238-0.0522,0.9051,0.2831,1.2121c0.2981,0.2728,7.4439,6.7498,19.9043,12.8164 c9.9242,4.8319,24.9418,10.1333,43.059,10.1333c2.6212,0,5.3132-0.1176,8.0582-0.3574 c5.1478,10.9828,9.7493,22.1652,13.7936,33.5091c-8.7236-6.9841-30.8585-23.2498-48.4962-23.8627 c-0.4305-0.0094-0.8034,0.2066-1.0042,0.571c-0.2002,0.3646-0.1781,0.8107,0.057,1.1537c0.226,0.3299,5.6444,8.1651,14.8346,15.493 c0.2847,0.2272,0.5718,0.4398,0.8575,0.6608c-16.0938-5.9951-33.0266-14.432-40.8997-25.1981 c-0.3379-0.462-0.9724-0.5868-1.4599-0.2925c-0.4892,0.296-0.6705,0.9162-0.4187,1.429c0.2599,0.5287,6.5108,13.072,19.5147,24.021 c9.1568,7.7098,23.0723,15.6203,41.6259,15.6203c5.5452,0,11.5141-0.7193,17.8847-2.3503 c1.8253,5.4674,3.5274,10.9682,5.098,16.5003c-7.7079-4.2579-32.789-16.6652-56.3871-12.3636 c-0.4434,0.081-0.7927,0.4232-0.8825,0.8645c-0.0899,0.4413,0.0979,0.893,0.4741,1.1406 c0.2481,0.1628,22.3544,14.4814,48.747,14.4814c2.9616,0,5.9827-0.1926,9.0277-0.5938c2.6802,9.8007,4.9626,19.6917,6.8429,29.6493 c-2.1041-1.2229-4.319-2.3297-6.615-3.3321c-14.7154-9.7539-44.0387-26.8274-65.3389-24.0199 c-0.4445,0.0584-0.8093,0.3805-0.9229,0.8145c-0.113,0.4337,0.0479,0.893,0.4074,1.1613 c0.1795,0.1342,8.4368,6.2403,20.6114,12.9497c-11.0898-0.5395-19.208-0.0254-20.027,0.0297 c-0.4924,0.0336-0.9024,0.3904-1.0036,0.8737c-0.1017,0.4832,0.1308,0.9748,0.5688,1.2032 c22.4933,11.7326,42.0898,15.288,54.568,16.2044c2.9678,0.2179,5.674,0.3035,8.0972,0.3035c4.6793,0,8.2864-0.3194,10.6655-0.6224 c1.9827,11.432,3.4392,22.9439,4.3664,34.4983c-5.3681-15.7927-17.472-25.8777-18.1121-26.4018 c-0.3288-0.2693-0.783-0.3253-1.1672-0.1445c-0.3842,0.1808-0.6307,0.5667-0.6328,0.9915 c-0.0288,5.629,0.8672,10.6313,2.2908,15.0359c-19.8118-19.8557-38.797-28.6418-39.0515-28.7572 c-0.4219-0.1916-0.9186-0.0977-1.2425,0.2322c-0.324,0.331-0.4068,0.8293-0.2066,1.2471 c6.3655,13.3038,17.2546,24.5694,27.9618,33.2673c-14.4033-5.4572-25.0513-6.4871-25.2248-6.5027 c-0.459-0.0422-0.8992,0.2104-1.0956,0.6299c-0.197,0.4195-0.1103,0.9172,0.2169,1.2455 c17.5697,17.6487,47.6452,22.4228,54.5211,23.3055c1.6367,0.8535,2.6,1.3111,2.671,1.3443 c0.2244,5.7231,0.3118,11.4525,0.2766,17.1834c-0.6043-0.0872-1.3004-0.1903-2.0769-0.309 c-9.5254-12.3705-31.4631-21.5118-32.6225-21.9885c-0.3875-0.1588-0.8314-0.085-1.1473,0.1918 c-0.3148,0.2772-0.445,0.7087-0.3363,1.1134c1.6416,6.1071,6.2657,11.6669,11.7092,16.3712 c-14.2454-3.334-30.689-8.4557-40.3662-15.7217c-0.4429-0.332-1.0617-0.2844-1.4486,0.1095 c-0.3869,0.3944-0.4219,1.0146-0.0818,1.4503c0.2927,0.3751,7.3116,9.2701,19.3888,16.4224 c7.4316,4.4011,17.7594,8.6241,30.0217,8.6241c2.434,0,4.9454-0.1695,7.5244-0.5339c4.1783,2.356,7.6299,3.9733,9.2287,4.6913 c-0.36,10.7101-1.1661,21.4163-2.4369,32.0885c-2.2426-9.3581-6.6028-22.4703-13.8932-25.743 c-0.3525-0.1579-0.7636-0.12-1.0811,0.1012c-0.318,0.2212-0.4962,0.5928-0.4698,0.9789c0.0293,0.4366,0.4057,5.5032,2.2166,12.0474 c-13.0335-12.8922-32.3276-28.8278-49.6559-30.7886c-0.4418-0.0522-0.8772,0.1738-1.0913,0.568 c-0.2147,0.3936-0.1695,0.8782,0.1146,1.225c0.1421,0.1736,6.6833,8.0899,16.8806,17.5364 c-10.6321-3.1973-18.6344-4.6555-19.4421-4.7988c-0.4827-0.0869-0.9697,0.1612-1.185,0.6057 c-0.2147,0.4448-0.1076,0.9778,0.2621,1.305c2.6441,2.3394,5.271,4.5056,7.868,6.5223c-1.094,0.7173-1.9502,1.7982-2.4318,3.139 l-0.4795,1.337c-0.5376,1.4968-0.5387,3.1465-0.0027,4.6449l0.6705,1.8753c-2.3406-1.8457-4.6042-3.5413-6.7616-5.0874 c-2.0726-1.4851-4.0962-2.8674-6.0645-4.1622c0.7076-4.4802,4.0053-27.8678-2.4175-38.0971 c-0.1986-0.3167-0.544-0.5107-0.918-0.5161c-0.3767,0.0126-0.7249,0.1797-0.932,0.4905 c-0.3487,0.5229-8.0762,12.5753,0.7674,35.8758c-4.2162-2.6382-8.0929-4.8248-11.4729-6.5976 c7.6546-26.2019-6.693-47.8196-6.8402-48.0361c-0.2874-0.4238-0.8271-0.5944-1.3071-0.4106 c-0.4784,0.1835-0.7668,0.6724-0.6969,1.1798l5.1639,37.3451c-4.4641-12.1213-14.3336-35.0382-30.2644-52.2367 c-0.3379-0.3659-0.8804-0.4585-1.3216-0.2266c-0.4407,0.2322-0.6716,0.7313-0.5618,1.2175 c0.413,1.8329,9.6729,42.0586,28.7768,57.6943c-0.5336-0.2449-1.0429-0.4752-1.5173-0.6855 c-9.9395-6.6126-33.1606-20.0709-51.3639-15.3129c-0.4127,0.1079-0.7265,0.4445-0.8045,0.8643 c-0.0786,0.4195,0.0926,0.8465,0.4386,1.0962c0.2314,0.1666,21.657,15.4021,48.8102,18.2776l-35.6686,3.8328 c-0.5037,0.0544-0.9057,0.4448-0.974,0.9469s0.2142,0.9861,0.685,1.1731c7.7684,3.0872,14.6694,4.1778,20.5447,4.1778 c5.7499,0,10.5167-1.0451,14.148-2.286c6.4586-2.2066,10.5032-5.3426,11.9177-6.5623c3.9281,2.0671,8.5318,4.6975,13.5617,7.9585 c-17.7954-3.695-37.8458,8.5911-38.8411,9.2106c-0.3675,0.229-0.5672,0.6525-0.5096,1.0819 c0.0576,0.4291,0.3611,0.7851,0.7765,0.9094c3.9402,1.1796,8.27,1.6486,12.667,1.6486c15.2732,0,31.3321-5.6567,34.5832-6.863 c2.4915,1.8285,5.1122,3.8549,7.8187,6.0748l2.8042,7.8407c-0.0538,0.0885-0.1049,0.1781-0.1539,0.2688l-19.2693,1.5867 c-1.5864,0.1305-3.0883,0.8126-4.2297,1.9203l-1.0198,0.9891c-1.4702,1.4266-2.1525,3.334-1.8722,5.2333 c0.2621,1.7745,1.348,3.2762,2.9328,4.0941c0.4531,0.2629,0.6554,0.7448,0.5161,1.3101c-0.4413,1.7834-0.028,3.5899,1.1338,4.9562 c1.2436,1.4626,3.1265,2.2047,5.1703,2.0414l1.4164-0.1149c1.5853-0.1289,3.0883-0.8088,4.2313-1.9152l11.4998-11.1301 l-5.2521,14.6861c-0.536,1.4982-0.5349,3.1478,0.0022,4.6449l0.48,1.337c0.6926,1.9281,2.1482,3.3372,3.9935,3.8659 c1.7247,0.4932,3.5398,0.1248,4.94-0.981c0.4262-0.3035,0.9487-0.2898,1.3593,0.0339c0.0016,0.0013,0.0457,0.0363,0.0474,0.0377 c1.0224,0.8069,2.2332,1.2272,3.4661,1.2272c0.5058,0,1.0149-0.0707,1.5164-0.2144c1.8452-0.5287,3.3009-1.9378,3.9935-3.8656 l0.4795-1.3372c0.5376-1.4968,0.5387-3.1465,0.0027-4.6449l-5.0929-14.2416l10.9337,10.5826c1.143,1.1061,2.646,1.786,4.2313,1.9149 l1.1239,0.0911c2.8865,3.7285,5.7246,7.6913,8.4772,11.8932l-10.9227,0.8995c-1.3313,0.1093-2.5922,0.6818-3.5506,1.612 l-0.825,0.8005c-1.2382,1.2014-1.8124,2.8106-1.5756,4.4146c0.2217,1.503,1.1408,2.7746,2.4749,3.4629 c0.282,0.1636,0.4079,0.4641,0.318,0.8271c-0.3729,1.5092-0.0226,3.0385,0.9622,4.196c1.0499,1.2353,2.6401,1.8609,4.3583,1.7242 l1.1457-0.0928c1.3308-0.1082,2.5927-0.6791,3.5522-1.6079l8.6526-8.3744l-3.9439,11.0282c-0.4499,1.257-0.4488,2.6419,0.0022,3.899 l0.3885,1.0822c0.5833,1.6238,1.8119,2.8115,3.3708,3.2578c1.4605,0.4189,2.9974,0.1057,4.1748-0.8244 c0.2548-0.1818,0.5653-0.1752,0.85,0.031c-1.9884,6.6961-4.1632,13.3546-6.5332,19.9659c-0.2056,0.5728,0.0926,1.2038,0.6657,1.4094 c0.1227,0.0439,0.2481,0.0648,0.3718,0.0648c0.452,0,0.8761-0.2804,1.0375-0.7305c2.3452-6.5421,4.5017-13.1298,6.4756-19.7545 c0.3127,0.0662,0.6307,0.1037,0.9511,0.1037c0.4283,0,0.8599-0.06,1.285-0.1819c1.559-0.4466,2.787-1.6343,3.3698-3.2578 l0.3891-1.0817c0.451-1.257,0.4515-2.6417,0.0016-3.8993l-2.0791-5.8144c0.2182-0.8513,0.4259-1.7045,0.6382-2.5568l5.8207,5.6339 c0.9595,0.9286,2.2209,1.4995,3.5522,1.6077l1.1451,0.0928c1.7252,0.137,3.3089-0.4889,4.3588-1.7245 c0.9842-1.1575,1.3351-2.6869,0.9514-4.2388c-0.0791-0.3202,0.0468-0.6205,0.282-0.7585c1.066-0.5511,1.8525-1.4367,2.2596-2.5027 c0.1496,0.1022,0.2825,0.2407,0.3788,0.4349c0.7755,1.5668,2.1864,2.6255,3.8713,2.9043c0.2981,0.0495,0.5963,0.0737,0.8933,0.0737 c1.4998,0,2.9613-0.6191,4.1135-1.7656l0.9466-0.942c1.0703-1.0655,1.743-2.4803,1.8937-3.984l1.3862-13.8649l4.9201,13.1282 c0.5311,1.4145,1.5434,2.6099,2.8515,3.366l1.1559,0.6678c1.686,0.9745,3.6082,1.1031,5.2726,0.3535 c1.5573-0.7009,2.6503-2.0858,3.0092-3.849c0.0931-0.4569,0.4364-0.7642,0.8432-0.7989c1.7468-0.0597,3.2939-0.9078,4.2432-2.3271 c1.016-1.5178,1.2076-3.4343,0.5268-5.2586l-0.0005-0.0002l-0.4671-1.2506c-0.5284-1.4153-1.539-2.6121-2.8467-3.3698 l-15.3464-8.894c-0.0038-0.074-0.0092-0.1477-0.0156-0.2217l9.6088-9.586c1.0698-1.0674,1.7403-2.4832,1.8883-3.9859l0.1313-1.3292 c0.1916-1.9378-0.4849-3.7414-1.8555-4.9486c-1.2813-1.1282-2.9936-1.553-4.6451-1.1729c-0.4531,0.0802-0.8658-0.1281-1.0951-0.5919 c-0.776-1.5668-2.187-2.6253-3.8718-2.904c-1.4465-0.2396-2.9005,0.1185-4.1331,0.9743 c7.1813-6.4533,15.0009-15.5586,22.0743-28.3086c0.24-0.4326,0.162-0.9721-0.19-1.3195c-0.3525-0.3468-0.8928-0.4176-1.3222-0.1711 c-0.7738,0.4439-10.6991,6.1902-21.4186,14.7387c7.7604-11.9461,14.0987-22.9262,14.6145-23.8228 c0.2179-0.3783,0.1916-0.8494-0.0662-1.2014c-0.2578-0.352-0.7033-0.5204-1.1258-0.4246 c-12.688,2.7918-23.3613,13.0642-30.8655,29.7069c-2.1703,4.8133-3.7868,9.5264-4.957,13.5092 c1.1863-10.272,1.9504-20.5736,2.2983-30.8794c18.4199-13.7311,42.7253-50.9739,43.7545-52.5585 c0.2373-0.3651,0.2373-0.8357,0-1.2008c-0.2368-0.3646-0.663-0.5551-1.0972-0.4878c-22.5005,3.5811-36.55,30.0987-42.0785,44.0529 c-0.0891-0.0114-0.2166-0.028-0.3708-0.0482c0.0447-6.5137-0.077-13.0251-0.3654-19.5282 C191.4805,329.6462,207.2658,296.2652,207.4226,295.9275z M169.3553,230.3984c-5.5115,16.7703-21.1318,31.0907-27.2218,36.1943 C147.623,246.0216,163.3589,234.2444,169.3553,230.3984z M40.6579,11.8833c15.2116,22.2122,20.6497,75.5658,22.0135,92.3029 c-1.4352-1.9041-3.0577-3.9423-4.872-6.0659C40.9291,68.5019,40.448,24.0116,40.6579,11.8833z M6.9295,65.8989 c21.5537,6.8703,37.0857,20.2883,46.4449,30.5394c7.2013,7.8871,11.912,15.1142,14.2023,18.9578 C28.7017,97.3563,11.5736,73.4112,6.9295,65.8989z M65.1471,107.5899c-0.219-3.2493-0.8034-10.9765-1.9706-20.8887 c1.5574,10.2108,3.2632,18.9342,4.4471,24.5682C66.9094,110.1604,66.0831,108.9251,65.1471,107.5899z M67.7387,4.152 c2.682,11.6419,12.0137,58.3386,2.4076,108.3669C66.2615,94.3549,54.3118,31.6943,67.7387,4.152z M37.6169,147.5275 c8.4341,1.3728,31.4887,6.4021,54.3871,22.6491C81.6655,168.517,54.8973,162.9132,37.6169,147.5275z M71.4478,155.816 c-13.0574-9.5224-27.7419-22.8351-36.4257-39.0607c8.8985,4.7221,36.1607,20.8739,58.2439,51.6182 C85.8519,163.1156,78.4171,159.0111,71.4478,155.816z M126.1263,86.2926c-0.3665,10.8587-3.2266,46.972-24.3821,84.4899 C102.1914,157.3489,105.2754,114.7745,126.1263,86.2926z M99.5099,171.5642l-0.3312-0.6053 c0.1582-0.1094,0.2785-0.2642,0.3624-0.4441C99.529,170.8846,99.5185,171.2363,99.5099,171.5642z M98.7366,165.6743 c-2.6196-13.1766-9.3032-55.331,4.5305-87.8222c1.4043,7.085,4.2725,25.2883,2.4929,48.8421 c-1.3878,5.3491-2.4428,10.45-3.2382,15.0427c-1.2283,7.091-1.9634,13.5921-2.4038,18.9339 C99.6845,162.3291,99.2263,163.9966,98.7366,165.6743z M50.0262,187.6755c14.6996,0.7052,31.2651,6.0807,44.2789,11.3447 c5.031,3.5885,10.7403,6.787,17.0512,8.999C80.2357,208.8107,57.2836,193.2978,50.0262,187.6755z M72.5135,173.4174 c23.244,4.9303,38.5182,26.5236,42.9702,33.5973C92.5535,200.5981,77.0467,180.0825,72.5135,173.4174z M118.6164,207.8898 c-0.6737-1.4259-1.3569-2.8483-2.0492-4.2673c0.9043-1.0791,1.7885-2.1874,2.6473-3.3276 C118.8987,202.6944,118.692,205.2215,118.6164,207.8898z M116.6003,200.0834c1.002-11.9564,5.9706-52.0374,28.1754-68.6409 c-1.2522,6.1385-4.8808,22.1185-11.6772,38.8387c-5.5828,5.6607-10.6221,13.6977-13.0268,25.0238 C118.9568,196.9475,117.8009,198.5453,116.6003,200.0834z M142.6205,165.4192c5.8317-3.7069,11.7657-5.7061,16.1654-6.7742 c-12.1397,7.3705-21.6839,19.914-27.8821,29.8673c-4.6441,7.4568-8.0569,14.4558-10.0759,18.9438 C121.4532,188.3484,128.7696,174.2222,142.6205,165.4192z M75.3861,235.7496c-5.7827-4.8585-10.2352-10.1212-13.3731-14.4184 c11.2119,9.2917,28.1216,16.3415,42.7377,21.1737c7.5217,4.2823,15.2248,6.4813,22.8075,6.4813 c0.0059,0,0.0116-0.0004,0.0175-0.0004c0.5833,0.1397,1.1368,0.2703,1.6502,0.3897 C109.1914,253.524,91.0978,248.9507,75.3861,235.7496z M84.7264,221.9298c17.7712,2.0331,40.0476,19.2957,46.5977,24.6611 C107.9908,249.0015,89.8176,228.4033,84.7264,221.9298z M169.351,183.0449c-1.1793,2.8829-3.564,8.5604-6.7968,15.505 c-8.6927,4.6355-16.1646,12.0485-22.0453,21.9871c-0.6086,1.0284-1.179,2.0498-1.7177,3.0593 C143.4837,207.4689,152.4906,188.3557,169.351,183.0449z M142.4058,221.6594c8.5396-14.4316,20.0034-23.0731,34.1034-25.7178 c-5.0504,7.6326-23.5642,34.3305-42.5467,45.734C135.0151,237.806,137.5513,229.8632,142.4058,221.6594z M134.4802,243.927 c0.5222-0.3044,1.0442-0.6162,1.5649-0.9417c-0.5618,0.6455-1.1252,1.2726-1.6897,1.8753 C134.3931,244.569,134.4353,244.2541,134.4802,243.927z M85.5336,256.5044c21.4805-2.6107,43.6359,8.0711,51.3532,12.2699 C113.7531,270.9771,92.7068,260.5519,85.5336,256.5044z M77.6128,274.9152c16.4512-0.6892,37.4716,9.6962,52.1526,18.4857 c-10.0531-2.9864-20.7511-4.4707-30.0384-5.1697C89.5128,282.9024,81.443,277.5684,77.6128,274.9152z M78.815,289.9677 c12.166-0.3065,47.7843,0.0705,68.6976,13.6744C139.2637,304.7224,112.4912,306.4178,78.815,289.9677z M181.0828,260.8592 c-8.7796,28.5938-24.5549,42.022-30.3333,46.1487C155.4398,288.8982,173.7841,268.4552,181.0828,260.8592z M170.9132,250.9888 c-1.5993,5.3864-5.5777,18.4451-10.1857,31.038c-4.3196,6.2842-8.2684,13.1585-10.7206,19.9566 C150.1796,288.911,152.831,261.9471,170.9132,250.9888z M97.1071,304.6412c6.5488,3.5099,22.9093,13.2592,39.0887,30.5858 c2.294,4.9153,5.1749,8.8757,7.8828,11.8957c-4.9944-3.179-9.9384-5.8013-14.6455-7.9596 C117.8695,330.7299,104.8812,318.9727,97.1071,304.6412z M99.5249,332.0414c7.7857,1.3114,27.7992,5.8476,47.7391,19.861 C137.7639,350.3346,114.6814,345.3268,99.5249,332.0414z M134.0589,317.3895c4.5849,4.4156,16.1972,17.1346,17.7992,33.9915 C147.1613,347.7935,134.964,336.672,134.0589,317.3895z M107.1239,368.8546c-5.4125-3.1976-9.8241-6.8122-13.0136-9.7881 c11.1398,5.8517,26.0113,9.9385,38.3242,12.5911c2.6508,1.9862,5.3673,3.7722,7.9344,5.3265 C129.1441,377.9989,118.0118,375.2874,107.1239,368.8546z M119.6494,353.8133c7.3207,3.3356,29.9975,14.5892,33.011,27.224 C146.2873,378.0421,125.1975,367.2902,119.6494,353.8133z M3.9025,370.177c17.9224-2.8836,40.6751,11.1974,48.7599,16.717 C29.6262,385.3472,10.2089,374.1898,3.9025,370.177z M18.6446,394.3192l37.2999-4.0083 C50.4206,393.9812,37.4554,400.1783,18.6446,394.3192z M28.1975,330.7773c16.6406,19.6514,25.9109,45.0436,28.6796,53.4487 C40.9,372.9086,31.31,342.2277,28.1975,330.7773z M59.8761,382.2823l-4.9503-35.7993 C58.203,353.4689,62.7922,366.7733,59.8761,382.2823z M72.4091,361.786c3.8083,8.5116,2.5152,24.0095,1.6079,31.3633 C67.8517,376.3577,70.7447,365.7749,72.4091,361.786z M38.1609,407.8041c6.7686-3.6208,26.7337-12.8831,41.556-5.243 C73.1205,404.8188,53.1226,410.9336,38.1609,407.8041z M149.4386,422.3218c-8.7796-9.7581-11.4471-24.0016-12.1682-29.3846 C144.2903,398.3309,148.089,415.0861,149.4386,422.3218z M90.0603,374.8348c16.1353,3.2918,34.0335,18.4441,46.1618,30.5166 c-9.0374-5.3232-19.063-9.3439-27.9088-12.2619C99.6856,385.4555,93.1379,378.3331,90.0603,374.8348z M87.5973,389.7318 c9.5798,2.1235,33.8583,8.3581,51.8257,20.2673c1.1268,2.7849,2.5271,5.6301,4.2593,8.3549 c-8.2425-1.7441-20.9284-5.5957-35.4875-14.0829c0.5023-1.4729,0.494-3.0837-0.0317-4.5489l-0.48-1.337 c-0.6926-1.9281-2.1482-3.3372-3.9935-3.8659c-1.7236-0.4943-3.5409-0.1251-4.94,0.981c-0.4278,0.3035-0.9493,0.2898-1.4067-0.0716 c-1.1968-0.9445-2.6519-1.3499-4.097-1.1813C91.3758,392.8215,89.492,391.3213,87.5973,389.7318z M119.8323,438.1579l-1.4164-0.1149 c-1.0784-0.0874-2.0998-0.5497-2.8774-1.3017L102.3022,423.93c-0.4289-0.4149-1.1102-0.4141-1.5369,0.004 c-0.1254,0.1224-0.2653,0.24-0.4289,0.3595c-0.3944,0.2879-0.5521,0.801-0.3875,1.2609l6.1411,17.172 c0.3643,1.019,0.3638,2.1404-0.0022,3.158l-0.48,1.3372c-0.4493,1.2522-1.3701,2.1606-2.5254,2.4915 c-1.051,0.3016-2.1192,0.0788-3.006-0.6207c-0.0016-0.0013-0.0457-0.0366-0.0474-0.0377c-0.607-0.4789-1.3292-0.7219-2.0583-0.7219 c-0.6872,0-1.3814,0.2155-1.9927,0.6525c-0.8917,0.7039-1.962,0.9253-3.0103,0.6245c-1.1559-0.3312-2.0766-1.2393-2.526-2.4918 l-0.48-1.337c-0.3654-1.0176-0.3665-2.1393-0.0022-3.158l6.1121-17.0905c0.1636-0.4568,0.0091-0.9667-0.3805-1.256 c-0.2013-0.1493-0.3896-0.3191-0.5602-0.505c-0.2007-0.219-0.4822-0.3476-0.7792-0.3565c-0.2917-0.0059-0.586,0.1028-0.7991,0.3097 L80.1044,436.741c-0.7776,0.7523-1.799,1.2146-2.8774,1.302l-1.4158,0.1149c-1.3313,0.1076-2.5346-0.356-3.3127-1.2719 c-0.7071-0.8317-0.9466-1.8969-0.6608-3.0523c0.36-1.4575-0.2674-2.9417-1.609-3.7185c-1.009-0.5217-1.6526-1.4037-1.8119-2.4837 c-0.1754-1.1893,0.2718-2.4028,1.2264-3.3294l1.0198-0.9894c0.776-0.7531,1.7974-1.2167,2.8758-1.3055l19.9043-1.6389 c0.4171-0.0342,0.7792-0.3022,0.9337-0.6909c0.127-0.3199,0.2992-0.6248,0.5107-0.9065c0.2228-0.2962,0.2814-0.6845,0.1566-1.0332 l-5.0843-14.216c-0.3643-1.019-0.3638-2.1404,0.0022-3.158l0.48-1.337c0.4493-1.2525,1.3701-2.1606,2.5254-2.4918 c1.0499-0.3,2.1186-0.0791,3.0534,0.6581c1.1796,0.9301,2.7897,0.971,4.051,0.0697c0.8922-0.7036,1.9615-0.9242,3.0108-0.6245 c1.1554,0.3312,2.0761,1.2393,2.5254,2.4918l0.4805,1.337c0.3654,1.0176,0.3659,2.1391,0.0016,3.158l-5.059,14.1464 c-0.1238,0.3458-0.0673,0.7303,0.1507,1.0257c0.2083,0.2815,0.3762,0.5863,0.4999,0.9059c0.1528,0.3936,0.5166,0.6654,0.9374,0.7001 l19.4851,1.6042c1.0779,0.0888,2.0992,0.5524,2.8758,1.3058l1.0198,0.9891c0.9546,0.9266,1.4018,2.1401,1.2264,3.3294 c-0.1593,1.08-0.8029,1.962-1.8587,2.5093c-1.2947,0.7513-1.9222,2.2354-1.5627,3.6908c0,0.0008,0.0129,0.0544,0.0135,0.0552 c0.2723,1.1026,0.0328,2.1678-0.6743,2.9995C122.3659,437.8022,121.1583,438.2652,119.8323,438.1579z M121.9824,440.1268 c1.108-0.3178,2.092-0.9317,2.8411-1.8126c1.1618-1.3666,1.5751-3.1731,1.1349-4.954c0-0.0008-0.0129-0.0544-0.0135-0.0549 c-0.1265-0.5131,0.0759-0.995,0.4822-1.2323c1.6316-0.8435,2.7176-2.3452,2.9796-4.1197c0.2804-1.8993-0.402-3.8067-1.8722-5.2333 l-1.0198-0.9891c-1.1419-1.1077-2.6438-1.7898-4.2297-1.9203l-18.8437-1.5514c-0.0479-0.0893-0.0974-0.1779-0.1496-0.265 l4.1514-11.6089c9.4829,5.5007,17.9695,8.9647,24.539,11.1185c5.3902,1.7673,9.9758,2.8385,13.5208,3.4894 c0.9926,1.3299,2.0774,2.6108,3.2608,3.8232l-0.7937,0.2693c-1.8442,0.6258-3.2078,1.9865-3.7416,3.7333 c-0.4988,1.6329-0.1776,3.3673,0.8497,4.7154c0.2615,0.3805,0.2405,0.8411-0.049,1.1954c-0.0016,0.0022-0.0361,0.0436-0.0377,0.0457 c-0.1364,0.1666-0.2613,0.3392-0.3754,0.5161c-0.6509-1.2925-1.747-2.2314-3.0918-2.6167 c-1.4605-0.4187-2.9985-0.1063-4.1759,0.8242c-0.2653,0.1897-0.5909,0.18-0.8847-0.0511c-1.2205-0.9635-2.7595-1.2754-4.2179-0.857 c-1.559,0.4464-2.7875,1.634-3.3714,3.2587l-0.388,1.0814c-0.451,1.2573-0.452,2.6422-0.0022,3.899l3.9273,10.9811 c-0.0075,0.0129-0.0151,0.0258-0.0226,0.0387l-2.0551,0.1693C127.6242,447.8244,124.8286,443.8621,121.9824,440.1268z M146.0656,442.5495c-0.6156,3.1894-1.2724,6.3732-1.9709,9.551l-2.6984-0.2222c-0.007-0.0116-0.0135-0.0234-0.0199-0.035 l3.666-10.2516C145.3394,441.9477,145.6817,442.2684,146.0656,442.5495z M160.2954,459.629 c-0.1189,0.8048-0.5995,1.4626-1.4008,1.8784c-1.129,0.6554-1.6768,1.9494-1.3518,3.2627c0.2039,0.8242,0.0258,1.6195-0.501,2.2392 c-0.586,0.6883-1.5046,1.0359-2.5018,0.9549l-1.1451-0.0928c-0.8233-0.0667-1.6036-0.42-2.1977-0.9945l-10.7061-10.3622 c-0.4284-0.4149-1.1086-0.4138-1.5358,0.0027c-0.0958,0.0936-0.2023,0.1827-0.325,0.2723 c-0.3945,0.2882-0.5521,0.8013-0.3875,1.2611l4.9669,13.8894c0.2782,0.7781,0.2777,1.6348-0.0011,2.4122l-0.3891,1.0816 c-0.3401,0.9485-1.0338,1.6351-1.9023,1.884c-0.7808,0.2244-1.5789,0.0587-2.2806-0.4954c-0.529-0.4171-1.157-0.6288-1.793-0.6288 c-0.6011,0-1.2086,0.1889-1.7457,0.5728c-0.6651,0.5252-1.461,0.692-2.2456,0.4679c-0.8685-0.2489-1.5622-0.9355-1.9028-1.8837 l-0.388-1.0819c-0.2793-0.7779-0.2804-1.6346-0.0022-2.4122l4.9438-13.8235c0.1636-0.4566,0.0092-0.9665-0.3804-1.2557 c-0.1523-0.1133-0.2949-0.2416-0.4235-0.3821c-0.2007-0.219-0.4822-0.3476-0.7792-0.3565c-0.2906-0.0062-0.586,0.1028-0.7991,0.3097 l-10.8778,10.5282c-0.5941,0.5745-1.3744,0.9277-2.1977,0.9945l-1.1457,0.0928c-0.9955,0.0815-1.9157-0.2661-2.5012-0.9549 c-0.5268-0.6197-0.7049-1.415-0.4908-2.2817c0.3148-1.2711-0.233-2.5652-1.4094-3.2457c-0.7539-0.3899-1.235-1.048-1.3534-1.8525 c-0.1324-0.8941,0.2066-1.8092,0.9299-2.5109l0.825-0.8004c0.593-0.5753,1.3733-0.9294,2.1966-0.9972l16.0998-1.3257 c0.4176-0.0344,0.7798-0.3027,0.9342-0.6923c0.0947-0.2395,0.2244-0.4693,0.3848-0.6832c0.2228-0.2962,0.2814-0.6842,0.1566-1.0329 l-4.1124-11.499c-0.2782-0.7773-0.2771-1.634,0.0022-2.4122l0.3875-1.0811c0.3412-0.9487,1.0348-1.6357,1.9039-1.8842 c0.7824-0.2242,1.5799-0.0576,2.2801,0.4953c1.0284,0.811,2.4329,0.8462,3.5377,0.0562c0.6667-0.5255,1.4653-0.6918,2.2467-0.4679 c0.8685,0.2489,1.5622,0.9355,1.9028,1.8842l0.388,1.0811c0.2793,0.7776,0.2798,1.6343,0.0016,2.4124l-4.0919,11.442 c-0.1238,0.3458-0.0673,0.7303,0.1512,1.0257c0.1566,0.2126,0.2836,0.4429,0.3778,0.6845c0.1528,0.3934,0.5166,0.6649,0.9369,0.6993 l15.7602,1.2977c0.8233,0.0678,1.6036,0.4219,2.1967,0.9972l0.8244,0.8002v0.0002 C160.0882,457.82,160.4272,458.7351,160.2954,459.629z M142.0135,461.0552c-0.0479,0.1955-0.0977,0.3907-0.1458,0.586 l-0.3977-1.1122L142.0135,461.0552z M146.3118,452.283c0.6347-2.8981,1.2345-5.8011,1.8006-8.7088l0.6891,0.2612 c1.4131,0.5354,2.9796,0.5634,4.4105,0.0796l13.9833-4.7267l-10.1782,10.1548c-0.9942,0.9912-1.6381,2.2848-1.8442,3.6696 L146.3118,452.283z M186.3769,374.1089c-2.8505,4.8423-9.8612,16.5571-17.37,27.6683c-5.7069,5.0571-11.1958,10.776-15.2143,16.7818 C157.1121,405.9137,166.1866,380.3844,186.3769,374.1089z M193.8671,386.1404c-15.4153,25.6333-33.9624,34.8619-40.5653,37.4732 C162.2203,407.1691,184.9525,391.7523,193.8671,386.1404z M174.5483,412.9595l-0.4972,0.495 c-1.0709,1.0655-1.743,2.4802-1.8931,3.9838l-1.3561,13.5692c-0.0635,0.042-0.1254,0.0853-0.1867,0.1297l-15.4876-5.8464 C159.2767,423.5827,166.4381,419.9636,174.5483,412.9595z M152.8665,426.7931l17.564,6.6303 c0.3912,0.148,0.833,0.0613,1.1392-0.2238c0.2336-0.2166,0.4972-0.4031,0.7851-0.5537c0.3283-0.1722,0.5478-0.4978,0.5849-0.8667 l1.4115-14.1219c0.0996-0.9966,0.5451-1.9343,1.2549-2.6406l0.9466-0.942c0.8712-0.8672,2.0002-1.2589,3.0916-1.0797 c0.9912,0.1638,1.7925,0.7706,2.279,1.7535c0.6393,1.2915,2.0207,1.9895,3.4871,1.7271c1.0198-0.2338,1.9954,0.0038,2.7493,0.6678 c0.832,0.7327,1.2393,1.8547,1.1188,3.0778l-0.1313,1.3292c-0.0985,0.9963-0.543,1.9348-1.2517,2.6422l-9.9979,9.9742 c-0.2605,0.2599-0.374,0.6323-0.303,0.9931c0.0619,0.3151,0.0813,0.6355,0.0581,0.9528c-0.0307,0.4208,0.1819,0.8223,0.5467,1.0338 l15.9007,9.2152c0.8669,0.5023,1.5369,1.2953,1.8872,2.2338l0.4676,1.2512c0.4294,1.1516,0.3223,2.3403-0.2938,3.2616 c-0.5586,0.8347-1.4417,1.3141-2.54,1.3529c-1.432,0.1184-2.5873,1.1467-2.8849,2.6094c-0.2083,1.0246-0.8276,1.8162-1.7435,2.2284 c-1.0117,0.4553-2.2004,0.3633-3.2654-0.2521l-1.1559-0.6678c-0.8669-0.5013-1.5385-1.2937-1.8899-2.2316l-6.0771-16.2138 c-0.2093-0.558-0.825-0.8495-1.3889-0.6557c-0.1539,0.0525-0.318,0.0952-0.5026,0.1305c-0.4795,0.0915-0.8416,0.4873-0.8901,0.973 l-1.7053,17.0573c-0.1001,0.9969-0.5457,1.9351-1.2555,2.6414l-0.9466,0.942c-0.8712,0.8675-1.9986,1.2611-3.0916,1.0795 c-0.9912-0.1638-1.7925-0.7703-2.279-1.7535c-0.4235-0.8546-1.1723-1.4456-2.0543-1.6742c-0.1364-1.1563-0.6832-2.2567-1.591-3.1375 l-0.8244-0.7999c-0.7545-0.7321-1.6973-1.2384-2.7133-1.476c0.1485-0.8891,0.571-1.7176,1.2113-2.3565l12.0783-12.0504 c0.3439-0.343,0.423-0.8707,0.1943-1.2993c-0.1092-0.2039-0.1986-0.4195-0.2664-0.6404c-0.0877-0.2847-0.2863-0.5217-0.551-0.6573 c-0.2648-0.1356-0.5742-0.159-0.8556-0.0632l-16.6669,5.634c-0.9487,0.3204-1.9868,0.3019-2.9231-0.0527l-1.2485-0.4733 c-1.15-0.4356-1.9739-1.2996-2.2607-2.3705c-0.2594-0.9702-0.0382-1.9505,0.6189-2.7536c0.0016-0.0021,0.0361-0.0439,0.0382-0.046 c0.9116-1.1158,0.9778-2.6611,0.1329-3.8885c-0.6334-0.832-0.8206-1.8192-0.5268-2.7794c0.3239-1.0604,1.1774-1.895,2.3414-2.29 l1.2646-0.4292C150.8916,426.4218,151.9291,426.4393,152.8665,426.7931z M165.9172,357.4634 c6.1411-9.9102,16.1057-22.0423,29.4319-25.3857c-5.4114,8.0625-24.6846,35.9979-40.0078,48.4203 C156.4736,376.407,159.8859,367.1969,165.9172,357.4634z M190.2229,283.4857c-1.7005,6.1231-6.2805,20.2472-15.9181,36.461 c-7.0309,8.1776-12.5672,16.4518-16.3513,22.6951c-0.7787,0.8979-1.5703,1.7946-2.3834,2.6884 C158.6998,333.9889,169.0373,301.9941,190.2229,283.4857z M156.077,350.3077c5.6267-10.3324,22.9695-39.1379,47.8091-52.3436 C199.2996,306.354,184.261,330.8981,156.077,350.3077z" fill="url(#a)"/></svg>